<svg width="1440" height="604" viewBox="0 0 1440 604" fill="none" xmlns="http://www.w3.org/2000/svg">
<path d="M727.081 120.097C508.093 72.5977 263.305 -101.514 -7 83.5002V507.501C14.5431 523.902 60.4631 534.11 77.7382 528.139C146.026 504.537 181.897 514.508 204.253 528.139C308.412 591.645 441.533 627.425 488.785 586.644C568.048 518.238 665.602 485.135 715.395 485.135C772.809 508.971 915.177 536.84 1025.33 457.633C1135.49 378.426 1350.34 491.833 1444 514.501V80.0984C1418.39 90.4994 1291.57 90.806 1269.22 80.0984C1193 43.5952 1081.72 46.5954 1000.43 80.0984C903.389 120.097 795.165 134.865 727.081 120.097Z" fill="#EDFBFF"/>
</svg>
