<svg width="40" height="38" viewBox="0 0 40 38" fill="none" xmlns="http://www.w3.org/2000/svg">
<path d="M1.30566 32.0605V35H0.40332V31.3018H1.25439L1.30566 32.0605ZM1.17236 33.0176H0.895508C0.895508 32.7601 0.92627 32.5231 0.987793 32.3066C1.0516 32.0902 1.14502 31.9022 1.26807 31.7427C1.39111 31.5809 1.54264 31.4556 1.72266 31.3667C1.90495 31.2778 2.11572 31.2334 2.35498 31.2334C2.52132 31.2334 2.67399 31.2585 2.81299 31.3086C2.95199 31.3564 3.07161 31.4328 3.17188 31.5376C3.27441 31.6401 3.35303 31.7746 3.40771 31.9409C3.4624 32.105 3.48975 32.3021 3.48975 32.5322V35H2.5874V32.6245C2.5874 32.4513 2.56234 32.3158 2.51221 32.2178C2.46436 32.1198 2.39486 32.0514 2.30371 32.0127C2.21257 31.9717 2.10319 31.9512 1.97559 31.9512C1.83431 31.9512 1.7124 31.9797 1.60986 32.0366C1.5096 32.0913 1.42643 32.1676 1.36035 32.2656C1.29655 32.3636 1.2487 32.4764 1.2168 32.604C1.18717 32.7316 1.17236 32.8695 1.17236 33.0176ZM3.42139 32.8501L3.04883 32.9185C3.05111 32.686 3.08301 32.4684 3.14453 32.2656C3.20605 32.0605 3.29606 31.8817 3.41455 31.729C3.53532 31.5741 3.68457 31.4533 3.8623 31.3667C4.04232 31.2778 4.24967 31.2334 4.48438 31.2334C4.66667 31.2334 4.83073 31.2596 4.97656 31.312C5.12467 31.3621 5.25114 31.443 5.35596 31.5547C5.46077 31.6641 5.54053 31.8065 5.59521 31.9819C5.65218 32.1574 5.68066 32.3716 5.68066 32.6245V35H4.77148V32.6211C4.77148 32.4411 4.74642 32.3032 4.69629 32.2075C4.64844 32.1118 4.57894 32.0457 4.48779 32.0093C4.39665 31.9705 4.28955 31.9512 4.1665 31.9512C4.04118 31.9512 3.9318 31.9751 3.83838 32.0229C3.74723 32.0685 3.66976 32.1323 3.60596 32.2144C3.54443 32.2964 3.49772 32.3921 3.46582 32.5015C3.4362 32.6086 3.42139 32.7248 3.42139 32.8501ZM8.52783 34.2139V32.5083C8.52783 32.383 8.50618 32.2747 8.46289 32.1836C8.4196 32.0924 8.35352 32.0218 8.26465 31.9717C8.17578 31.9215 8.06299 31.8965 7.92627 31.8965C7.8055 31.8965 7.69954 31.917 7.6084 31.958C7.51953 31.999 7.45117 32.0571 7.40332 32.1323C7.35547 32.2052 7.33154 32.2896 7.33154 32.3853H6.42578C6.42578 32.2326 6.46224 32.0879 6.53516 31.9512C6.60807 31.8122 6.71175 31.6891 6.84619 31.582C6.98291 31.4727 7.14583 31.3872 7.33496 31.3257C7.52637 31.2642 7.74056 31.2334 7.97754 31.2334C8.25781 31.2334 8.50732 31.2812 8.72607 31.377C8.9471 31.4704 9.12028 31.6117 9.24561 31.8008C9.37321 31.9899 9.43701 32.228 9.43701 32.5151V34.1284C9.43701 34.313 9.4484 34.4714 9.47119 34.6035C9.49626 34.7334 9.53271 34.8462 9.58057 34.9419V35H8.66113C8.61784 34.9066 8.5848 34.7881 8.56201 34.6445C8.53923 34.4987 8.52783 34.3551 8.52783 34.2139ZM8.6543 32.7476L8.66113 33.2842H8.09033C7.94906 33.2842 7.82487 33.299 7.71777 33.3286C7.61068 33.356 7.52295 33.397 7.45459 33.4517C7.38623 33.5041 7.33496 33.5679 7.30078 33.6431C7.2666 33.716 7.24951 33.7992 7.24951 33.8926C7.24951 33.9837 7.27002 34.0658 7.31104 34.1387C7.35433 34.2116 7.41585 34.2697 7.49561 34.313C7.57764 34.354 7.67334 34.3745 7.78271 34.3745C7.94222 34.3745 8.08122 34.3426 8.19971 34.2788C8.3182 34.2127 8.41048 34.133 8.47656 34.0396C8.54264 33.9461 8.57796 33.8573 8.58252 33.7729L8.84229 34.1626C8.81038 34.256 8.76253 34.3551 8.69873 34.46C8.63493 34.5648 8.5529 34.6628 8.45264 34.7539C8.35238 34.8451 8.23161 34.9202 8.09033 34.9795C7.94906 35.0387 7.78499 35.0684 7.59814 35.0684C7.35889 35.0684 7.14469 35.0205 6.95557 34.9248C6.76644 34.8291 6.61719 34.6981 6.50781 34.5317C6.39844 34.3654 6.34375 34.1763 6.34375 33.9644C6.34375 33.7684 6.38021 33.5952 6.45312 33.4448C6.52604 33.2944 6.63428 33.168 6.77783 33.0654C6.92139 32.9606 7.09912 32.882 7.31104 32.8296C7.52523 32.7749 7.77018 32.7476 8.0459 32.7476H8.6543ZM12.2842 33.9883C12.2842 33.9108 12.2637 33.8413 12.2227 33.7798C12.1816 33.7183 12.1042 33.6624 11.9902 33.6123C11.8786 33.5599 11.7145 33.5109 11.498 33.4653C11.3066 33.4243 11.13 33.373 10.9683 33.3115C10.8065 33.25 10.6675 33.1759 10.5513 33.0894C10.4351 33.0005 10.3439 32.8968 10.2778 32.7783C10.214 32.6576 10.1821 32.5186 10.1821 32.3613C10.1821 32.2087 10.2152 32.0651 10.2812 31.9307C10.3473 31.7939 10.443 31.6743 10.5684 31.5718C10.6937 31.467 10.8464 31.3849 11.0264 31.3257C11.2064 31.2642 11.4092 31.2334 11.6348 31.2334C11.9492 31.2334 12.2192 31.2847 12.4448 31.3872C12.6727 31.4897 12.847 31.631 12.9678 31.811C13.0885 31.9888 13.1489 32.1893 13.1489 32.4126H12.2466C12.2466 32.3146 12.2238 32.2257 12.1782 32.146C12.1349 32.0662 12.0677 32.0024 11.9766 31.9546C11.8854 31.9045 11.7703 31.8794 11.6313 31.8794C11.506 31.8794 11.4001 31.8999 11.3135 31.9409C11.2292 31.9819 11.1654 32.0355 11.1221 32.1016C11.0788 32.1676 11.0571 32.2406 11.0571 32.3203C11.0571 32.3796 11.0685 32.4331 11.0913 32.481C11.1164 32.5265 11.1562 32.5687 11.2109 32.6074C11.2656 32.6462 11.3397 32.6815 11.4331 32.7134C11.5288 32.7453 11.6462 32.776 11.7852 32.8057C12.0609 32.8604 12.3013 32.9333 12.5063 33.0244C12.7137 33.1133 12.8755 33.2318 12.9917 33.3799C13.1079 33.528 13.166 33.7171 13.166 33.9473C13.166 34.1113 13.1307 34.2617 13.0601 34.3984C12.9894 34.5329 12.8869 34.6502 12.7524 34.7505C12.618 34.8507 12.4574 34.9294 12.2705 34.9863C12.0837 35.041 11.8729 35.0684 11.6382 35.0684C11.2987 35.0684 11.0116 35.008 10.7769 34.8872C10.5422 34.7642 10.3644 34.6092 10.2437 34.4224C10.1229 34.2332 10.0625 34.0373 10.0625 33.8345H10.9272C10.9341 33.978 10.9728 34.0931 11.0435 34.1797C11.1141 34.2663 11.203 34.3289 11.3101 34.3677C11.4194 34.4041 11.5345 34.4224 11.6553 34.4224C11.792 34.4224 11.9071 34.4041 12.0005 34.3677C12.0939 34.3289 12.1646 34.2777 12.2124 34.2139C12.2603 34.1478 12.2842 34.0726 12.2842 33.9883ZM15.603 31.3018V31.9512H13.4839V31.3018H15.603ZM14.0513 30.3926H14.957V33.9336C14.957 34.043 14.9718 34.1273 15.0015 34.1865C15.0311 34.2458 15.0755 34.2856 15.1348 34.3062C15.194 34.3267 15.2646 34.3369 15.3467 34.3369C15.4059 34.3369 15.4606 34.3335 15.5107 34.3267C15.5609 34.3198 15.603 34.313 15.6372 34.3062L15.6406 34.9829C15.5654 35.008 15.48 35.0285 15.3843 35.0444C15.2909 35.0604 15.1849 35.0684 15.0664 35.0684C14.8636 35.0684 14.6859 35.0342 14.5332 34.9658C14.3805 34.8952 14.262 34.7824 14.1777 34.6274C14.0934 34.4702 14.0513 34.2629 14.0513 34.0054V30.3926ZM17.8657 35.0684C17.5854 35.0684 17.3337 35.0228 17.1104 34.9316C16.887 34.8405 16.6968 34.714 16.5396 34.5522C16.3846 34.3882 16.265 34.1979 16.1807 33.9814C16.0986 33.7627 16.0576 33.528 16.0576 33.2773V33.1406C16.0576 32.8558 16.0986 32.5972 16.1807 32.3647C16.2627 32.13 16.3789 31.9284 16.5293 31.7598C16.6797 31.5911 16.8597 31.4613 17.0693 31.3701C17.279 31.279 17.5103 31.2334 17.7632 31.2334C18.0252 31.2334 18.2565 31.2778 18.457 31.3667C18.6576 31.4533 18.825 31.5763 18.9595 31.7358C19.0939 31.8953 19.1953 32.0868 19.2637 32.3101C19.332 32.5311 19.3662 32.776 19.3662 33.0449V33.4243H16.4678V32.8022H18.4775V32.7339C18.473 32.5903 18.4456 32.4593 18.3955 32.3408C18.3454 32.2201 18.2679 32.1243 18.1631 32.0537C18.0583 31.9808 17.9227 31.9443 17.7563 31.9443C17.6219 31.9443 17.5046 31.974 17.4043 32.0332C17.3063 32.0902 17.2243 32.1722 17.1582 32.2793C17.0944 32.3841 17.0465 32.5094 17.0146 32.6553C16.9827 32.8011 16.9668 32.9629 16.9668 33.1406V33.2773C16.9668 33.4323 16.9873 33.5758 17.0283 33.708C17.0716 33.8402 17.1343 33.9552 17.2163 34.0532C17.3006 34.1489 17.4009 34.2241 17.5171 34.2788C17.6356 34.3312 17.77 34.3574 17.9204 34.3574C18.1095 34.3574 18.2804 34.321 18.4331 34.248C18.5881 34.1729 18.7225 34.0623 18.8364 33.9165L19.291 34.3882C19.2135 34.5021 19.1087 34.6115 18.9766 34.7163C18.8467 34.8211 18.6895 34.9066 18.5049 34.9727C18.3203 35.0365 18.1073 35.0684 17.8657 35.0684ZM20.8735 32.0571V35H19.9712V31.3018H20.8257L20.8735 32.0571ZM21.998 31.2778L21.9844 32.1187C21.9342 32.1095 21.8773 32.1027 21.8135 32.0981C21.752 32.0936 21.6938 32.0913 21.6392 32.0913C21.5002 32.0913 21.3783 32.1107 21.2734 32.1494C21.1686 32.1859 21.0809 32.2394 21.0103 32.3101C20.9419 32.3807 20.8895 32.4673 20.853 32.5698C20.8166 32.6701 20.7961 32.784 20.7915 32.9116L20.5967 32.8877C20.5967 32.653 20.6206 32.4354 20.6685 32.2349C20.7163 32.0343 20.7858 31.8589 20.877 31.7085C20.9681 31.5581 21.082 31.4419 21.2188 31.3599C21.3577 31.2756 21.5173 31.2334 21.6973 31.2334C21.7474 31.2334 21.8009 31.238 21.8579 31.2471C21.9172 31.2539 21.9639 31.2642 21.998 31.2778ZM23.9429 34.3574C24.0705 34.3574 24.1844 34.3324 24.2847 34.2822C24.3849 34.2321 24.4647 34.1615 24.5239 34.0703C24.5854 33.9792 24.6185 33.8732 24.623 33.7524H25.4741C25.4696 34.0031 25.3989 34.2275 25.2622 34.4258C25.1255 34.624 24.9432 34.7812 24.7153 34.8975C24.4897 35.0114 24.2368 35.0684 23.9565 35.0684C23.6717 35.0684 23.4233 35.0205 23.2114 34.9248C22.9995 34.8291 22.8229 34.6958 22.6816 34.5249C22.5426 34.354 22.4378 34.1558 22.3672 33.9302C22.2988 33.7046 22.2646 33.4631 22.2646 33.2056V33.0962C22.2646 32.8387 22.2988 32.5972 22.3672 32.3716C22.4378 32.146 22.5426 31.9478 22.6816 31.7769C22.8229 31.606 22.9995 31.4727 23.2114 31.377C23.4233 31.2812 23.6706 31.2334 23.9531 31.2334C24.2516 31.2334 24.5137 31.2915 24.7393 31.4077C24.9671 31.5239 25.1449 31.688 25.2725 31.8999C25.4023 32.1118 25.4696 32.3613 25.4741 32.6484H24.623C24.6185 32.5163 24.5889 32.3978 24.5342 32.293C24.4795 32.1882 24.402 32.1038 24.3018 32.04C24.2015 31.9762 24.0796 31.9443 23.936 31.9443C23.7834 31.9443 23.6558 31.9762 23.5532 32.04C23.453 32.1038 23.3743 32.1916 23.3174 32.3032C23.2627 32.4126 23.224 32.5356 23.2012 32.6724C23.1807 32.8068 23.1704 32.9481 23.1704 33.0962V33.2056C23.1704 33.356 23.1807 33.4995 23.2012 33.6362C23.224 33.7729 23.2627 33.896 23.3174 34.0054C23.3743 34.1125 23.453 34.1979 23.5532 34.2617C23.6558 34.3255 23.7856 34.3574 23.9429 34.3574ZM28.1128 34.2139V32.5083C28.1128 32.383 28.0911 32.2747 28.0479 32.1836C28.0046 32.0924 27.9385 32.0218 27.8496 31.9717C27.7607 31.9215 27.6479 31.8965 27.5112 31.8965C27.3905 31.8965 27.2845 31.917 27.1934 31.958C27.1045 31.999 27.0361 32.0571 26.9883 32.1323C26.9404 32.2052 26.9165 32.2896 26.9165 32.3853H26.0107C26.0107 32.2326 26.0472 32.0879 26.1201 31.9512C26.193 31.8122 26.2967 31.6891 26.4312 31.582C26.5679 31.4727 26.7308 31.3872 26.9199 31.3257C27.1113 31.2642 27.3255 31.2334 27.5625 31.2334C27.8428 31.2334 28.0923 31.2812 28.311 31.377C28.5321 31.4704 28.7052 31.6117 28.8306 31.8008C28.9582 31.9899 29.022 32.228 29.022 32.5151V34.1284C29.022 34.313 29.0334 34.4714 29.0562 34.6035C29.0812 34.7334 29.1177 34.8462 29.1655 34.9419V35H28.2461C28.2028 34.9066 28.1698 34.7881 28.147 34.6445C28.1242 34.4987 28.1128 34.3551 28.1128 34.2139ZM28.2393 32.7476L28.2461 33.2842H27.6753C27.534 33.2842 27.4098 33.299 27.3027 33.3286C27.1956 33.356 27.1079 33.397 27.0396 33.4517C26.9712 33.5041 26.9199 33.5679 26.8857 33.6431C26.8516 33.716 26.8345 33.7992 26.8345 33.8926C26.8345 33.9837 26.855 34.0658 26.896 34.1387C26.9393 34.2116 27.0008 34.2697 27.0806 34.313C27.1626 34.354 27.2583 34.3745 27.3677 34.3745C27.5272 34.3745 27.6662 34.3426 27.7847 34.2788C27.9032 34.2127 27.9954 34.133 28.0615 34.0396C28.1276 33.9461 28.1629 33.8573 28.1675 33.7729L28.4272 34.1626C28.3953 34.256 28.3475 34.3551 28.2837 34.46C28.2199 34.5648 28.1379 34.6628 28.0376 34.7539C27.9373 34.8451 27.8166 34.9202 27.6753 34.9795C27.534 35.0387 27.37 35.0684 27.1831 35.0684C26.9438 35.0684 26.7297 35.0205 26.5405 34.9248C26.3514 34.8291 26.2021 34.6981 26.0928 34.5317C25.9834 34.3654 25.9287 34.1763 25.9287 33.9644C25.9287 33.7684 25.9652 33.5952 26.0381 33.4448C26.111 33.2944 26.2192 33.168 26.3628 33.0654C26.5063 32.9606 26.6841 32.882 26.896 32.8296C27.1102 32.7749 27.3551 32.7476 27.6309 32.7476H28.2393ZM30.7378 32.0571V35H29.8354V31.3018H30.6899L30.7378 32.0571ZM31.8623 31.2778L31.8486 32.1187C31.7985 32.1095 31.7415 32.1027 31.6777 32.0981C31.6162 32.0936 31.5581 32.0913 31.5034 32.0913C31.3644 32.0913 31.2425 32.1107 31.1377 32.1494C31.0329 32.1859 30.9451 32.2394 30.8745 32.3101C30.8062 32.3807 30.7537 32.4673 30.7173 32.5698C30.6808 32.6701 30.6603 32.784 30.6558 32.9116L30.4609 32.8877C30.4609 32.653 30.4849 32.4354 30.5327 32.2349C30.5806 32.0343 30.6501 31.8589 30.7412 31.7085C30.8324 31.5581 30.9463 31.4419 31.083 31.3599C31.222 31.2756 31.3815 31.2334 31.5615 31.2334C31.6117 31.2334 31.6652 31.238 31.7222 31.2471C31.7814 31.2539 31.8281 31.2642 31.8623 31.2778ZM34.5078 34.2139V29.75H35.417V35H34.5967L34.5078 34.2139ZM32.1323 33.1953V33.1235C32.1323 32.841 32.1642 32.5846 32.228 32.3545C32.2941 32.1221 32.3898 31.9227 32.5151 31.7563C32.6405 31.59 32.792 31.4613 32.9697 31.3701C33.1497 31.279 33.3537 31.2334 33.5815 31.2334C33.8026 31.2334 33.9951 31.2778 34.1592 31.3667C34.3255 31.4556 34.4668 31.582 34.583 31.7461C34.7015 31.9102 34.7961 32.105 34.8667 32.3306C34.9373 32.5539 34.9886 32.8 35.0205 33.0688V33.2637C34.9886 33.5257 34.9373 33.7661 34.8667 33.9849C34.7961 34.2036 34.7015 34.395 34.583 34.5591C34.4668 34.7209 34.3255 34.8462 34.1592 34.9351C33.9928 35.0239 33.798 35.0684 33.5747 35.0684C33.3491 35.0684 33.1463 35.0216 32.9663 34.9282C32.7886 34.8348 32.637 34.7038 32.5117 34.5352C32.3887 34.3665 32.2941 34.1683 32.228 33.9404C32.1642 33.7126 32.1323 33.4642 32.1323 33.1953ZM33.0381 33.1235V33.1953C33.0381 33.3548 33.0518 33.5041 33.0791 33.6431C33.1064 33.7821 33.1509 33.9051 33.2124 34.0122C33.2739 34.117 33.3525 34.1991 33.4482 34.2583C33.5462 34.3175 33.6647 34.3472 33.8037 34.3472C33.9814 34.3472 34.1273 34.3084 34.2412 34.231C34.3574 34.1512 34.4474 34.043 34.5112 33.9062C34.575 33.7673 34.616 33.6112 34.6343 33.438V32.9014C34.6252 32.7646 34.6012 32.6382 34.5625 32.522C34.526 32.4058 34.4736 32.3055 34.4053 32.2212C34.3392 32.1369 34.2572 32.0708 34.1592 32.0229C34.0612 31.9751 33.945 31.9512 33.8105 31.9512C33.6715 31.9512 33.5531 31.9819 33.4551 32.0435C33.3571 32.1027 33.2773 32.1859 33.2158 32.293C33.1543 32.4001 33.1087 32.5243 33.0791 32.6655C33.0518 32.8068 33.0381 32.9595 33.0381 33.1235Z" fill="white"/>
<circle cx="12" cy="12" r="12" fill="#FFFCFC" fill-opacity="0.8"/>
<circle cx="24" cy="12" r="12" fill="#FFFCFC" fill-opacity="0.5"/>
</svg>
