<svg width="605" height="383" viewBox="0 0 605 383" fill="none" xmlns="http://www.w3.org/2000/svg">
<path opacity="0.6" d="M90.8084 183.459C90.915 183.331 91.0782 183.265 91.2437 183.282L182.579 192.737C182.763 192.756 182.921 192.875 182.991 193.047L215.333 272.618C215.402 272.789 215.372 272.985 215.254 273.126L156.414 343.621C156.308 343.749 156.144 343.815 155.979 343.798L64.6435 334.343C64.4597 334.324 64.3014 334.205 64.2318 334.034L31.8897 254.462C31.8201 254.291 31.8507 254.095 31.9691 253.954L90.8084 183.459Z" stroke="#F1F2F5" stroke-width="5"/>
<path opacity="0.6" d="M269.447 111.417C269.554 111.289 269.717 111.222 269.882 111.24L361.218 120.695C361.402 120.714 361.56 120.833 361.629 121.004L393.972 200.575C394.041 200.747 394.011 200.942 393.892 201.084L335.053 271.579C334.946 271.706 334.783 271.773 334.618 271.755L243.282 262.3C243.098 262.281 242.94 262.162 242.871 261.991L210.528 182.42C210.459 182.249 210.489 182.053 210.608 181.911L269.447 111.417Z" stroke="#F1F2F5" stroke-width="5"/>
<path opacity="0.6" d="M448.085 39.3736C448.192 39.2458 448.355 39.1795 448.521 39.1966L539.856 48.652C540.04 48.671 540.198 48.7899 540.268 48.9611L572.61 128.532C572.679 128.704 572.649 128.899 572.53 129.041L513.691 199.536C513.584 199.663 513.421 199.73 513.256 199.713L421.92 190.257C421.737 190.238 421.578 190.119 421.509 189.948L389.167 110.377C389.097 110.206 389.128 110.01 389.246 109.868L448.085 39.3736Z" stroke="#F1F2F5" stroke-width="5"/>
<g opacity="0.05">
<path fill-rule="evenodd" clip-rule="evenodd" d="M74.5197 66.1304C75.0359 65.9037 75.5558 66.0566 76.0061 66.2573C78.5705 67.3942 81.0614 68.7114 83.684 69.6862C86.1769 70.6151 87.4616 72.8759 89.4329 74.364C91.653 76.0438 94.1022 76.6763 96.8097 76.6174C97.2147 76.6086 97.4258 76.3821 97.4706 75.9816C97.5294 75.4238 97.0974 75.5434 96.7889 75.4691C95.3144 75.1176 94.1461 74.4682 93.5399 72.9126C92.964 71.4338 93.2813 70.0339 94.2901 68.8357C95.055 67.9269 96.075 68.0183 96.9551 67.6139C98.2977 66.9972 98.5213 66.226 97.5841 65.0524C96.4308 63.6053 95.0923 62.4398 93.237 61.9154C91.8567 61.5264 90.7416 60.6706 89.9277 59.4537C89.6819 59.0882 89.5166 58.7105 89.4795 58.2772C89.4618 58.0548 89.4904 57.8194 89.705 57.7241C89.937 57.6215 90.1475 57.7907 90.203 57.9943C90.7527 60.0056 92.4449 60.6565 94.1348 61.2778C95.6496 61.8321 96.9764 62.597 97.8748 63.9929C98.0208 64.2163 98.2384 64.5535 98.5871 64.375C98.8474 64.2443 98.7501 63.9247 98.7352 63.6791C98.7091 63.2436 98.6389 62.719 99.2727 62.7627C99.7733 62.7989 99.7002 63.2277 99.6669 63.6486C99.6322 64.081 99.6515 64.7664 100.324 64.6066C100.935 64.459 101.895 64.5887 101.924 63.5209C101.931 63.2709 101.824 63.0172 101.797 62.7665C101.756 62.3528 101.852 61.9269 102.304 61.8675C102.81 61.7972 103.059 62.1808 103.13 62.6526C103.173 62.9453 103.154 63.2503 103.197 63.5431C103.282 64.1025 103.768 64.1039 104.172 64.2009C104.643 64.3183 104.796 63.9867 104.843 63.6383C105.132 61.487 106.052 59.7678 107.782 58.3512C108.492 57.7698 108.927 56.6815 109.154 55.6611C109.214 55.3931 109.155 54.9642 109.625 55.1119C110.011 55.2313 110.146 55.5887 109.936 55.939C109.07 57.3801 108.759 59.1705 107.255 60.2108C105.65 61.3241 105.875 63.2001 105.439 64.778C105.308 65.2408 105.761 65.9116 106.378 66.1733C106.769 66.3405 107.165 66.5295 107.576 66.6098C110.505 67.196 110.614 70.0027 109.487 71.876C109.048 72.6034 108.98 72.9257 109.76 73.2869C110.302 73.537 110.296 74.5476 110.981 74.4342C111.715 74.315 112.434 73.935 113.084 73.5498C116.554 71.5055 118.888 68.5003 120.358 64.7889C120.436 64.5927 120.538 64.3842 120.543 64.1799C120.613 61.3075 122.856 60.3915 124.908 59.3028C126.826 58.2857 128.732 57.1692 130.411 55.872C131.39 55.1128 132.542 53.762 132.39 52.0484C132.334 51.4042 132.458 50.89 133.441 51.3277C135.006 52.0226 135.036 51.9263 134.25 53.566C133.508 55.1182 132.519 56.3425 130.764 56.8753C129.372 57.2984 128.253 58.2849 127.036 59.0575C125.477 60.0484 123.735 60.7783 122.501 62.2471C122.242 62.5546 122.015 62.8332 121.96 63.2207C121.235 68.3169 118.112 71.8593 114.34 74.9804C114.288 75.0245 114.283 75.131 114.168 75.4778C115.475 74.7966 116.665 74.3043 117.711 73.5959C118.935 72.7617 120.165 72.0319 121.543 71.4421C123.004 70.8169 124.165 69.5848 125.542 68.7241C128.982 66.5689 132.55 64.6595 136.172 62.8335C137.237 62.2982 138.276 61.7079 139.344 61.1872C140.996 60.3848 142.688 59.6875 144.55 59.5628C146.458 59.4403 147.698 58.2302 148.897 56.9453C149.12 56.7051 149.296 56.3352 149.711 56.4561C149.835 56.4918 149.966 56.6955 149.986 56.8346C150.042 57.2716 149.649 57.3572 149.378 57.5502C149.072 57.7693 148.386 57.8038 148.671 58.3874C148.898 58.8507 149.439 58.574 149.839 58.5058C152.966 57.9795 156.131 57.8748 159.21 58.5069C161.864 59.0535 164.444 60.0441 166.817 61.43C167.967 62.1018 168.045 63.5364 167.679 65.2246C166.743 69.5381 163.762 72.0918 160.372 74.4216C158.797 75.5023 157.372 76.8021 155.906 78.0343C154.105 79.548 152.27 80.9666 149.847 81.3571C149.091 81.4769 148.574 81.7377 148.894 82.8002C149.198 83.8171 147.378 86.3399 146.442 86.8572C145.227 87.5313 143.88 88.0132 142.894 89.06C142.747 89.2134 142.586 89.3885 142.35 89.3149C140.532 88.7529 138.737 89.708 136.92 89.3756C136.76 89.3471 136.488 89.3445 136.431 89.435C135.458 90.9498 134.525 89.7002 133.502 89.5001C131.282 89.0708 129.03 88.753 126.643 88.6806C126.978 89.6649 127.464 90.2162 128.319 90.5964C129.893 91.2972 131.637 91.373 133.2 92.0984C133.823 92.3891 134.301 92.7499 134.568 93.3559C135.426 95.306 137.208 95.9919 139.021 96.6075C139.437 96.7473 139.964 96.748 139.897 97.3C139.807 98.0221 139.153 97.8053 138.772 97.6852C137.43 97.2622 136.27 96.4643 135.079 95.7366C134.77 95.5492 134.379 94.9038 134.041 95.4228C133.724 95.9149 134.364 96.1948 134.737 96.4446C135.867 97.2034 137 97.9426 138.357 98.2685C138.839 98.3836 139.466 98.6396 139.17 99.2934C138.876 99.9392 138.356 99.5754 137.874 99.366C136.149 98.6238 134.463 97.817 133.092 96.5073C132.535 95.974 131.799 96.3496 131.197 95.9155C129.551 94.7357 127.591 93.9685 126.432 92.1686C126.121 91.6842 125.698 91.9262 125.283 91.9785C124.057 92.1389 122.99 92.4372 121.847 91.1764C120.984 90.2253 119.382 89.7411 117.893 89.6411C117.868 89.7439 117.802 89.8662 117.83 89.8909C119.42 91.3567 119.796 93.4025 120.432 95.3175C120.95 96.8868 121.767 98.137 123.464 98.659C123.969 98.8148 124.873 99.174 123.596 99.6872C123.223 99.8366 123.413 100.074 123.515 100.302C123.946 101.241 124.71 101.696 125.693 101.885C126.308 102.004 126.846 102.228 125.935 102.76C125.249 103.159 125.599 103.44 126.025 103.634C126.633 103.905 127.229 104.273 127.967 104.062C128.224 103.989 128.637 103.948 128.722 104.319C128.822 104.766 128.405 104.887 128.084 104.958C127.645 105.057 127.187 105.083 126.636 105.155C127.197 106.237 128.174 105.844 128.919 106.073C129.497 106.252 130.554 105.771 130.587 106.465C130.622 107.196 129.598 106.951 128.996 106.991C128.777 107.005 128.54 107.007 128.438 107.215C128.308 107.49 128.498 107.708 128.678 107.891C129.055 108.272 129.518 108.233 129.994 108.13C130.424 108.038 130.862 107.68 131.331 108.204C130.873 108.687 130.349 108.968 129.679 108.954C129.101 108.94 128.383 109.023 128.268 109.565C128.153 110.104 128.973 110.156 129.35 110.446C130.021 110.961 130.773 111.373 131.483 111.838C131.664 111.953 131.866 112.116 131.765 112.347C131.635 112.659 131.348 112.6 131.113 112.477C130.393 112.111 129.685 111.717 128.965 111.351C128.714 111.224 128.438 110.951 128.16 111.225C127.918 111.465 128.061 111.806 128.145 112.075C128.428 112.991 129.333 113.263 130.018 113.715C130.932 114.317 131.946 114.775 132.924 115.281C133.154 115.401 133.636 115.268 133.461 115.751C133.335 116.1 132.954 116.006 132.672 115.93C132.346 115.844 132.033 115.71 131.725 115.579C130.924 115.245 130.129 114.902 129.283 114.659C130.283 115.752 131.499 116.55 132.681 117.397C132.592 117.501 132.532 117.618 132.493 117.611C130.991 117.386 131.214 117.368 131.324 118.913C131.539 121.853 133.522 122.717 135.875 123.32C136.379 123.45 137.165 124.83 136.955 125.293C136.633 126.002 135.983 125.784 135.502 125.601C133.191 124.715 130.739 123.842 129.656 121.417C129.074 120.116 128.19 119.098 127.477 117.936C126.709 116.684 126.586 115.303 126.535 113.89C126.484 112.401 126.408 110.914 126.327 109.427C126.319 109.27 126.248 109.085 126.14 108.974C123.136 105.925 121.726 101.953 119.901 98.2211C119.153 96.6899 118.558 95.0981 118.331 93.3844C118.226 92.6105 117.697 92.0489 117.125 91.5409C117.021 91.6444 116.908 91.7195 116.918 91.7478C118.216 95.2526 117.915 98.939 118.152 102.56C118.33 105.282 118.696 107.977 119.026 110.684C119.507 114.648 119.831 118.632 119.639 122.64C119.588 123.689 119.472 124.737 119.688 125.805C119.961 127.186 119.058 128.63 117.773 129.345C117.114 129.709 116.53 130.22 115.911 130.667C113.104 132.693 111.494 132.112 108.675 129.391C106.44 127.236 105.844 124.214 104.877 121.408C104.281 119.68 103.694 117.955 102.95 116.273C102.283 114.77 101.843 113.159 101.374 111.576C100.554 108.79 99.3574 106.139 98.4965 103.376C97.8938 101.439 97.51 99.4103 97.2826 97.3916C97.1075 95.8257 97.3888 94.2446 98.4934 92.9408C98.7162 92.6782 99.0057 92.3721 98.916 91.825C97.7741 92.8651 97.0805 94.0007 96.6886 95.4607C95.6365 99.364 96.3253 103.329 96.0492 107.251C95.8293 110.394 95.4805 113.514 93.448 116.139C93.0314 116.678 93.0948 117.339 93.1344 117.976C93.2242 119.434 93.6264 120.834 94.0046 122.228C94.684 124.722 94.6949 127.13 93.3679 129.42C92.3132 131.241 91.58 133.183 91.0676 135.213C90.9948 135.51 90.953 135.83 90.5798 135.867C90.2914 135.894 90.1462 135.655 89.9878 135.446C89.3414 134.58 89.195 133.69 89.7579 132.712C90.8046 130.889 91.8304 129.054 92.8553 127.235C92.5861 127.018 92.4187 127.122 92.2381 127.256C91.4294 127.85 90.423 127.409 90.3238 126.416C90.3088 126.264 90.4677 126.116 90.2781 125.958C89.4699 125.282 89.4822 125.287 90.0848 124.433C90.7223 123.527 91.4118 122.675 92.2063 121.896C92.4522 121.655 92.8086 121.211 92.3555 120.921C92.0197 120.709 91.8104 121.172 91.6057 121.431C90.9495 122.262 90.2933 123.093 89.6234 123.911C89.3353 124.262 88.882 124.54 88.5225 124.227C88.1998 123.949 88.6451 123.63 88.8439 123.38C89.5546 122.482 90.2963 121.608 90.9939 120.701C91.2929 120.311 91.6565 119.922 91.565 119.119C90.6128 120.205 89.5207 120.907 88.7779 121.985C88.5558 122.307 88.2748 122.695 87.8609 122.374C87.4513 122.056 87.7221 121.693 88.0065 121.4C88.7764 120.61 89.56 119.833 90.3118 119.029C90.6252 118.692 91.0374 118.264 90.7657 117.805C90.5503 117.441 90.0652 117.748 89.7036 117.786C89.3239 117.828 88.8637 117.957 88.7079 117.494C88.5319 116.968 89.0594 116.912 89.3806 116.747C89.8592 116.501 90.2594 116.298 89.5451 115.792C88.9582 115.377 89.4375 115.079 89.7798 114.83C90.3549 114.407 91.069 114.133 91.3244 113.371C91.4074 113.125 91.5157 112.855 91.3407 112.637C91.1317 112.381 90.8692 112.557 90.651 112.672C90.2464 112.892 89.8013 113.078 89.5819 112.523C89.387 112.034 89.8835 111.898 90.2105 111.724C90.8304 111.394 91.5031 111.14 91.8916 110.554C91.677 110.156 91.4812 110.289 91.292 110.38C91.0549 110.494 90.8185 110.613 90.6335 110.307C90.4283 109.975 90.5959 109.757 90.8527 109.552C91.3822 109.126 91.9103 108.694 92.4304 108.259C92.7176 108.018 92.8536 107.697 92.7121 107.345C92.5418 106.923 92.2205 107.182 91.9494 107.24C91.4762 107.341 91.1273 107.158 90.768 106.638C93.2 106.216 93.6908 104.514 93.7172 102.408C93.7353 100.924 93.8303 99.4475 93.6862 97.9621C93.5727 96.8021 94.4562 96.092 95.1426 95.3946C95.911 94.617 96.2523 93.6416 96.8925 92.8254C96.8122 92.7622 96.7311 92.6954 96.6508 92.6323C96.01 93.3131 95.2984 93.9401 94.7416 94.6833C93.0066 97.0048 91.1885 99.2486 88.955 101.108C87.8727 102.012 86.817 103.088 85.159 102.874C84.6686 102.813 84.478 103.352 84.2898 103.713C83.7013 104.847 83.1627 106.005 82.5995 107.152C82.1243 108.116 81.5745 109.028 80.6528 109.64C80.2836 109.886 79.8598 110.407 79.4301 109.988C78.8665 109.444 79.6197 109.159 79.9303 108.77C79.5164 108.487 79.1771 108.618 78.8472 108.797C78.4673 109.008 78.0796 109.066 77.8542 108.632C77.5443 108.038 78.0659 107.592 78.2376 107.091C78.3831 106.667 78.6669 106.806 78.9194 107.054C79.289 107.417 79.5351 107.12 79.7535 106.854C80.3755 106.098 81.1148 105.402 81.5718 104.554C83.6147 100.767 86.8209 98.1155 90.1674 95.6023C92.5434 93.8164 95.0374 92.1691 96.6026 89.5235C96.7268 89.3143 97.0313 89.1409 96.7716 88.8949C96.5307 88.6678 96.2993 88.887 96.1258 89.0758C95.8965 89.3247 95.6824 89.5931 95.4625 89.8514C92.0616 93.8367 88.1039 97.1793 83.3936 99.4622C80.2811 100.972 77.0841 102.398 73.719 103.28C71.3382 103.903 68.9886 103.526 66.6651 102.597C64.0014 101.529 61.5909 100.237 60.0821 97.663C59.6954 97.0053 58.9072 96.9998 58.2735 96.8807C55.9378 96.4404 53.7389 95.5134 51.4388 94.968C49.637 94.5422 47.7578 94.4669 45.9363 94.1128C43.5941 93.6587 41.2002 93.324 39.2233 91.7692C37.7775 90.6325 37.6619 87.0512 38.7827 85.5446C41.0934 82.4423 44.3934 80.5295 47.3288 78.2033C49.3307 76.6198 51.7852 75.6846 54.3657 75.2328C56.3709 74.8801 58.3112 74.2577 60.3265 73.8993C63.9281 73.2599 67.494 73.1813 71.1047 73.7076C75.2616 74.3101 79.3512 75.2762 83.5124 75.8816C85.552 76.1773 87.7363 76.1958 89.5948 77.4578C87.7514 75.7597 85.8375 74.2376 84.2704 72.3379C83.8987 71.8882 83.5139 71.5427 83.3439 70.8948C83.2394 70.4824 82.4371 70.1972 81.9036 69.9566C79.8931 69.0487 77.8702 68.1734 75.8445 67.3024C75.2479 67.048 74.6433 66.829 74.5307 66.0718L74.4994 66.1231L74.5197 66.1304ZM58.8227 95.8905C58.721 95.6245 58.6582 95.4222 58.5658 95.241C58.4264 94.9561 58.3007 94.6835 58.6488 94.4638C59.0904 94.1841 59.2543 94.5922 59.4524 94.8315C59.6115 95.0259 59.7336 95.2616 59.8187 95.5008C60.0958 96.2518 60.5001 96.2393 61.0709 95.7946C62.0523 95.0275 62.865 94.1318 63.5577 93.0867C64.2395 92.0626 64.429 90.8537 64.8495 89.6894C65.3068 90.0393 65.1201 90.3889 65.1088 90.7113C65.0504 92.8846 63.535 94.206 62.2194 95.6421C62.0583 95.8171 61.722 95.9065 61.8932 96.219C61.9474 96.3212 62.1879 96.3752 62.3371 96.3682C65.1846 96.1797 67.7538 95.5193 69.3359 92.7687C69.9184 91.7567 70.4871 90.8078 70.5179 89.6154C70.5241 89.343 70.5615 89.038 70.2348 89.0238C68.1137 88.9249 66.0003 88.0299 63.8566 88.9562C63.3709 89.1656 62.8963 89.7154 62.0111 89.1454C63.6854 88.6437 64.8116 87.4486 66.6389 87.794C70.0509 88.4388 73.4858 88.3448 76.8812 87.5015C77.2472 87.4101 77.6486 87.3831 78.0245 87.4178C80.3411 87.6096 82.6109 87.1102 84.8883 86.8768C89.3031 86.4263 93.508 84.9931 97.6918 83.549C98.0549 83.4242 98.5086 83.338 98.497 82.862C98.4876 82.3592 98.043 82.2063 97.6288 82.055C97.2349 81.911 96.8746 82.0691 96.4971 82.1214C92.1146 82.6973 87.7435 83.463 83.3396 83.7795C80.7037 83.9711 78.1211 84.3744 75.5161 84.7218C72.2213 85.161 69.0735 86.5878 65.6582 86.1922C65.4576 86.168 65.2451 86.2741 65.0357 86.3006C63.1038 86.5861 61.4564 87.5268 59.7707 88.4451C58.0233 89.3944 56.3545 90.5503 54.3651 91.0392C54.6046 90.7281 54.8746 90.4561 55.1994 90.29C57.8152 88.9725 60.3993 87.6086 62.7717 85.8799C63.0908 85.6471 63.427 85.5766 63.8414 85.5961C65.0179 85.6413 66.2211 85.7453 67.3711 85.5623C70.8102 85.0154 74.2408 84.4062 77.6519 83.6992C80.5022 83.1073 83.4226 83.5145 86.2751 82.9146C88.2636 82.4974 90.3092 82.2534 92.34 82.1442C94.0912 82.049 95.7582 81.6052 97.4814 81.3499C96.5803 80.719 95.62 80.5103 94.589 80.5907C90.3692 80.9233 86.1486 81.2901 81.9259 81.5895C79.0545 81.7902 76.1667 81.8133 73.3052 82.1778C73.0589 82.2078 72.5984 81.9942 72.6332 82.4919C72.731 83.9526 71.8077 83.1529 71.4799 82.9242C70.9205 82.5343 70.5424 82.4511 69.8134 82.6108C68.1219 82.9879 66.4576 83.5592 64.6906 83.5935C63.464 83.6184 62.2135 83.6557 61.0214 83.9111C56.6826 84.8398 52.5976 86.5731 48.4607 88.1209C47.314 88.548 46.2538 89.2217 45.1553 89.7786C44.9567 89.8783 44.7428 89.9583 44.6012 89.7191C44.4545 89.4732 44.646 89.3185 44.828 89.2108C45.084 89.0583 45.3587 88.9436 45.6212 88.8049C47.3077 87.9091 49.1089 87.3068 50.8834 86.6271C54.02 85.4284 57.0939 84.0276 60.4439 83.5059C63.4178 83.0439 66.3967 82.626 69.3864 82.2813C70.4175 82.1633 70.2731 81.8342 69.8764 81.1634C68.7773 79.3064 66.6678 78.6969 65.1876 77.3109C64.8454 76.9909 64.3763 77.2459 63.9819 77.4221C62.8539 77.9246 61.7418 78.4692 60.5906 78.9123C59.2293 79.4348 58.1699 80.5112 56.5746 81.05C57.151 80.2539 57.3949 79.4711 56.2297 79.6345C55.5376 79.7342 54.7994 79.7527 54.1173 79.9972C50.9932 81.1068 48.1414 82.697 45.6177 84.8587C45.3696 85.0698 45.1687 85.6897 44.763 85.2015C44.447 84.8236 44.9193 84.4324 45.1991 84.2864C45.9626 83.8826 45.7162 83.4758 45.3532 82.9754C44.4321 81.7119 43.6158 81.6404 42.557 82.7958C41.5818 83.8593 40.6448 84.9642 39.6876 86.0429C38.1984 87.7244 38.4657 90.6654 40.7584 91.7809C42.4546 92.6043 44.2695 93.0388 46.0701 93.3067C49.5084 93.8183 52.9345 94.2871 56.1992 95.5562C56.9913 95.866 57.7885 96.1447 58.8241 95.8977L58.8227 95.8905ZM142.638 77.7296C143.677 78.9244 144.75 79.8715 145.428 81.0476C145.882 81.835 146.287 81.8074 146.938 81.6896C148.235 81.4546 149.386 80.7442 150.713 80.5788C151.378 80.4958 151.159 80.0383 150.937 79.6192C150.654 79.0878 149.866 78.8903 149.89 78.0079C150.684 78.1366 151.184 78.5119 151.586 79.095C151.903 79.5555 152.316 79.8126 152.887 79.4468C155.189 77.9883 157.173 76.1033 159.281 74.412C160.239 73.6419 160.952 72.5628 162.238 72.1532C162.528 72.0616 162.923 71.8478 162.903 71.4638C162.88 71.0276 162.391 71.1058 162.113 70.9388C161.835 70.7681 161.537 70.8988 161.245 70.8889C159.51 70.819 157.81 70.5085 155.859 70.1122C158.711 69.9832 161.264 70.3239 163.815 70.6878C164.179 70.7398 164.24 70.5508 164.395 70.3656C165.415 69.1275 165.779 67.5864 166.356 66.1463C166.548 65.6713 166.414 65.3024 165.913 65.127C164.804 64.7407 163.728 64.216 162.5 64.3844C161.683 64.4976 160.898 64.3182 160.099 64.1489C159.148 63.9461 158.194 63.8266 157.2 63.9975C155.231 64.343 153.263 64.6544 151.332 65.2145C150.539 65.4473 149.741 65.4511 150.521 66.5542C150.663 66.7559 150.781 67.0451 150.489 67.2272C150.158 67.4361 149.912 67.2249 149.746 66.9566C149.547 66.6382 149.59 66.1515 149.195 65.9814C147.525 65.2696 145.96 64.2544 144.066 64.1632C143.701 64.1452 143.417 64.1752 143.188 64.5219C141.829 66.573 140.35 68.5537 139.127 70.6832C138.579 71.6394 137.947 71.9681 136.977 72.0137C136.555 72.0334 136.125 72.0849 135.716 72.1886C131.981 73.1255 128.4 74.5669 124.582 75.2755C121.255 75.8942 118.014 76.9855 114.813 78.1217C113.817 78.4774 112.875 78.9845 111.61 79.5557C114.823 80.0329 117.325 78.4443 120.097 78.297C118.614 78.757 117.131 79.217 115.649 79.6769C116.514 79.5956 117.304 79.9359 118.172 79.7938C120.314 79.4442 122.301 78.564 124.413 78.1601C126.147 77.8309 127.97 77.7894 129.615 77.2181C131.619 76.5191 133.689 76.018 135.664 75.2306C135.874 75.1476 136.172 75.2089 136.405 75.2831C138.513 75.9608 140.699 76.3292 142.819 76.933C143.98 77.2637 145.202 77.0402 146.493 77.4167C145.217 78.1631 144.013 77.5774 142.639 77.7333L142.638 77.7296ZM145.638 60.4128C144.188 60.5084 142.795 60.5664 141.51 61.1904C138.13 62.8292 134.739 64.4548 131.347 66.0733C127.593 67.8614 124.405 70.569 120.743 72.516C118.532 73.6892 116.43 75.0741 114.275 76.3604C113.201 77.0029 112.121 77.6351 110.883 78.3628C112.242 78.9481 113.09 78.0756 114.046 77.788C117.941 76.6159 121.827 75.4568 125.828 74.6478C128.685 74.0696 131.429 72.9226 134.284 72.3183C136.319 71.8881 137.884 70.9487 139.12 69.3741C140.114 68.1034 141.029 66.7732 141.973 65.4597C142.235 65.0914 142.716 64.7248 142.47 64.2426C142.248 63.8047 141.778 64.2104 141.422 64.1831C141.056 64.1579 140.691 64.0458 140.723 63.6213C140.758 63.2077 141.199 63.2634 141.44 63.321C143.91 63.8891 144.349 61.5461 145.642 60.4121L145.638 60.4128ZM111.128 90.4676C111.416 91.0846 112.213 91.3256 111.748 91.9226C111.388 92.3857 110.984 91.8707 110.626 91.7195C109.902 91.4076 109.956 91.8525 109.979 92.3264C110.002 92.8451 109.721 93.5337 109.257 93.0758C108.074 91.9134 107.868 92.7376 107.542 93.6724C107.489 93.8259 107.225 93.9537 107.034 93.9991C106.763 94.0566 106.479 94.1243 106.489 94.4235C106.512 95.3943 106.504 96.3789 106.674 97.3282C106.777 97.9065 107.349 97.1452 107.639 97.4644C107.808 97.653 107.945 97.8706 108.108 98.0643C108.412 98.4183 108.204 99.0055 108.708 99.3236C109.319 98.5131 110.168 97.629 111.098 97.8702C112.753 98.2987 114.216 98.3813 115.643 97.3374C115.837 97.1935 116.149 97.173 116.369 97.3515C116.5 97.4611 116.537 97.6684 116.37 97.7956C115.762 98.2591 115.468 99.1309 114.428 99.0359C113.834 98.9806 113.145 99.0383 112.645 99.5367C112.434 99.7443 112.161 99.7758 111.953 99.5798C110.676 98.3644 111.014 99.8226 110.856 100.279C110.732 100.639 111.039 101.335 110.456 101.316C109.151 101.269 109.628 102.12 109.705 102.677C109.786 103.256 110.065 103.807 110.241 104.371C110.433 104.996 110.319 106.133 110.123 106.112C109.136 106.014 109.393 106.874 109.021 107.332C109.003 106.73 108.919 106.306 108.229 106.454C107.651 106.58 107.593 106.934 107.698 107.406C107.851 108.08 107.403 109.295 108.925 108.767C109.02 108.733 109.249 108.997 109.379 109.156C109.524 109.338 109.814 109.525 109.869 109.33C110.208 108.076 111.34 108.39 112.09 108.32C113.497 108.195 114.834 107.572 116.172 107.578C117.491 107.58 117.515 107.206 117.422 106.151C117.176 103.394 116.914 100.629 116.93 97.8653C116.939 96.0295 116.597 94.3236 116.031 92.6318C115.566 91.2365 114.407 90.54 113.166 89.8824C112.159 89.3477 111.925 90.5203 111.132 90.4705L111.128 90.4676ZM61.0354 74.6248C61.1264 74.8177 61.1472 74.9416 61.1986 74.954C62.5891 75.3183 63.9766 75.687 65.3714 76.0165C65.727 76.1004 66.0921 76.156 66.1277 76.5632C66.1982 77.3551 66.8267 77.5807 67.3667 77.8916C68.3743 78.4712 69.3651 79.0994 69.9932 80.082C70.8222 81.375 71.7117 81.9668 73.4197 81.673C75.7437 81.2759 78.1488 81.3635 80.5202 81.2244C85.8499 80.905 91.1293 79.8385 96.5022 80.1545C96.666 80.1635 96.9259 80.2399 97.0127 79.8423C96.3913 79.7095 95.7816 79.5405 95.1623 79.4563C92.512 79.1009 89.8288 78.9027 87.4715 77.4234C87.1269 77.2056 86.6692 77.1194 86.2534 77.0738C83.0467 76.7234 79.8956 76.008 76.7145 75.5019C73.7985 75.041 70.9169 74.3173 67.9635 74.1426C65.6577 74.0051 63.3537 74.161 61.0376 74.6169L61.0354 74.6248ZM75.0605 102.012C77.9825 100.89 80.7907 99.8394 83.4668 98.4836C87.0426 96.6705 90.0118 94.0401 92.9622 91.3908C94.4777 90.0318 95.4722 88.1924 97.034 86.8581C97.6172 86.362 98.1918 85.8601 98.8242 85.422C99.099 85.2319 99.385 84.8889 99.1457 84.556C98.9057 84.2195 98.6378 84.5777 98.3826 84.6962C96.7232 85.4435 95.0341 86.1364 93.3964 86.936C91.2953 87.963 89.0664 88.7442 87.0521 89.8859C84.7238 91.2103 82.3818 92.5224 79.9755 93.6816C78.59 94.3482 77.3193 94.8715 77.2108 96.6405C77.196 96.8694 76.9624 97.0777 76.8375 97.3021C76.1546 98.5298 75.4674 99.7546 74.8005 100.987C74.6624 101.24 74.5084 101.527 74.6449 101.835C74.7561 102.091 74.9873 102.023 75.0605 102.012ZM113.244 109.085C113.192 109.657 113.938 109.851 113.639 110.223C112.741 111.336 113.251 112.575 113.201 113.764C113.185 114.14 113.252 114.838 112.936 114.747C112.014 114.485 111.194 115.571 110.343 114.719C110.08 115.404 110.248 116.233 109.465 116.422C108.681 116.612 108.503 115.653 107.934 115.348C107.409 116.728 107.374 117.199 107.825 118.371C108.074 119.014 108.404 119.657 109.109 118.707C109.346 118.385 109.649 118.468 110.009 118.483C111.296 118.533 112.434 117.528 113.791 117.88C113.812 117.887 113.86 117.731 113.915 117.667C114.381 117.13 114.632 117.465 114.83 117.911C115.061 118.434 115.105 118.998 114.965 119.541C114.714 120.518 114.668 121.464 115.068 122.413C115.132 122.566 115.138 122.75 115.145 122.918C115.156 123.258 115.177 123.684 114.761 123.751C114.381 123.811 114.361 123.39 114.27 123.118C114.102 122.635 113.949 122.146 113.781 121.663C113.686 121.392 113.634 120.996 113.237 121.101C112.904 121.189 112.865 121.544 112.952 121.85C113.213 122.785 113.158 123.817 113.739 124.658C113.967 124.989 114.044 125.321 113.672 125.534C113.246 125.776 113.09 125.371 112.913 125.089C112.597 124.576 112.445 124 112.288 123.42C112.177 123.01 112.224 122.469 111.63 122.305C111.051 123.105 111.545 123.771 111.844 124.462C112.202 125.279 111.487 126.743 110.682 126.846C111.789 127.738 112.023 127.684 112.204 126.488C112.242 126.224 112.275 125.954 112.585 125.9C112.96 125.837 113.051 126.18 113.241 126.399C113.486 126.685 113.27 127.399 114.095 127.175C114.892 126.956 115.754 126.823 116.574 126.875C118.554 127.002 118.643 126.939 118.601 124.959C118.57 123.515 118.67 122.064 118.666 120.618C118.651 116.878 118.594 113.138 117.876 109.443C117.736 108.74 117.491 108.567 116.75 108.457C115.466 108.268 114.501 109.231 113.247 109.081L113.244 109.085ZM104.448 85.3493C104.654 84.6831 104.82 83.9988 104.314 83.4402C103.788 82.8591 104.197 82.5105 104.618 82.2047C104.849 82.0384 105.195 82.0375 105.43 81.8741C105.751 81.6485 105.97 81.0476 106.448 81.4989C106.833 81.8632 107.486 82.2496 106.919 82.9797C106.727 83.2286 106.814 83.4939 107.139 83.5574C108.211 83.7626 108.836 82.9044 109.6 82.4288C110.166 82.0754 109.444 81.8309 109.346 81.5264C109.269 81.2894 109.257 81.0771 109.524 81.0203C110.481 80.8116 110.226 79.8905 110.009 79.6098C109.457 78.8982 109.627 77.8929 108.834 77.2781C108.331 76.8883 108.46 76.0945 108.359 75.4706C108.326 75.2662 108.361 75.0257 108.64 74.9892C108.904 74.9519 108.974 75.194 109.1 75.3536C109.39 75.7141 109.133 76.4092 109.812 76.587C109.981 75.1636 109.718 74.4062 108.783 73.7745C107.904 73.1805 107.055 73.5524 106.149 73.8263C104.377 74.3626 102.787 75.6875 100.719 75.0809C100.188 74.9265 99.5535 75.0146 99.0825 75.545C98.1986 76.5376 98.0381 78.7086 98.9069 80.0502C98.9573 78.8049 98.9149 77.6421 99.8891 76.801C100.114 76.6057 100.238 76.2987 100.602 76.4449C100.994 76.6005 101.096 76.9607 100.981 77.2923C100.564 78.4748 101.084 79.6333 101.036 80.8141C100.999 81.7479 101.471 82.7049 101.726 83.6485C101.865 84.1559 102.333 84.2587 102.734 84.2883C103.32 84.3341 103.086 83.8571 103.078 83.5535C103.071 83.3101 103.148 83.1102 103.391 83.0809C103.7 83.0422 103.831 83.2685 103.907 83.5359C104.084 84.1411 104.267 84.7412 104.447 85.3457L104.448 85.3493ZM73.8948 95.3025C73.0083 95.5801 72.2227 95.7585 71.4062 95.8C70.9961 95.8212 70.612 95.9162 70.6409 96.4415C70.7108 97.6479 69.9285 98.5262 69.3939 99.4571C67.5874 102.595 67.5527 102.572 71.2821 102.69C72.1159 102.717 73.1186 102.703 73.5079 102.008C74.6833 99.9026 75.9513 97.8282 76.7829 95.5466C77.0178 94.9087 76.6762 94.7053 76.0297 94.8638C75.2868 95.0488 74.5311 95.1687 73.8933 95.2952L73.8948 95.3025ZM139.395 88.2781C139.789 88.1773 140.173 88.3083 140.269 87.9201C140.353 87.587 140.09 87.3794 139.854 87.1965C138.507 86.1606 137.217 85.0647 136.114 83.7583C135.937 83.5487 135.615 83.3902 135.336 83.3514C133.573 83.1024 131.807 82.8766 130.039 82.6776C129.361 82.6013 129.098 82.8117 129.455 83.5505C130.342 85.397 131.804 86.7489 133.245 88.1276C133.439 88.3112 133.659 88.4108 133.928 88.4025C135.791 88.3567 137.655 88.3183 139.395 88.2781ZM132.183 76.9872C131.331 77.2316 130.519 77.4868 129.696 77.6841C129.243 77.7928 128.953 77.9633 129.197 78.4534C129.928 79.9129 130.848 81.2104 132.453 81.8221C134.148 82.4687 135.929 82.5068 137.708 82.474C138.057 82.4688 138.62 82.6471 138.729 82.2263C138.831 81.8331 138.665 81.3764 138.361 80.9623C137.492 79.7714 136.378 78.825 135.157 78.1219C134.256 77.604 133.517 76.3271 132.18 76.9916L132.183 76.9872ZM111.696 82.382C111.149 82.3587 110.935 82.646 110.846 83.1457C110.748 83.6962 111.011 83.9378 111.492 84.0494C111.615 84.0778 111.738 84.1287 111.86 84.1572C114.053 84.656 116.231 85.2859 118.452 85.6059C120.317 85.876 121.999 86.8341 123.899 86.8826C124.179 86.891 124.544 87.135 124.687 86.7527C124.808 86.4348 124.506 86.2011 124.249 86.0486C123.126 85.3789 122.265 84.4575 121.59 83.3524C121.054 82.4721 120.304 82.2406 119.306 82.4311C118.432 82.6008 117.518 82.7218 116.641 82.5155C114.99 82.1276 113.331 82.8372 111.696 82.382ZM74.1755 94.0793C75.5021 94.0458 76.717 94.057 77.9629 93.7119C80.6561 92.9741 81.9181 91.0779 82.9228 88.7958C83.1852 88.2014 83.1003 87.7927 82.2939 87.8661C81.4469 87.9438 80.5941 87.9925 79.7428 88.0296C78.2568 88.0948 76.8042 88.1005 76.7221 90.2108C76.7002 90.7838 76.2175 91.3692 75.8581 91.8924C75.3383 92.6509 74.7395 93.3535 74.1719 94.08L74.1755 94.0793ZM143.159 82.2736C145.02 81.9496 145.184 81.7738 144.553 80.9086C142.26 77.7595 139.156 76.2399 135.269 76.3109C134.983 76.3148 134.61 76.2346 134.525 76.6242C134.44 77.0138 134.871 77.0377 135.07 77.2278C136.31 78.4279 137.856 79.2699 138.806 80.8326C139.125 81.3568 139.496 82.2623 140.431 82.2651C141.402 82.2644 142.375 82.5347 143.153 82.2786L143.159 82.2736ZM122.482 82.3996C122.177 82.4187 122.114 82.6345 122.42 83.2631C123.194 84.8683 124.998 85.5875 125.715 87.2302C125.782 87.3788 126.171 87.4033 126.415 87.4566C127.947 87.7929 129.555 87.6019 131.061 88.1315C131.252 88.1992 131.504 88.2394 131.622 87.9976C131.737 87.7602 131.531 87.6164 131.392 87.4634C130.535 86.5224 129.466 85.6348 129.115 84.4353C128.517 82.3885 127.017 82.3058 125.391 82.2932C124.543 82.2883 123.696 82.3508 122.482 82.3996ZM103.622 73.424C103.44 72.1683 103.254 70.9096 103.085 69.6552C103.04 69.314 102.711 68.7955 103.235 68.6876C103.732 68.5891 103.884 69.1501 103.969 69.5588C104.055 69.9711 104.058 70.4036 104.104 70.8275C104.182 71.5579 104.36 72.2493 104.789 73.0418C104.883 72.7594 104.952 72.6516 104.954 72.5458C104.972 71.0433 104.611 69.567 105.066 68.0267C105.454 66.7182 104.291 65.0096 103.237 65.0529C102.27 65.0942 101.285 65.2369 100.401 65.7173C99.2623 66.335 98.714 68.6018 99.4652 69.6542C99.5281 69.7434 99.6851 69.8704 99.7329 69.8458C100.732 69.3387 100.534 70.2745 100.642 70.6673C100.867 71.4812 100.875 72.3571 101.322 73.1083C101.476 73.3715 101.762 73.6161 102.049 73.51C102.439 73.365 102.221 72.9901 102.144 72.7343C101.858 71.8044 101.322 70.9429 101.361 69.9258C101.371 69.6563 101.2 69.2308 101.593 69.1604C102.058 69.0756 102.095 69.5277 102.137 69.8509C102.309 71.1574 102.828 72.3311 103.622 73.4276L103.622 73.424ZM67.6723 95.7539C69.6362 95.3642 71.311 95.0356 72.9865 94.6918C73.135 94.6623 73.386 94.4845 73.3723 94.4345C73.0971 93.3894 74.0545 93.1467 74.514 92.5584C75.2609 91.5967 76.0513 90.6452 76.3198 89.3792C76.5051 88.5101 76.2425 88.2685 75.4286 88.4752C74.2349 88.7799 73.0326 89.0599 71.788 89.0319C71.1903 89.0187 71.1203 89.3301 71.1435 89.8452C71.2334 91.7029 70.2939 93.0795 68.9605 94.2366C68.555 94.5845 68.0765 94.8489 67.6687 95.7546L67.6723 95.7539ZM60.8007 97.1852C61.5604 98.3375 62.3916 99.1857 63.3069 99.9268C64.3742 100.788 65.7047 101.515 66.9863 101.464C68.1934 101.416 68.0967 99.7333 68.7145 98.8612C68.761 98.7918 68.7894 98.707 68.8271 98.6318C69.1687 97.9614 69.9776 97.1795 69.5359 96.5855C69.0782 95.9683 68.0472 96.4666 67.2799 96.5473C65.1888 96.7702 63.1233 97.2365 60.8007 97.1852ZM53.714 75.991C53.3934 76.2354 52.7328 76.1707 52.7261 76.7821C52.7219 77.1219 53.0366 77.436 53.4083 77.4301C54.5566 77.4094 55.3655 78.1263 56.3015 78.611C57.0145 78.9779 57.8333 79.8775 58.5694 79.3925C60.0741 78.3971 61.6799 77.683 63.3139 76.9784C63.7301 76.7979 63.8863 76.4468 63.3272 76.3243C61.4761 75.9158 59.672 75.0799 57.7373 75.3132C56.4055 75.472 55.1209 75.983 53.7154 75.9983L53.714 75.991ZM149.362 64.8145C151.384 64.4133 153.394 63.9316 155.43 63.6405C156.672 63.462 157.206 62.7608 157.424 61.6933C157.578 60.9321 157.963 60.0046 157.132 59.4651C156.187 58.8544 154.993 58.8352 154.116 59.4874C152.21 60.9088 150.812 62.8584 149.362 64.8145ZM152.807 59.0167C151.47 59.1537 150.4 59.3209 149.324 59.365C147.893 59.4229 146.684 59.7609 145.897 61.1108C145.479 61.8303 144.244 62.3276 144.403 63.0342C144.587 63.8488 145.915 63.6117 146.649 64.0461C147.497 64.5443 148.361 64.4935 148.963 63.8054C150.25 62.341 151.414 60.7656 152.803 59.0174L152.807 59.0167ZM142.546 87.8373C143.367 87.4372 144.39 87.012 145.28 86.3382C145.713 86.0114 145.577 85.7069 145.214 85.4136C144.553 84.8744 143.908 84.3018 143.612 83.4754C143.429 82.9695 143.088 83.1653 142.78 83.1888C141.3 83.3017 139.819 83.4335 138.339 83.5465C138.09 83.5657 137.784 83.4457 137.637 83.7084C137.45 84.0392 137.752 84.2541 137.938 84.4696C139.037 85.7166 140.456 86.6026 141.653 87.7396C141.853 87.9297 142.093 87.9837 142.542 87.838L142.546 87.8373ZM93.9759 85.966C93.9334 85.8653 93.8944 85.7638 93.8518 85.663C93.733 85.6527 93.6084 85.6134 93.5012 85.6422C90.7652 86.3546 88.1214 87.4743 85.2048 87.409C84.7093 87.3981 83.8986 87.4121 83.7752 88.0241C83.5117 89.3531 82.9093 90.5121 82.2345 91.7043C85.9821 89.3525 90.0379 87.7756 93.9723 85.9668L93.9759 85.966ZM125.336 78.4664L125.328 78.4266C124.661 78.5589 123.994 78.6876 123.328 78.8235C123.038 78.881 122.576 79.0216 122.804 79.3342C123.283 80 123.478 81.1362 124.385 81.1898C126.165 81.296 127.92 81.603 129.695 81.6839C129.912 81.6936 130.134 81.657 130.201 81.4028C130.275 81.132 130.042 81.0389 129.875 80.9213C129.314 80.5205 128.698 80.0552 128.545 79.4189C128.177 77.8839 127.241 77.9339 126.084 78.3104C125.844 78.3883 125.585 78.4132 125.335 78.4628L125.336 78.4664ZM162.614 62.3394C162.358 60.7104 161.058 60.1172 159.769 59.5821C159.002 59.2636 158.39 59.3887 158.379 60.4906C158.372 61.1586 158.16 61.8335 157.977 62.4874C157.812 63.0624 157.99 63.3097 158.563 63.2787C159.51 63.2301 160.416 63.4648 161.335 63.64C162.663 63.8963 162.885 63.63 162.614 62.3394ZM111.478 80.3162C111.181 80.3186 111.088 80.454 111.043 80.6285C110.983 80.8588 111.056 81.0929 111.267 81.1678C111.583 81.2784 111.924 81.3086 112.255 81.3671C115.667 81.9706 119.109 81.2122 122.527 81.6187C122.816 81.6518 123.04 81.6072 123.026 81.2486C123 80.6248 121.495 79.5524 120.886 79.6885C118.406 80.2484 115.921 80.7452 113.352 80.6298C112.68 80.6012 111.986 80.769 111.478 80.3162ZM50.6155 80.7411C49.986 80.2257 49.4644 79.7229 48.8673 79.3329C48.4345 79.0497 47.8638 78.9634 47.4112 79.2829C46.7179 79.7745 46.039 80.3009 45.4433 80.905C44.6466 81.7108 45.6631 82.1456 45.9317 82.7212C46.1672 83.2244 46.516 83.4451 47.0217 82.9757C48.0874 81.9884 49.4264 81.4101 50.6119 80.7418L50.6155 80.7411ZM50.9541 77.2279C50.442 77.627 49.2627 77.5108 49.1209 78.3335C49.0267 78.8833 50.0586 79.1493 50.6145 79.5022C50.7571 79.5944 50.9678 79.6505 51.0306 79.7774C51.3766 80.4959 51.8536 80.2995 52.3995 80.0519C53.094 79.737 53.8109 79.478 54.5191 79.1944C54.7076 79.1193 54.9656 79.0907 54.9819 78.8314C55.0027 78.4996 54.7116 78.418 54.474 78.3786C53.5317 78.2228 52.7202 77.7775 51.9291 77.2829C51.6621 77.1137 51.389 77.0474 50.957 77.2235L50.9541 77.2279ZM96.1516 71.0235C97.0483 71.1393 97.1011 72.1457 97.8375 72.3837C97.8889 71.447 97.2988 70.7883 96.9515 69.9684C97.3492 69.9987 97.6245 70.0194 98.0946 70.0542C97.165 69.1841 96.379 68.6584 95.3362 69.306C94.5683 69.7822 94.0464 70.4168 94.1891 71.4016C94.2322 71.6943 94.2582 72.1675 94.5437 72.1447C95.5248 72.0592 96.0175 72.967 96.8705 73.2798C96.9486 72.3831 96.1387 71.8696 96.1465 71.017L96.1516 71.0235ZM163.552 62.6088C163.189 64.1572 164.852 63.541 165.461 64.1244C165.698 64.3486 166.63 64.5478 166.893 63.9947C167.143 63.4706 166.833 62.8014 166.294 62.4565C165.621 62.0251 164.887 61.6886 164.18 61.313C163.962 61.1982 163.734 60.9798 163.488 61.1641C163.239 61.3529 163.46 61.6292 163.465 61.8654C163.469 62.0755 163.511 62.2857 163.547 62.6023L163.552 62.6088ZM146.487 82.5133C145.955 82.619 145.543 82.7082 145.132 82.7822C144.877 82.8253 144.524 82.8878 144.613 83.1828C144.866 84.0439 145.6 84.5311 146.309 84.9552C146.916 85.3206 147.274 84.6923 147.471 84.3028C147.774 83.7041 148.509 83.0612 147.979 82.3642C147.53 81.7716 146.934 82.6393 146.492 82.5162L146.487 82.5133ZM105.224 100.154C105.479 98.3863 106.427 96.6917 105.643 94.8287C105.501 94.4916 105.408 94.1748 104.98 94.1995C104.466 94.2299 104.561 94.6517 104.541 94.9683C104.424 96.7315 104.81 98.4324 105.227 100.15L105.224 100.154ZM107.458 71.1977C108.227 70.4201 108.436 68.5744 107.98 67.9456C107.847 67.765 107.678 67.6365 107.45 67.6818C107.116 67.748 107.122 68.0255 107.146 68.2769C107.236 69.1855 107.34 70.0913 107.458 71.1977ZM106.963 110C107.337 108.604 106.773 107.428 106.251 106.244C106.163 106.046 106.045 105.833 105.803 105.903C105.675 105.94 105.561 106.124 105.491 106.266C105.296 106.67 105.206 107.182 105.564 107.45C106.425 108.104 106.657 109.048 106.962 109.997L106.963 110ZM87.4618 101.137C88.6624 100.601 89.5627 99.7294 90.4204 98.8135C90.6193 98.6008 90.8132 98.3063 90.4904 98.0464C90.2256 97.8316 90.0332 98.0769 89.8482 98.2454C88.9081 99.0873 88.1394 100.072 87.4582 101.137L87.4618 101.137ZM85.9506 100.657C86.0555 100.749 86.1611 100.845 86.266 100.937C87.43 99.6856 88.5896 98.4311 89.7535 97.1796C88.2387 98.1053 86.7977 99.0993 85.9506 100.657ZM102.754 96.9724C102.811 97.4847 102.676 98.0575 103.317 98.0056C103.974 97.9544 103.726 97.4274 103.691 97.0238C103.638 96.4354 103.612 95.8457 103.589 95.2588C103.582 95.0907 103.621 94.8872 103.431 94.8384C103.213 94.7837 102.988 94.8848 102.92 95.1093C102.72 95.7552 102.576 96.4128 102.755 96.976L102.754 96.9724ZM122.7 87.9567C121.484 87.2789 120.211 86.7858 118.774 86.9843C119.994 87.6462 121.262 88.0951 122.7 87.9567ZM113.875 88.883C113.108 87.7886 112.105 87.8407 111.292 87.52C111.194 87.4829 110.951 87.6064 110.895 87.7194C110.768 87.9706 110.968 88.089 111.183 88.148C111.976 88.3672 112.772 88.5821 113.875 88.883ZM110.124 129.119C110.08 128.216 109.509 127.749 109.239 127.148C109.125 126.895 108.868 126.754 108.609 126.949C108.406 127.102 108.473 127.345 108.619 127.515C109.047 128.018 109.248 128.728 110.124 129.119ZM102.081 98.3037C101.911 97.6557 102.141 97.0338 102.042 96.4171C102.009 96.2127 101.966 95.9801 101.705 95.9565C101.472 95.9388 101.255 96.095 101.246 96.3C101.216 97.0592 101.017 97.8935 102.08 98.3L102.081 98.3037ZM119.411 88.8088C120.345 89.1507 121.152 89.9886 122.277 89.5658C121.375 89.1008 120.467 88.6597 119.411 88.8088Z" fill="black"/>
</g>
</svg>
