<svg width="802" height="610" viewBox="0 0 802 610" fill="none" xmlns="http://www.w3.org/2000/svg">
<path opacity="0.6" d="M455.881 306.45L544.529 282.514C544.708 282.466 544.898 282.52 545.025 282.655L603.757 345.329C603.883 345.464 603.925 345.658 603.865 345.833L574.228 432.742C574.174 432.899 574.046 433.02 573.885 433.063L485.236 456.999C485.058 457.047 484.867 456.993 484.741 456.858L426.009 394.183C425.883 394.049 425.841 393.855 425.901 393.68L455.538 306.771C455.591 306.614 455.72 306.493 455.881 306.45Z" stroke="#F1F2F5" stroke-width="5"/>
<path opacity="0.6" d="M596.789 175.123L685.438 151.187C685.616 151.139 685.807 151.193 685.933 151.328L744.665 214.003C744.791 214.138 744.833 214.331 744.773 214.506L715.136 301.415C715.083 301.573 714.954 301.693 714.793 301.737L626.145 325.673C625.966 325.721 625.776 325.667 625.649 325.532L566.917 262.857C566.791 262.722 566.749 262.529 566.809 262.354L596.446 175.445C596.5 175.287 596.628 175.167 596.789 175.123Z" stroke="#F1F2F5" stroke-width="5"/>
<path opacity="0.6" d="M146.784 390.889L236.098 369.569C236.278 369.526 236.466 369.586 236.589 369.724L293.454 434.098C293.576 434.237 293.612 434.431 293.547 434.604L261.369 520.605C261.31 520.761 261.178 520.877 261.016 520.916L171.702 542.236C171.523 542.279 171.334 542.22 171.212 542.081L114.347 477.707C114.224 477.569 114.188 477.374 114.253 477.201L146.432 391.201C146.49 391.045 146.622 390.928 146.784 390.889Z" stroke="#F1F2F5" stroke-width="5"/>
<path opacity="0.6" d="M291.491 263.761L380.805 242.441C380.985 242.398 381.174 242.457 381.296 242.596L438.161 306.97C438.284 307.108 438.319 307.303 438.255 307.476L406.076 393.477C406.018 393.632 405.886 393.749 405.724 393.788L316.41 415.108C316.23 415.151 316.042 415.091 315.919 414.953L259.054 350.579C258.932 350.44 258.896 350.246 258.961 350.073L291.139 264.072C291.198 263.916 291.33 263.8 291.491 263.761Z" stroke="#F1F2F5" stroke-width="5"/>
<path opacity="0.6" d="M436.198 136.632L525.512 115.312C525.692 115.269 525.881 115.329 526.003 115.467L582.868 179.841C582.99 179.98 583.026 180.174 582.962 180.347L550.783 266.348C550.725 266.504 550.593 266.62 550.431 266.659L461.117 287.979C460.937 288.022 460.748 287.963 460.626 287.824L403.761 223.45C403.639 223.312 403.603 223.117 403.668 222.944L435.846 136.943C435.905 136.788 436.037 136.671 436.198 136.632Z" stroke="#F1F2F5" stroke-width="5"/>
<g opacity="0.05">
<path fill-rule="evenodd" clip-rule="evenodd" d="M526.683 22.3565C527.231 22.4873 527.554 22.9231 527.791 23.3549C529.15 25.8093 530.34 28.3631 531.843 30.7233C533.27 32.9687 532.929 35.5467 533.602 37.923C534.358 40.6024 535.929 42.5852 538.123 44.1725C538.451 44.41 538.756 44.3569 539.034 44.0646C539.417 43.6554 539.001 43.49 538.8 43.2445C537.836 42.0743 537.297 40.8512 537.753 39.2451C538.186 37.7185 539.284 36.7939 540.812 36.4476C541.97 36.1848 542.728 36.8734 543.674 37.0823C545.117 37.4011 545.761 36.9212 545.722 35.4198C545.676 33.5699 545.312 31.8327 544.15 30.2947C543.284 29.1514 542.912 27.796 542.997 26.3345C543.022 25.8947 543.118 25.4938 543.35 25.126C543.47 24.9379 543.635 24.7675 543.864 24.8211C544.111 24.8794 544.177 25.1413 544.098 25.3372C543.322 27.2725 544.278 28.8129 545.25 30.3283C546.123 31.6847 546.72 33.0954 546.593 34.7506C546.575 35.0168 546.545 35.417 546.93 35.4853C547.217 35.5382 547.332 35.2246 547.469 35.0198C547.711 34.6569 547.971 34.1962 548.45 34.6137C548.827 34.9447 548.51 35.2425 548.23 35.5579C547.941 35.8818 547.543 36.4398 548.175 36.7184C548.751 36.9695 549.438 37.6522 550.106 36.8185C550.263 36.6234 550.331 36.3566 550.46 36.1404C550.678 35.786 551.011 35.5046 551.407 35.7297C551.853 35.979 551.82 36.4354 551.592 36.8543C551.449 37.1137 551.251 37.3456 551.108 37.605C550.838 38.1021 551.225 38.3967 551.488 38.7175C551.793 39.0957 552.115 38.9234 552.363 38.6744C553.892 37.1336 555.663 36.3186 557.898 36.2335C558.814 36.1982 559.818 35.5936 560.615 34.917C560.825 34.7395 561.037 34.362 561.322 34.7635C561.557 35.0912 561.449 35.4576 561.071 35.6106C559.51 36.2365 558.181 37.476 556.355 37.3978C554.403 37.3161 553.45 38.9478 552.149 39.9424C551.766 40.2326 551.722 41.041 552.056 41.6221C552.267 41.9914 552.468 42.3807 552.748 42.693C554.729 44.9288 553.122 47.2321 551.092 48.0451C550.303 48.3598 550.054 48.5758 550.458 49.3345C550.74 49.8616 550.124 50.6633 550.739 50.9867C551.396 51.3344 552.199 51.4656 552.95 51.5512C556.95 52.0158 560.625 51.0287 564.038 48.9574C564.218 48.8479 564.425 48.7431 564.552 48.5831C566.342 46.3354 568.684 46.9595 570.976 47.3298C573.12 47.6769 575.313 47.9376 577.435 47.9166C578.673 47.9024 580.407 47.5207 581.321 46.0629C581.665 45.5154 582.074 45.1803 582.593 46.1227C583.422 47.6216 583.504 47.5628 581.888 48.3958C580.358 49.1849 578.831 49.5643 577.111 48.9297C575.745 48.4266 574.258 48.5379 572.821 48.4189C570.98 48.2681 569.151 47.7984 567.281 48.2246C566.888 48.3134 566.539 48.3984 566.261 48.6741C562.607 52.2996 557.979 53.2382 553.087 53.4496C553.02 53.4537 552.951 53.5354 552.65 53.7421C554.103 53.9881 555.349 54.3142 556.611 54.3807C558.09 54.4546 559.511 54.6151 560.966 54.9767C562.508 55.3605 564.177 55.0787 565.795 55.2237C569.838 55.5821 573.835 56.2137 577.826 56.9444C578.998 57.1606 580.182 57.3172 581.348 57.5467C583.15 57.9044 584.92 58.3698 586.48 59.3945C588.074 60.4484 589.793 60.2321 591.525 59.9314C591.848 59.8748 592.211 59.6856 592.469 60.0329C592.546 60.1361 592.528 60.3775 592.46 60.5006C592.241 60.8831 591.876 60.7138 591.544 60.7044C591.167 60.6938 590.599 60.3071 590.474 60.9446C590.376 61.4513 590.973 61.5568 591.334 61.7443C594.145 63.2123 596.731 65.0396 598.804 67.4016C600.59 69.4397 602.049 71.7872 603.105 74.3244C603.616 75.5543 602.812 76.7448 601.501 77.8701C598.151 80.7436 594.233 80.9802 590.123 80.791C588.216 80.7022 586.295 80.8779 584.383 80.9758C582.033 81.0953 579.714 81.1186 577.546 79.9671C576.871 79.6064 576.302 79.5023 575.915 80.5426C575.543 81.5365 572.57 82.4495 571.511 82.2965C570.136 82.1007 568.771 81.6719 567.353 81.9112C567.144 81.945 566.909 81.9874 566.765 81.7858C565.655 80.2406 563.647 79.9183 562.399 78.5564C562.289 78.437 562.074 78.271 561.974 78.3085C560.284 78.9292 560.294 77.3695 559.6 76.5927C558.088 74.9099 556.485 73.2976 554.626 71.799C554.299 72.7857 554.353 73.5187 554.806 74.3379C555.637 75.8467 556.982 76.9597 557.791 78.482C558.111 79.0896 558.275 79.666 558.122 80.3104C557.629 82.3829 558.635 84.0054 559.709 85.5907C559.956 85.953 560.376 86.272 559.989 86.6713C559.482 87.1926 559.092 86.6254 558.86 86.2993C558.046 85.1521 557.602 83.8156 557.092 82.5163C556.959 82.1808 557.036 81.4298 556.454 81.6397C555.904 81.841 556.245 82.45 556.392 82.8746C556.835 84.1615 557.292 85.435 558.177 86.5136C558.492 86.8966 558.837 87.4792 558.207 87.8218C557.583 88.1594 557.387 87.5553 557.129 87.0973C556.202 85.464 555.345 83.8035 555.043 81.9318C554.92 81.1699 554.107 81.0256 553.889 80.316C553.289 78.3816 552.19 76.5868 552.352 74.452C552.396 73.8782 551.913 73.816 551.551 73.607C550.476 72.9948 549.446 72.5886 549.296 70.8936C549.182 69.6145 548.197 68.2611 547.07 67.2827C546.988 67.3497 546.862 67.4073 546.869 67.4436C547.252 69.5722 546.316 71.43 545.668 73.3407C545.134 74.9048 545.03 76.3946 546.068 77.8349C546.377 78.2643 546.88 79.0961 545.553 78.7346C545.165 78.6284 545.173 78.9323 545.117 79.1758C544.894 80.1845 545.229 81.0084 545.898 81.7525C546.316 82.2185 546.61 82.7224 545.562 82.5956C544.775 82.5006 544.884 82.9355 545.107 83.3476C545.427 83.9305 545.681 84.5835 546.396 84.8611C546.645 84.9574 546.999 85.1747 546.843 85.5218C546.653 85.9386 546.248 85.783 545.949 85.646C545.539 85.4591 545.158 85.2041 544.675 84.9287C544.469 86.1305 545.485 86.4064 545.942 87.0389C546.295 87.5305 547.428 87.7851 547.034 88.358C546.622 88.9624 545.953 88.149 545.449 87.8177C545.266 87.6959 545.076 87.5544 544.869 87.6592C544.599 87.7994 544.619 88.0883 544.652 88.3423C544.722 88.8735 545.115 89.1218 545.557 89.3282C545.956 89.5137 546.52 89.4923 546.578 90.1938C545.922 90.3021 545.334 90.2097 544.809 89.7944C544.355 89.4345 543.733 89.0666 543.314 89.4299C542.897 89.7899 543.52 90.3264 543.646 90.7859C543.87 91.6011 544.221 92.3835 544.506 93.1832C544.581 93.3839 544.643 93.636 544.423 93.7591C544.131 93.9293 543.938 93.7085 543.825 93.4686C543.471 92.7424 543.146 92.001 542.792 91.2748C542.668 91.0218 542.613 90.6375 542.227 90.6881C541.889 90.7333 541.797 91.0912 541.701 91.3567C541.374 92.2575 541.931 93.0211 542.205 93.7944C542.57 94.8261 543.102 95.8031 543.576 96.7972C543.687 97.0322 544.152 97.2168 543.721 97.496C543.409 97.6979 543.163 97.3934 542.983 97.1625C542.776 96.8973 542.607 96.6018 542.44 96.3113C542.004 95.5612 541.577 94.8078 541.048 94.1034C541.186 95.5789 541.674 96.9495 542.105 98.3373C541.971 98.367 541.853 98.4245 541.826 98.3951C540.765 97.3086 540.953 97.4287 540.108 98.727C538.504 101.201 539.564 103.087 541.076 104.988C541.399 105.395 541.193 106.97 540.746 107.213C540.061 107.583 539.675 107.018 539.402 106.581C538.094 104.48 536.667 102.304 537.267 99.7162C537.588 98.328 537.498 96.9825 537.631 95.6262C537.774 94.1641 538.509 92.9892 539.322 91.8317C540.181 90.6141 541.017 89.3819 541.851 88.1481C541.938 88.0183 541.994 87.8276 541.974 87.6742C541.42 83.4295 542.694 79.4118 543.491 75.335C543.819 73.6626 544.306 72.0346 545.16 70.5313C545.543 69.8511 545.46 69.0838 545.311 68.3338C545.166 68.3536 545.03 68.3453 545.021 68.3735C543.94 71.9512 541.475 74.7088 539.478 77.7387C537.977 80.016 536.642 82.3857 535.271 84.7425C533.262 88.1937 531.115 91.5656 528.543 94.645C527.868 95.4507 527.143 96.2157 526.67 97.1976C526.055 98.4636 524.463 99.07 523.007 98.8636C522.262 98.7565 521.488 98.8117 520.724 98.794C517.264 98.7147 516.331 97.2798 515.726 93.4091C515.245 90.3416 516.594 87.572 517.517 84.7511C518.085 83.0148 518.658 81.285 519.081 79.4942C519.456 77.8939 520.077 76.3437 520.659 74.7988C521.687 72.0825 522.334 69.2466 523.315 66.5241C524.004 64.6163 524.923 62.7669 525.96 61.0202C526.765 59.6661 527.944 58.5754 529.612 58.2027C529.948 58.1278 530.364 58.0586 530.622 57.5683C529.084 57.7082 527.846 58.1949 526.652 59.1222C523.457 61.5991 521.613 65.1757 519.025 68.1363C516.952 70.5094 514.791 72.7861 511.586 73.6522C510.928 73.8299 510.58 74.3956 510.227 74.9267C509.418 76.1437 508.894 77.5028 508.354 78.8423C507.39 81.2407 505.945 83.1672 503.505 84.1914C501.565 85.0067 499.808 86.1123 498.174 87.4214C497.937 87.6141 497.71 87.8447 497.391 87.6485C497.144 87.496 497.172 87.2181 497.173 86.9554C497.18 85.8748 497.601 85.077 498.64 84.6371C500.575 83.8153 502.5 82.9721 504.415 82.1406C504.332 81.8045 504.135 81.7869 503.91 81.7845C502.907 81.7696 502.371 80.8109 502.892 79.959C502.971 79.8292 503.187 79.8069 503.132 79.5664C502.895 78.5398 502.902 78.5513 503.898 78.2342C504.953 77.8966 506.017 77.6333 507.121 77.4918C507.462 77.4482 508.014 77.3097 507.828 76.8046C507.689 76.4329 507.242 76.6759 506.923 76.7588C505.898 77.025 504.873 77.2912 503.845 77.5393C503.404 77.6451 502.874 77.5933 502.777 77.1269C502.687 76.7099 503.234 76.7251 503.544 76.6456C504.653 76.3586 505.772 76.1095 506.875 75.8077C507.35 75.6767 507.874 75.5865 508.286 74.8912C506.871 75.1816 505.577 75.0825 504.334 75.4932C503.962 75.6165 503.504 75.7555 503.368 75.2499C503.233 74.7492 503.668 74.6236 504.072 74.5611C505.162 74.3966 506.256 74.2503 507.341 74.0627C507.794 73.9831 508.382 73.8905 508.442 73.3611C508.49 72.9409 507.917 72.893 507.606 72.7049C507.279 72.5087 506.834 72.3337 506.989 71.871C507.166 71.3452 507.62 71.6193 507.976 71.6813C508.506 71.7743 508.948 71.8535 508.684 71.0189C508.466 70.3341 509.029 70.3855 509.452 70.3938C510.165 70.4038 510.9 70.6168 511.564 70.1631C511.779 70.0169 512.028 69.867 512.02 69.5879C512.008 69.2576 511.692 69.2397 511.449 69.1995C510.993 69.1304 510.526 69.0102 510.686 68.4351C510.826 67.9279 511.304 68.119 511.67 68.1776C512.363 68.2886 513.053 68.4922 513.716 68.2599C513.785 67.813 513.549 67.8009 513.344 67.7586C513.085 67.7071 512.825 67.6588 512.863 67.3032C512.899 66.9145 513.165 66.8421 513.493 66.8333C514.172 66.814 514.854 66.788 515.531 66.7555C515.906 66.7363 516.208 66.5627 516.308 66.1964C516.427 65.7572 516.014 65.7702 515.763 65.6525C515.325 65.4477 515.157 65.0911 515.184 64.4596C517.378 65.591 518.797 64.5306 520.089 62.8669C521 61.695 521.966 60.5753 522.748 59.3041C523.358 58.3108 524.491 58.278 525.459 58.1364C526.541 57.9802 527.402 57.4086 528.405 57.1443C528.379 57.0455 528.355 56.9433 528.329 56.8445C527.407 57.0004 526.461 57.0708 525.569 57.3272C522.784 58.1307 519.98 58.822 517.077 58.9561C515.669 59.0235 514.178 59.2438 512.985 58.0729C512.631 57.7283 512.153 58.0427 511.785 58.2171C510.632 58.7657 509.504 59.3635 508.362 59.9383C507.401 60.4202 506.413 60.8148 505.308 60.7465C504.865 60.7202 504.213 60.8797 504.123 60.2859C504.002 59.5124 504.774 59.7399 505.257 59.617C505.098 59.1414 504.748 59.0413 504.378 58.9844C503.947 58.9233 503.603 58.7356 503.685 58.2538C503.797 57.5934 504.482 57.5525 504.921 57.2566C505.293 57.0062 505.435 57.2887 505.487 57.6384C505.563 58.1514 505.938 58.0628 506.273 57.9829C507.225 57.7556 508.235 57.6466 509.111 57.2466C513.026 55.4603 517.182 55.2822 521.367 55.2986C524.34 55.3091 527.322 55.5013 530.167 54.3369C530.393 54.2451 530.74 54.2907 530.681 53.9378C530.627 53.6113 530.31 53.6463 530.057 53.6922C529.724 53.7522 529.392 53.8369 529.06 53.9101C523.943 55.0344 518.77 55.3102 513.637 54.2869C510.244 53.6121 506.835 52.8185 503.619 51.4907C501.345 50.5502 499.7 48.831 498.408 46.6881C496.929 44.2285 495.787 41.7436 496.138 38.7805C496.227 38.0228 495.602 37.5426 495.168 37.0651C493.572 35.3041 492.378 33.2377 490.874 31.4144C489.694 29.9873 488.242 28.7929 487.003 27.411C485.41 25.6351 483.704 23.9232 483.066 21.4903C482.6 19.7113 484.669 16.7864 486.472 16.2618C490.187 15.1833 493.973 15.6504 497.717 15.5678C500.269 15.5138 502.791 16.2498 505.121 17.4473C506.932 18.3766 508.855 19.0517 510.678 19.9825C513.935 21.6468 516.826 23.7367 519.386 26.3359C522.337 29.3255 525.014 32.5644 527.966 35.559C529.414 37.026 531.144 38.3593 531.864 40.4873C531.419 38.0207 530.812 35.6519 530.71 33.1914C530.685 32.6085 530.586 32.1007 530.842 31.4815C531.008 31.0897 530.54 30.3781 530.26 29.8641C529.205 27.9267 528.121 26.0078 527.032 24.0905C526.71 23.5275 526.36 22.988 526.727 22.3163L526.671 22.3384L526.683 22.3565ZM496.204 36.6072C496.283 36.3337 496.355 36.1346 496.391 35.9342C496.452 35.6229 496.516 35.3298 496.926 35.3647C497.447 35.4083 497.332 35.8326 497.345 36.143C497.355 36.3941 497.31 36.6556 497.233 36.8977C497.001 37.6637 497.331 37.8978 498.054 37.8879C499.3 37.8686 500.488 37.6452 501.671 37.2301C502.833 36.8253 503.714 35.9759 504.752 35.3014C504.905 35.8565 504.545 36.0225 504.342 36.2727C502.983 37.9701 500.978 38.1088 499.062 38.4595C498.828 38.5019 498.506 38.3701 498.454 38.7226C498.435 38.8368 498.594 39.025 498.717 39.1095C501.101 40.6781 503.548 41.7025 506.47 40.4646C507.545 40.0094 508.571 39.5962 509.316 38.6641C509.485 38.4507 509.699 38.2302 509.447 38.0216C507.816 36.6624 506.671 34.6731 504.403 34.1175C503.889 33.9913 503.179 34.1431 502.818 33.1543C504.455 33.765 506.074 33.492 507.323 34.8705C509.654 37.4443 512.449 39.4427 515.665 40.8201C516.012 40.9681 516.348 41.1889 516.627 41.4435C518.358 42.9948 520.469 43.9669 522.426 45.1555C526.217 47.4613 530.435 48.857 534.642 50.2312C535.007 50.3509 535.421 50.556 535.699 50.1696C535.995 49.763 535.733 49.3728 535.494 49.0022C535.267 48.6496 534.884 48.5581 534.551 48.3719C530.71 46.1856 526.763 44.1574 523.061 41.7513C520.844 40.313 518.541 39.0755 516.255 37.7799C513.363 36.1411 509.992 35.3785 507.508 33.0014C507.363 32.861 507.129 32.8174 506.946 32.7121C505.234 31.7735 503.352 31.5291 501.454 31.2436C499.488 30.9456 497.46 30.8598 495.578 30.0487C495.957 29.9452 496.337 29.8913 496.696 29.9549C499.577 30.4836 502.46 30.9561 505.395 31.01C505.79 31.0171 506.101 31.1639 506.419 31.4295C507.33 32.1757 508.226 32.9849 509.254 33.5332C512.326 35.1733 515.428 36.7585 518.575 38.254C521.204 39.5026 523.287 41.5901 525.923 42.8337C527.76 43.7015 529.538 44.7418 531.224 45.8806C532.677 46.8619 534.274 47.5144 535.802 48.351C535.464 47.3041 534.825 46.558 533.954 45.9997C530.389 43.7176 526.803 41.4623 523.256 39.1519C520.845 37.5786 518.529 35.8539 516.028 34.4171C515.813 34.2924 515.575 33.8441 515.302 34.2619C514.499 35.4854 514.245 34.2905 514.122 33.9103C513.911 33.2617 513.66 32.9672 512.982 32.6545C511.406 31.934 509.735 31.3849 508.305 30.3455C507.312 29.625 506.293 28.8998 505.188 28.3838C501.168 26.5052 496.865 25.4211 492.633 24.1578C491.461 23.8062 490.209 23.7032 488.997 23.4842C488.778 23.4437 488.56 23.3785 488.591 23.1022C488.623 22.8177 488.869 22.8099 489.079 22.8339C489.375 22.8669 489.663 22.9412 489.956 22.9891C491.842 23.2929 493.641 23.9001 495.466 24.4293C498.69 25.3671 501.987 26.1059 504.972 27.7122C507.622 29.139 510.249 30.6041 512.841 32.134C513.734 32.6624 513.818 32.3128 513.906 31.5386C514.151 29.3946 512.837 27.6352 512.494 25.6368C512.414 25.1751 511.886 25.0952 511.466 24.9976C510.263 24.7173 509.047 24.4801 507.862 24.1385C506.462 23.7333 504.967 23.952 503.37 23.4185C504.31 23.1318 504.977 22.6549 503.949 22.0818C503.338 21.7436 502.738 21.3126 502.046 21.0959C498.886 20.0945 495.652 19.6409 492.336 19.8409C492.01 19.8595 491.476 20.2324 491.447 19.5983C491.423 19.1062 492.036 19.0794 492.347 19.132C493.2 19.2709 493.249 18.7978 493.262 18.1797C493.29 16.6165 492.682 16.0667 491.141 16.3487C489.721 16.6078 488.307 16.9231 486.893 17.2053C484.691 17.6469 483.128 20.153 484.283 22.4263C485.138 24.1067 486.323 25.5486 487.597 26.8491C490.029 29.3325 492.477 31.7744 494.314 34.757C494.759 35.4821 495.226 36.1855 496.201 36.6138L496.204 36.6072ZM573.988 72.7235C574.096 74.3034 574.379 75.7062 574.21 77.0529C574.096 77.9547 574.436 78.1771 575.026 78.476C576.202 79.0722 577.549 79.2005 578.706 79.8695C579.287 80.2049 579.388 79.7081 579.464 79.2396C579.56 78.6454 579.05 78.0119 579.602 77.3232C580.157 77.905 580.33 78.5061 580.298 79.2135C580.273 79.7723 580.447 80.2263 581.123 80.2796C583.839 80.5062 586.558 80.2008 589.26 80.1252C590.489 80.0896 591.708 79.6593 592.98 80.109C593.267 80.2114 593.711 80.279 593.927 79.961C594.172 79.5997 593.735 79.3668 593.614 79.0658C593.495 78.7615 593.179 78.6858 592.952 78.5018C591.611 77.3986 590.443 76.125 589.127 74.6317C591.479 76.2502 593.309 78.0632 595.122 79.8928C595.381 80.1541 595.544 80.0399 595.779 79.986C597.34 79.6146 598.561 78.606 599.89 77.806C600.329 77.5432 600.446 77.1685 600.152 76.7258C599.501 75.7485 598.96 74.6808 597.879 74.0737C597.159 73.6705 596.642 73.0536 596.107 72.4369C595.471 71.7007 594.783 71.0295 593.887 70.5657C592.109 69.6526 590.352 68.7128 588.475 67.9942C587.702 67.7007 587.063 67.2223 587.019 68.5726C587.01 68.8189 586.93 69.1205 586.587 69.0897C586.197 69.0562 586.129 68.7398 586.158 68.4255C586.192 68.0517 586.52 67.6895 586.308 67.3152C585.406 65.7395 584.771 63.9856 583.316 62.7697C583.036 62.5351 582.792 62.3875 582.4 62.5258C580.078 63.3405 577.704 64.027 575.443 64.9864C574.428 65.4176 573.726 65.2984 572.925 64.7492C572.577 64.5103 572.203 64.2916 571.815 64.1275C568.272 62.6201 564.546 61.6071 561.075 59.8675C558.049 58.3525 554.806 57.2662 551.568 56.2393C550.56 55.9221 549.502 55.7575 548.149 55.4492C550.422 57.7692 553.376 58.0128 555.675 59.5692C554.215 59.0408 552.756 58.5123 551.296 57.9838C552.034 58.4413 552.459 59.1898 553.237 59.6005C555.155 60.6144 557.271 61.1122 559.198 62.0649C560.78 62.8497 562.258 63.9166 563.915 64.4544C565.934 65.1069 567.887 65.9569 569.937 66.5216C570.154 66.5818 570.355 66.8108 570.496 67.0108C571.768 68.8235 573.288 70.4367 574.613 72.1976C575.34 73.1624 576.448 73.7213 577.25 74.8009C575.783 74.6261 575.176 73.4319 573.987 72.7269L573.988 72.7235ZM586.833 60.7286C585.62 59.9297 584.474 59.1349 583.073 58.8569C579.389 58.1227 575.704 57.3719 572.023 56.6144C567.95 55.7739 563.775 56.0085 559.68 55.35C557.209 54.9504 554.697 54.7859 552.202 54.5105C550.958 54.3744 549.716 54.2268 548.29 54.0597C549.02 55.3466 550.222 55.1627 551.158 55.5105C554.971 56.9273 558.769 58.3492 562.447 60.1194C565.074 61.3829 567.954 62.1248 570.595 63.3667C572.477 64.2521 574.292 64.4477 576.227 63.9381C577.787 63.5254 579.319 63.0171 580.865 62.5401C581.296 62.4046 581.901 62.4027 581.996 61.8696C582.083 61.3862 581.464 61.4263 581.197 61.1898C580.92 60.9485 580.696 60.6388 580.979 60.32C581.256 60.0111 581.573 60.3214 581.731 60.5129C583.357 62.457 585.122 60.854 586.837 60.7303L586.833 60.7286ZM541.177 63.8576C541.035 64.5234 541.525 65.1968 540.793 65.3919C540.227 65.5438 540.216 64.8897 540.022 64.5532C539.633 63.8671 539.408 64.2546 539.139 64.6459C538.845 65.0739 538.205 65.453 538.112 64.8081C537.87 63.1669 537.209 63.6999 536.384 64.248C536.25 64.3387 535.961 64.2809 535.782 64.202C535.531 64.0843 535.264 63.9667 535.092 64.2116C534.524 64.9995 533.923 65.7796 533.485 66.6388C533.219 67.1623 534.134 66.9007 534.172 67.3298C534.193 67.5823 534.172 67.8387 534.184 68.0913C534.213 68.5569 533.693 68.8999 533.903 69.4576C534.879 69.1804 536.09 68.9881 536.685 69.7412C537.746 71.0822 538.862 72.0309 540.63 72.0602C540.872 72.0624 541.133 72.2346 541.201 72.5097C541.239 72.6761 541.144 72.8639 540.934 72.8646C540.169 72.8668 539.408 73.3844 538.637 72.6812C538.196 72.2781 537.612 71.9081 536.912 72.0037C536.619 72.0418 536.383 71.9024 536.335 71.6204C536.05 69.8807 535.44 71.2474 535.038 71.5164C534.722 71.7282 534.547 72.4687 534.093 72.1005C533.081 71.2761 532.948 72.2425 532.673 72.733C532.388 73.2435 532.278 73.8511 532.078 74.4069C531.853 75.0207 531.077 75.859 530.933 75.7235C530.205 75.0496 529.891 75.8908 529.317 76.0312C529.667 75.5398 529.856 75.151 529.216 74.8527C528.68 74.6044 528.42 74.8519 528.218 75.2921C527.933 75.9215 526.843 76.6196 528.375 77.1176C528.471 77.1478 528.495 77.4962 528.502 77.701C528.508 77.9338 528.626 78.258 528.788 78.1355C529.815 77.3406 530.528 78.2742 531.168 78.6716C532.365 79.4212 533.807 79.7318 534.871 80.544C535.921 81.3415 536.165 81.0578 536.728 80.1609C538.197 77.8145 539.657 75.4517 541.338 73.2582C542.453 71.7998 543.21 70.2331 543.78 68.543C544.252 67.1498 543.748 65.895 543.156 64.6214C542.676 63.5876 541.781 64.381 541.179 63.8625L541.177 63.8576ZM510.805 20.9888C510.761 21.1975 510.703 21.3088 510.736 21.3498C511.625 22.4796 512.509 23.6111 513.422 24.7158C513.655 24.9973 513.912 25.262 513.695 25.6081C513.273 26.2821 513.638 26.8413 513.881 27.4151C514.334 28.4855 514.745 29.5844 514.652 30.7469C514.533 32.2782 514.885 33.2869 516.424 34.0838C518.516 35.1701 520.381 36.6918 522.355 38.0123C526.797 40.9749 531.65 43.3116 535.743 46.8069C535.868 46.9129 536.029 47.1308 536.338 46.8662C535.923 46.3852 535.539 45.8824 535.096 45.4414C533.198 43.5582 531.178 41.7805 530.192 39.1781C530.049 38.7965 529.736 38.4515 529.432 38.1642C527.087 35.9491 525.006 33.4765 522.776 31.1527C520.729 29.0251 518.869 26.7086 516.619 24.7865C514.864 23.285 512.933 22.0185 510.812 20.9838L510.805 20.9888ZM505.454 51.2896C508.461 52.1588 511.334 53.0164 514.286 53.5509C518.231 54.264 522.186 53.9592 526.138 53.6281C528.166 53.4594 530.07 52.5934 532.12 52.4724C532.885 52.4289 533.646 52.3756 534.414 52.4081C534.748 52.4224 535.183 52.3216 535.193 51.9117C535.205 51.4986 534.775 51.6225 534.5 51.5628C532.726 51.1569 530.961 50.6898 529.173 50.3386C526.878 49.889 524.629 49.1664 522.334 48.8606C519.679 48.5111 517.019 48.1434 514.401 47.615C512.894 47.3101 511.565 46.9602 510.411 48.3051C510.261 48.4786 509.949 48.5037 509.714 48.6072C508.429 49.1737 507.141 49.7354 505.866 50.315C505.603 50.4337 505.307 50.5693 505.23 50.8973C505.164 51.169 505.389 51.254 505.454 51.2896ZM531.626 79.9781C531.239 80.4022 531.717 81.0081 531.254 81.1241C529.867 81.4687 529.525 82.7646 528.767 83.682C528.528 83.9722 528.16 84.5696 527.963 84.3058C527.386 83.5409 526.077 83.9111 525.913 82.7185C525.29 83.1056 524.923 83.8682 524.184 83.5462C523.445 83.2243 523.882 82.3519 523.612 81.7652C522.361 82.5494 522.049 82.9033 521.701 84.11C521.51 84.7731 521.386 85.4849 522.521 85.153C522.905 85.0396 523.096 85.2885 523.374 85.5183C524.37 86.3346 525.884 86.2198 526.754 87.32C526.766 87.3381 526.898 87.2424 526.981 87.2249C527.676 87.0781 527.674 87.4962 527.563 87.9716C527.432 88.5282 527.127 89.0043 526.686 89.353C525.897 89.9799 525.289 90.7072 525.035 91.7047C524.993 91.8655 524.888 92.0154 524.792 92.1536C524.595 92.4318 524.355 92.7831 523.982 92.5858C523.643 92.4047 523.882 92.0566 523.973 91.7846C524.131 91.2988 524.304 90.816 524.462 90.3301C524.55 90.0565 524.747 89.7089 524.367 89.553C524.049 89.4228 523.804 89.6817 523.688 89.9788C523.332 90.8817 522.665 91.6708 522.621 92.6923C522.602 93.094 522.464 93.4045 522.038 93.3499C521.552 93.2861 521.673 92.8684 521.702 92.5376C521.759 91.9372 521.986 91.3861 522.211 90.8301C522.37 90.435 522.734 90.0327 522.36 89.543C521.415 89.8314 521.406 90.6609 521.228 91.3915C521.02 92.2596 519.566 92.995 518.862 92.5917C519.207 93.9706 519.426 94.0688 520.292 93.2246C520.482 93.0374 520.671 92.8419 520.95 92.9857C521.288 93.1619 521.153 93.4906 521.173 93.7795C521.195 94.1559 520.592 94.5941 521.385 94.9138C522.152 95.2205 522.92 95.6347 523.543 96.1711C525.045 97.4673 525.154 97.471 526.315 95.8667C527.162 94.6972 528.118 93.6008 528.987 92.4458C531.232 89.4545 533.445 86.4387 535.103 83.0592C535.416 82.4146 535.325 82.1281 534.8 81.5939C533.891 80.6676 532.54 80.8532 531.631 79.9765L531.626 79.9781ZM538.942 55.7447C539.508 55.3384 540.054 54.8927 539.987 54.1417C539.919 53.361 540.455 53.3301 540.976 53.3406C541.26 53.3473 541.537 53.5556 541.823 53.5672C542.214 53.5809 542.752 53.2344 542.861 53.8824C542.947 54.4052 543.235 55.1073 542.342 55.3472C542.039 55.43 541.948 55.6937 542.169 55.9407C542.9 56.7518 543.916 56.4444 544.812 56.5266C545.477 56.5867 545.049 55.9556 545.154 55.6537C545.236 55.4181 545.354 55.2416 545.602 55.3578C546.49 55.7689 546.844 54.8809 546.84 54.5257C546.829 53.6254 547.571 52.9263 547.311 51.9579C547.145 51.3435 547.727 50.7883 548.023 50.2298C548.12 50.0469 548.293 49.8764 548.538 50.0157C548.77 50.1452 548.681 50.3809 548.685 50.584C548.698 51.0465 548.073 51.4452 548.507 51.997C549.502 50.9646 549.749 50.2017 549.385 49.1337C549.043 48.1298 548.142 47.9138 547.254 47.5852C545.517 46.9426 543.45 47.0391 542.167 45.3074C541.837 44.8635 541.278 44.551 540.583 44.6895C539.279 44.9473 537.84 46.5813 537.723 48.1753C538.515 47.2129 539.183 46.2603 540.467 46.1778C540.765 46.1579 541.048 45.9877 541.251 46.3241C541.469 46.6851 541.333 47.0336 541.041 47.2286C539.995 47.9196 539.71 49.157 538.959 50.0694C538.366 50.7916 538.165 51.8397 537.799 52.746C537.603 53.2339 537.914 53.5988 538.216 53.8646C538.655 54.2545 538.757 53.7329 538.934 53.4863C539.075 53.2881 539.257 53.1753 539.469 53.2985C539.738 53.454 539.706 53.7137 539.605 53.9726C539.381 54.5617 539.164 55.1507 538.943 55.7414L538.942 55.7447ZM508.575 45.2366C507.701 44.9228 506.967 44.5909 506.291 44.1311C505.951 43.9004 505.587 43.7443 505.293 44.1805C504.621 45.1845 503.467 45.4125 502.479 45.8319C499.144 47.2431 499.131 47.2036 502.032 49.5494C502.681 50.074 503.489 50.6677 504.219 50.3488C506.427 49.3801 508.69 48.4917 510.73 47.1747C511.303 46.8079 511.153 46.4396 510.542 46.1756C509.838 45.8747 509.163 45.5141 508.578 45.23L508.575 45.2366ZM565.035 79.1754C565.41 79.333 565.637 79.6691 565.948 79.4177C566.217 79.2032 566.132 78.8787 566.054 78.5904C565.606 76.9517 565.238 75.2988 565.148 73.5915C565.133 73.3174 564.972 72.9971 564.774 72.7978C563.518 71.5351 562.247 70.2891 560.957 69.0631C560.463 68.5929 560.126 68.6018 559.965 69.4066C559.557 71.4136 559.906 73.374 560.223 75.3431C560.267 75.6069 560.382 75.8187 560.602 75.9748C562.115 77.0628 563.624 78.1574 565.035 79.1754V79.1754ZM566.101 65.8204C565.275 65.5011 564.473 65.2146 563.698 64.8749C563.271 64.6881 562.937 64.649 562.836 65.1871C562.537 66.7914 562.488 68.3814 563.398 69.8381C564.359 71.3768 565.756 72.4826 567.194 73.5301C567.476 73.7367 567.817 74.2185 568.157 73.9486C568.476 73.6971 568.62 73.2328 568.627 72.7189C568.653 71.2449 568.336 69.8178 567.788 68.5205C567.382 67.5636 567.563 66.0994 566.096 65.8221L566.101 65.8204ZM546.512 57.7545C546.09 57.4058 545.745 57.5056 545.373 57.8502C544.962 58.2299 545.026 58.5811 545.342 58.9608C545.423 59.0573 545.49 59.1722 545.571 59.2688C547.018 60.9902 548.374 62.8069 549.952 64.403C551.275 65.7442 552.038 67.5231 553.523 68.7089C553.742 68.8848 553.885 69.2995 554.23 69.0808C554.519 68.9007 554.418 68.5317 554.306 68.2554C553.815 67.0434 553.685 65.7893 553.814 64.5008C553.918 63.4753 553.459 62.8378 552.549 62.3873C551.75 61.995 550.948 61.54 550.373 60.846C549.291 59.54 547.54 59.1041 546.512 57.7545V57.7545ZM509.537 44.4309C510.615 45.205 511.577 45.9473 512.778 46.4242C515.371 47.4618 517.522 46.7118 519.7 45.499C520.268 45.1835 520.447 44.8064 519.76 44.3781C519.038 43.9288 518.329 43.4528 517.628 42.9685C516.404 42.1234 515.242 41.2512 513.903 42.884C513.539 43.3276 512.801 43.503 512.199 43.7032C511.326 43.994 510.425 44.1927 509.534 44.4293L509.537 44.4309ZM571.661 76.6609C573.34 77.5255 573.577 77.4848 573.596 76.414C573.669 72.519 572.112 69.4341 568.97 67.1439C568.74 66.9748 568.49 66.6852 568.188 66.9447C567.885 67.2043 568.214 67.483 568.258 67.7551C568.522 69.4604 569.246 71.0646 569.06 72.8841C568.998 73.4945 568.748 74.4407 569.491 75.0072C570.266 75.5931 570.878 76.3956 571.653 76.661L571.661 76.6609ZM555.1 64.2795C554.845 64.1106 554.665 64.2449 554.529 64.9304C554.177 66.6775 555.181 68.3396 554.762 70.0825C554.726 70.2415 555.021 70.4958 555.183 70.6856C556.202 71.8784 557.599 72.6967 558.48 74.0281C558.591 74.197 558.768 74.3817 559.008 74.26C559.243 74.14 559.166 73.9013 559.147 73.695C559.031 72.4275 558.715 71.0747 559.159 69.9065C559.918 67.9135 558.772 66.942 557.483 65.9506C556.81 65.4346 556.098 64.9736 555.1 64.2795V64.2795ZM545.482 45.7386C546.095 44.628 546.707 43.5123 547.329 42.4098C547.499 42.1105 547.549 41.4986 548.033 41.7293C548.488 41.9505 548.271 42.4899 548.092 42.867C547.911 43.2474 547.653 43.594 547.434 43.96C547.055 44.5889 546.78 45.2479 546.643 46.1384C546.889 45.9703 547.009 45.926 547.074 45.8426C547.995 44.6557 548.599 43.261 549.892 42.3078C550.991 41.4988 551.094 39.4341 550.228 38.8327C549.432 38.2818 548.561 37.8011 547.566 37.6506C546.285 37.4554 544.48 38.9317 544.444 40.2241C544.44 40.3332 544.488 40.5292 544.541 40.5385C545.644 40.7373 544.921 41.3636 544.77 41.742C544.458 42.527 543.936 43.2302 543.839 44.0987C543.803 44.4015 543.883 44.769 544.176 44.8581C544.574 44.9775 544.627 44.5473 544.72 44.2968C545.053 43.3826 545.146 42.3721 545.791 41.5849C545.962 41.3764 546.082 40.9339 546.438 41.1149C546.86 41.3281 546.617 41.7109 546.455 41.9936C545.804 43.1394 545.509 44.3885 545.48 45.7419L545.482 45.7386ZM503.342 41.8403C505.143 42.7151 506.676 43.4641 508.22 44.2015C508.356 44.2677 508.663 44.2774 508.682 44.2292C509.094 43.2299 510.004 43.6143 510.725 43.4227C511.901 43.1068 513.106 42.8254 514.084 41.9782C514.756 41.3972 514.693 41.046 513.919 40.7195C512.784 40.2418 511.656 39.7393 510.681 38.9657C510.212 38.5944 509.968 38.8004 509.676 39.225C508.626 40.7604 507.046 41.2906 505.285 41.4083C504.751 41.4409 504.21 41.3628 503.338 41.8387L503.342 41.8403ZM496.999 38.8334C496.909 40.2107 497.06 41.3886 497.342 42.532C497.673 43.8631 498.295 45.2454 499.348 45.9785C500.339 46.6693 501.278 45.2691 502.297 44.9468C502.376 44.9194 502.45 44.869 502.525 44.8318C503.202 44.5035 504.319 44.3685 504.325 43.6282C504.333 42.8599 503.21 42.6349 502.55 42.236C500.748 41.1514 498.82 40.2764 496.999 38.8334V38.8334ZM504.143 17.6584C503.74 17.6598 503.253 17.2094 502.878 17.6928C502.67 17.9612 502.731 18.4016 503.031 18.6212C503.959 19.2979 504.171 20.3578 504.625 21.3091C504.972 22.0321 505.081 23.2436 505.961 23.3012C507.761 23.416 509.473 23.816 511.201 24.2407C511.641 24.348 511.978 24.1624 511.606 23.7272C510.377 22.2841 509.443 20.5286 507.76 19.5467C506.602 18.8694 505.27 18.5014 504.14 17.6651L504.143 17.6584ZM587.146 66.4861C589 67.3868 590.893 68.2159 592.692 69.213C593.789 69.82 594.639 69.5839 595.457 68.8641C596.039 68.3502 596.906 67.843 596.569 66.9117C596.184 65.8538 595.244 65.1178 594.152 65.1089C591.774 65.0915 589.482 65.8018 587.146 66.4861ZM593.391 63.9429C592.243 63.2456 591.289 62.7329 590.405 62.1185C589.229 61.3009 588.061 60.8401 586.619 61.4415C585.851 61.7626 584.566 61.4139 584.267 62.0732C583.922 62.8338 585.123 63.4462 585.446 64.2356C585.822 65.1449 586.541 65.6257 587.436 65.4403C589.346 65.05 591.225 64.4964 593.388 63.9413L593.391 63.9429ZM567.814 80.7263C568.709 80.9028 569.782 81.1812 570.898 81.1817C571.44 81.1821 571.516 80.8574 571.403 80.4043C571.202 79.5756 571.034 78.73 571.297 77.8926C571.456 77.3786 571.066 77.3286 570.806 77.1614C569.558 76.3579 568.298 75.5694 567.05 74.7659C566.84 74.6311 566.668 74.3506 566.392 74.4711C566.043 74.6221 566.155 74.976 566.173 75.26C566.296 76.9173 566.892 78.4801 567.16 80.1093C567.205 80.3814 567.364 80.5696 567.81 80.7247L567.814 80.7263ZM530.221 49.9151C530.248 49.8091 530.278 49.7047 530.305 49.5986C530.216 49.5187 530.141 49.4122 530.038 49.3704C527.426 48.2868 524.643 47.5835 522.357 45.7709C521.968 45.4631 521.314 44.9848 520.846 45.3983C519.833 46.2987 518.654 46.8591 517.396 47.4022C521.803 47.7895 525.989 48.9806 530.217 49.9135L530.221 49.9151ZM559.749 62.8665L559.767 62.8299C559.156 62.5329 558.546 62.2326 557.933 61.939C557.667 61.8099 557.214 61.6432 557.207 62.0299C557.187 62.8496 556.657 63.8734 557.347 64.4636C558.702 65.6227 559.917 66.9272 561.283 68.0631C561.45 68.2016 561.649 68.3067 561.855 68.1441C562.078 67.973 561.948 67.7581 561.887 67.5638C561.681 66.9053 561.471 66.1626 561.733 65.5632C562.366 64.1169 561.59 63.5922 560.44 63.194C560.202 63.1108 559.98 62.9745 559.751 62.8632L559.749 62.8665ZM599.204 72.5121C599.984 71.0591 599.306 69.8014 598.601 68.5968C598.182 67.8796 597.618 67.6101 596.944 68.4819C596.536 69.0103 595.959 69.4201 595.418 69.8311C594.94 70.1901 594.932 70.4942 595.408 70.8159C596.192 71.3488 596.772 72.0823 597.4 72.7773C598.304 73.783 598.642 73.7048 599.204 72.5121V72.5121ZM547.585 55.976C547.347 55.7987 547.19 55.8501 547.049 55.9624C546.863 56.1099 546.78 56.3405 546.902 56.5274C547.087 56.8062 547.341 57.0362 547.57 57.2831C549.926 59.8235 553.128 61.2969 555.607 63.6839C555.817 63.8847 556.023 63.9848 556.228 63.69C556.584 63.177 556.032 61.4139 555.464 61.1544C553.149 60.1038 550.868 58.9998 548.889 57.3572C548.371 56.9286 547.717 56.6437 547.585 55.976V55.976ZM498.806 19.575C498.615 18.7842 498.503 18.0684 498.262 17.3971C498.088 16.9101 497.685 16.4967 497.131 16.4783C496.282 16.4516 495.423 16.4615 494.583 16.5835C493.462 16.745 494.01 17.7053 493.876 18.3264C493.76 18.8696 493.905 19.2562 494.592 19.1872C496.037 19.0434 497.454 19.3906 498.802 19.5734L498.806 19.575ZM501.196 16.9785C500.547 16.9876 499.677 16.1831 499.067 16.7534C498.66 17.1348 499.323 17.9698 499.553 18.5867C499.611 18.7463 499.745 18.9183 499.718 19.0573C499.56 19.839 500.059 19.9704 500.644 20.1025C501.388 20.2707 502.116 20.497 502.851 20.6984C503.047 20.7523 503.27 20.8852 503.439 20.6883C503.656 20.4364 503.474 20.1956 503.308 20.0207C502.651 19.3277 502.273 18.4828 501.94 17.611C501.83 17.3149 501.652 17.0972 501.201 16.9768L501.196 16.9785ZM540.975 39.3155C541.62 39.9491 541.055 40.7834 541.498 41.4177C542.105 40.7019 542.032 39.8205 542.25 38.9573C542.549 39.2215 542.756 39.4041 543.109 39.7156C542.894 38.4608 542.584 37.5673 541.362 37.4541C540.462 37.3702 539.663 37.5611 539.182 38.4323C539.04 38.6917 538.775 39.0846 539.017 39.2388C539.85 39.7629 539.695 40.7841 540.186 41.5484C540.79 40.8806 540.454 39.9824 540.975 39.3073L540.975 39.3155ZM599.79 73.2934C598.566 74.3087 600.264 74.8212 600.397 75.654C600.45 75.9755 601.073 76.697 601.617 76.4149C602.132 76.1479 602.289 75.4274 602.068 74.8269C601.791 74.0767 601.41 73.3657 601.073 72.6393C600.968 72.4158 600.918 72.1041 600.611 72.1027C600.298 72.103 600.307 72.4565 600.169 72.648C600.046 72.818 599.952 73.0107 599.79 73.2852L599.79 73.2934ZM574.169 78.8609C573.681 78.6236 573.299 78.4462 572.927 78.2572C572.697 78.1376 572.378 77.9744 572.271 78.2631C571.953 79.1027 572.244 79.9337 572.553 80.7001C572.817 81.3579 573.481 81.0727 573.874 80.8815C574.477 80.5872 575.451 80.5182 575.449 79.6425C575.449 78.8991 574.45 79.231 574.171 78.8658L574.169 78.8609ZM530.623 68.0165C531.894 66.7611 533.673 65.9824 534.172 64.0238C534.263 63.6692 534.38 63.3606 534.023 63.1218C533.595 62.8359 533.417 63.2296 533.21 63.4698C532.052 64.8048 531.333 66.3942 530.628 68.0148L530.623 68.0165ZM549.884 46.2796C550.966 46.1235 552.248 44.7788 552.264 44.0021C552.266 43.7774 552.209 43.5732 552 43.4715C551.694 43.323 551.531 43.5479 551.398 43.7625C550.922 44.5412 550.458 45.3264 549.884 46.2796V46.2796ZM526.066 76.916C527.208 76.0289 527.467 74.7505 527.767 73.4914C527.815 73.2811 527.851 73.0394 527.615 72.9496C527.491 72.9015 527.288 72.9798 527.147 73.0508C526.748 73.2553 526.367 73.6083 526.491 74.0381C526.782 75.0789 526.397 75.9722 526.068 76.9127L526.066 76.916ZM515.869 58.0778C517.15 58.3754 518.394 58.224 519.631 58.0115C519.918 57.962 520.25 57.8442 520.15 57.4422C520.068 57.111 519.767 57.1905 519.517 57.2132C518.26 57.3168 517.052 57.638 515.866 58.0762L515.869 58.0778ZM514.954 56.7831C514.982 56.9199 515.009 57.06 515.037 57.1968C516.72 56.9016 518.402 56.6015 520.085 56.3062C518.319 56.1299 516.57 56.0525 514.954 56.7831V56.7831ZM530.575 63.9891C530.311 64.4316 529.858 64.8069 530.4 65.1526C530.955 65.508 531.075 64.9383 531.291 64.5955C531.604 64.0946 531.939 63.6083 532.275 63.127C532.371 62.9888 532.525 62.8499 532.403 62.696C532.262 62.5208 532.022 62.4657 531.832 62.6034C531.283 62.9979 530.771 63.435 530.574 63.9924L530.575 63.9891ZM551.919 68.8412C551.359 67.5672 550.642 66.4058 549.377 65.6966C549.95 66.9606 550.689 68.0838 551.919 68.8412ZM544.324 64.2527C544.373 62.9172 543.543 62.3535 543.088 61.6069C543.032 61.5184 542.764 61.4702 542.651 61.526C542.398 61.6496 542.486 61.865 542.622 62.0418C543.122 62.6953 543.627 63.3471 544.324 64.2527ZM517.045 94.0664C517.556 93.3204 517.382 92.6037 517.53 91.961C517.592 91.691 517.471 91.423 517.147 91.4218C516.893 91.4214 516.8 91.6554 516.814 91.8799C516.851 92.5387 516.583 93.2258 517.045 94.0664V94.0664ZM529.235 64.6439C529.49 64.0247 530.05 63.668 530.342 63.1161C530.439 62.9333 530.546 62.7222 530.352 62.546C530.177 62.3911 529.909 62.3842 529.779 62.5427C529.297 63.1298 528.634 63.6743 529.236 64.6405L529.235 64.6439ZM548.783 67.5357C549.321 68.3721 549.459 69.527 550.611 69.869C550.172 68.9538 549.714 68.0537 548.783 67.5357Z" fill="black"/>
</g>
</svg>
