<svg width="30" height="33" viewBox="0 0 30 33" fill="none" xmlns="http://www.w3.org/2000/svg">
<path fill-rule="evenodd" clip-rule="evenodd" d="M2.1001 16.1705H27.9001V28.9999C27.9001 30.9329 26.3331 32.4999 24.4001 32.4999H5.6001C3.6671 32.4999 2.1001 30.9329 2.1001 28.9999V16.1705ZM3.6001 17.6705V28.9999C3.6001 30.1045 4.49553 30.9999 5.6001 30.9999H24.4001C25.5047 30.9999 26.4001 30.1045 26.4001 28.9999V17.6705H3.6001Z" fill="white"/>
<path fill-rule="evenodd" clip-rule="evenodd" d="M26.9706 13.1121H3.0294C2.18474 13.1121 1.5 13.7968 1.5 14.6415C1.5 15.4861 2.18474 16.1709 3.0294 16.1709H26.9706C27.8153 16.1709 28.5 15.4861 28.5 14.6415C28.5 13.7968 27.8153 13.1121 26.9706 13.1121ZM3.0294 11.6121C1.35631 11.6121 0 12.9684 0 14.6415C0 16.3145 1.35631 17.6709 3.0294 17.6709H26.9706C28.6437 17.6709 30 16.3145 30 14.6415C30 12.9684 28.6437 11.6121 26.9706 11.6121H3.0294Z" fill="white"/>
<path d="M8.3999 21.9058C8.3999 21.5744 8.66853 21.3058 8.9999 21.3058C9.33127 21.3058 9.5999 21.5744 9.5999 21.9058V27.9763C9.5999 28.3077 9.33127 28.5763 8.9999 28.5763C8.66853 28.5763 8.3999 28.3077 8.3999 27.9763V21.9058Z" fill="white"/>
<path d="M14.4001 21.9058C14.4001 21.5744 14.6688 21.3058 15.0001 21.3058C15.3315 21.3058 15.6001 21.5744 15.6001 21.9058V27.9763C15.6001 28.3077 15.3315 28.5763 15.0001 28.5763C14.6688 28.5763 14.4001 28.3077 14.4001 27.9763V21.9058Z" fill="white"/>
<path d="M20.3999 21.9058C20.3999 21.5744 20.6685 21.3058 20.9999 21.3058C21.3313 21.3058 21.5999 21.5744 21.5999 21.9058V27.9763C21.5999 28.3077 21.3313 28.5763 20.9999 28.5763C20.6685 28.5763 20.3999 28.3077 20.3999 27.9763V21.9058Z" fill="white"/>
<path fill-rule="evenodd" clip-rule="evenodd" d="M6.42063 3.6523C8.70149 1.47031 11.7882 0.25 15.0001 0.25C18.212 0.25 21.2987 1.47031 23.5796 3.6523C25.8616 5.83537 27.1501 8.80352 27.1501 11.9058V12.6558L2.8501 12.6558L2.8501 11.9058C2.8501 8.80352 4.13864 5.83537 6.42063 3.6523ZM15.0001 1.75C12.1651 1.75 9.45251 2.8277 7.45754 4.73619C5.6503 6.46509 4.56625 8.74635 4.37917 11.1558L25.621 11.1558C25.4339 8.74635 24.3499 6.46509 22.5427 4.73619C20.5477 2.8277 17.8351 1.75 15.0001 1.75Z" fill="white"/>
</svg>
