<svg width="207" height="193" viewBox="0 0 207 193" fill="none" xmlns="http://www.w3.org/2000/svg">
<g opacity="0.05">
<path fill-rule="evenodd" clip-rule="evenodd" d="M47.5571 82.3103C48.0457 81.7218 48.7693 81.5916 49.4375 81.5616C53.239 81.3838 57.0608 81.4693 60.8344 81.0594C64.423 80.6726 67.3544 82.6354 70.6495 83.2438C74.363 83.9336 77.7185 83.2138 80.9674 81.4983C81.4534 81.2417 81.5721 80.8388 81.3832 80.3256C81.1159 79.6132 80.6644 80.0206 80.245 80.1177C78.2427 80.5867 76.431 80.5083 74.7509 78.9891C73.1542 77.5447 72.6891 75.6536 73.1854 73.5874C73.5617 72.0203 74.8545 71.5119 75.6768 70.4868C76.9312 68.9234 76.7341 67.852 74.8845 66.9972C72.6066 65.942 70.275 65.3407 67.7057 65.8311C65.795 66.1973 63.9224 65.8361 62.196 64.854C61.6759 64.5598 61.246 64.202 60.9379 63.6988C60.7813 63.4397 60.6731 63.1367 60.8756 62.8908C61.0947 62.6256 61.4529 62.7029 61.6439 62.9163C63.5321 65.0225 65.9802 64.7848 68.4078 64.5123C70.5821 64.265 72.6562 64.3873 74.5939 65.5354C74.9066 65.7177 75.3753 65.9947 75.6901 65.5664C75.9265 65.2498 75.6143 64.9211 75.4472 64.6321C75.151 64.1197 74.7473 63.5259 75.5428 63.194C76.1721 62.934 76.3438 63.4986 76.559 64.0294C76.7795 64.5751 77.219 65.395 77.9379 64.7927C78.5895 64.2426 79.8326 63.8172 79.2196 62.504C79.0762 62.1966 78.7925 61.9536 78.6073 61.666C78.3068 61.1887 78.165 60.6136 78.6766 60.2674C79.2475 59.875 79.783 60.189 80.1556 60.7182C80.3856 61.0473 80.5482 61.4285 80.7782 61.7576C81.2206 62.3849 81.8112 62.0915 82.3595 61.9642C83.0027 61.8203 82.9866 61.3253 82.8328 60.8737C81.8767 58.0885 81.9496 55.4437 83.1882 52.6746C83.6958 51.5385 83.5635 49.9537 83.2191 48.578C83.1289 48.2165 82.7972 47.7318 83.4571 47.6257C83.9969 47.5366 84.3776 47.8882 84.3366 48.4403C84.1605 50.7148 84.8699 53.076 83.6777 55.2509C82.4057 57.5765 83.8182 59.7157 84.247 61.895C84.3698 62.5356 85.327 63.0742 86.2343 63.0172C86.8102 62.9827 87.4045 62.9719 87.9524 62.8196C91.8625 61.7518 93.6988 65.0909 93.4688 68.048C93.3774 69.1974 93.4907 69.6296 94.6561 69.5944C95.4666 69.568 96.0723 70.7981 96.8351 70.2442C97.6524 69.6544 98.2943 68.7566 98.8495 67.8944C101.818 63.3073 102.824 58.2443 102.354 52.8487C102.33 52.5634 102.327 52.2487 102.208 51.998C100.549 48.4705 102.715 45.9968 104.542 43.4305C106.252 41.0315 107.887 38.5195 109.136 35.9266C109.863 34.4109 110.44 32.0727 109.215 30.0859C108.756 29.3385 108.594 28.6395 110.052 28.5734C112.373 28.4661 112.351 28.3311 112.394 30.7975C112.435 33.1316 111.979 35.2172 110.174 36.9291C108.741 38.2879 107.983 40.164 106.975 41.8406C105.686 43.9891 104.016 45.9323 103.411 48.4635C103.284 48.9939 103.177 49.4698 103.346 49.9733C105.561 56.5964 103.922 62.7906 101.241 68.8676C101.206 68.9524 101.264 69.0847 101.334 69.5758C102.507 67.9555 103.652 66.6355 104.49 65.141C105.469 63.3857 106.518 61.7534 107.832 60.201C109.225 58.5551 109.885 56.3559 111.033 54.4754C113.898 49.7718 117.067 45.2887 120.353 40.8739C121.32 39.5778 122.222 38.2307 123.201 36.9505C124.719 34.9737 126.348 33.1003 128.531 31.8183C130.771 30.5113 131.541 28.2903 132.215 26.0036C132.34 25.5764 132.328 25.0213 132.906 24.9155C133.078 24.8836 133.36 25.0514 133.469 25.208C133.803 25.7037 133.378 26.0466 133.167 26.445C132.927 26.897 132.116 27.3555 132.816 27.8904C133.374 28.3143 133.861 27.6506 134.306 27.3245C137.78 24.7873 141.557 22.7383 145.675 21.636C149.227 20.6874 152.959 20.3223 156.679 20.5628C158.483 20.6795 159.448 22.3729 160.029 24.643C161.512 30.445 159.447 35.3531 156.748 40.2384C155.494 42.5056 154.554 44.948 153.525 47.3328C152.258 50.2628 150.894 53.0982 148.191 55.0434C147.347 55.6477 146.878 56.2779 147.911 57.3727C148.897 58.4221 148.222 62.5875 147.399 63.7839C146.335 65.3392 144.994 66.7417 144.433 68.6106C144.348 68.8856 144.259 69.1958 143.927 69.2504C141.381 69.6722 139.783 71.921 137.376 72.6212C137.165 72.6838 136.834 72.8457 136.819 72.9903C136.559 75.4185 134.668 74.4692 133.306 74.8475C130.351 75.675 127.427 76.6564 124.487 78.0179C125.491 79.0089 126.415 79.3827 127.683 79.3248C130.018 79.2192 132.18 78.2524 134.518 78.1828C135.449 78.1575 136.249 78.3048 136.941 78.8778C139.166 80.7229 141.744 80.473 144.317 80.1189C144.907 80.036 145.547 79.7167 145.8 80.4273C146.129 81.3582 145.205 81.4917 144.669 81.5777C142.785 81.8794 140.893 81.6158 139.005 81.4563C138.517 81.4162 137.65 80.8711 137.556 81.7057C137.471 82.4951 138.416 82.4464 139.021 82.5227C140.852 82.7572 142.676 82.9658 144.52 82.5375C145.175 82.3844 146.091 82.3142 146.129 83.287C146.165 84.2488 145.313 84.1235 144.6 84.1623C142.057 84.3094 139.522 84.354 137.064 83.5975C136.063 83.2891 135.399 84.1913 134.405 84.0302C131.691 83.5986 128.848 83.8579 126.348 82.3782C125.677 81.9792 125.311 82.5296 124.839 82.8451C123.449 83.7842 122.336 84.794 120.184 83.9582C118.559 83.3283 116.321 83.7139 114.454 84.4965C114.487 84.6363 114.481 84.8249 114.529 84.8381C117.349 85.6509 119.047 87.9046 120.981 89.8417C122.563 91.4307 124.313 92.4515 126.689 92.0546C127.396 91.9366 128.711 91.8238 127.474 93.2216C127.112 93.6295 127.486 93.8018 127.748 94.017C128.842 94.8943 130.045 94.9817 131.352 94.6144C132.17 94.3854 132.96 94.3313 132.176 95.5291C131.588 96.43 132.182 96.5586 132.817 96.5351C133.719 96.4952 134.666 96.5789 135.433 95.8756C135.7 95.6306 136.177 95.33 136.505 95.7286C136.898 96.2104 136.466 96.6095 136.119 96.8909C135.645 97.2776 135.106 97.5882 134.482 98.0095C135.82 98.9819 136.766 97.9118 137.809 97.7362C138.619 97.6026 139.609 96.3773 140.07 97.1998C140.558 98.065 139.166 98.3896 138.46 98.8042C138.202 98.9538 137.916 99.0998 137.919 99.4146C137.928 99.8264 138.291 99.9759 138.62 100.089C139.308 100.322 139.846 99.9934 140.363 99.5799C140.828 99.2063 141.141 98.5065 142.029 98.8578C141.767 99.7212 141.301 100.38 140.481 100.77C139.77 101.105 138.949 101.641 139.14 102.369C139.327 103.093 140.353 102.658 140.988 102.781C142.114 102.998 143.277 103.041 144.421 103.174C144.71 103.204 145.054 103.279 145.072 103.621C145.103 104.078 144.719 104.18 144.359 104.174C143.263 104.168 142.166 104.119 141.07 104.113C140.688 104.111 140.187 103.948 140.017 104.448C139.869 104.886 140.249 105.213 140.514 105.489C141.414 106.428 142.677 106.208 143.782 106.341C145.257 106.516 146.764 106.456 148.259 106.476C148.611 106.482 149.115 106.027 149.196 106.72C149.254 107.22 148.736 107.337 148.347 107.416C147.9 107.51 147.439 107.538 146.985 107.566C145.811 107.647 144.638 107.713 143.464 107.933C145.341 108.652 147.302 108.881 149.249 109.191C149.204 109.371 149.203 109.55 149.151 109.564C147.192 110.203 147.451 110.047 148.523 111.853C150.569 115.29 153.5 115.135 156.72 114.437C157.41 114.289 159.202 115.486 159.23 116.176C159.268 117.231 158.348 117.361 157.653 117.43C154.312 117.759 150.807 118.189 148.02 115.905C146.524 114.68 144.833 113.981 143.263 113.005C141.571 111.952 140.583 110.352 139.663 108.668C138.698 106.892 137.701 105.134 136.701 103.379C136.596 103.195 136.397 103.012 136.199 102.945C130.702 101.069 126.58 97.1058 122.1 93.6868C120.263 92.2835 118.575 90.7133 117.259 88.7721C116.662 87.8967 115.678 87.537 114.676 87.2677C114.613 87.4562 114.522 87.6161 114.55 87.6447C118.253 91.1086 120.127 95.7633 122.613 100.013C124.482 103.206 126.562 106.255 128.606 109.338C131.597 113.855 134.409 118.492 136.61 123.471C137.185 124.775 137.68 126.117 138.591 127.281C139.761 128.79 139.543 131.091 138.417 132.739C137.839 133.58 137.441 134.555 136.961 135.473C134.786 139.635 132.48 139.909 127.408 138.319C123.388 137.062 120.829 133.757 117.952 130.94C116.181 129.206 114.421 127.469 112.496 125.88C110.775 124.463 109.262 122.775 107.733 121.139C105.046 118.257 101.984 115.767 99.2623 112.938C97.3551 110.954 95.6573 108.726 94.1557 106.415C92.9924 104.621 92.3736 102.532 92.922 100.28C93.0329 99.8258 93.1983 99.2787 92.7572 98.6694C92.0034 100.625 91.8516 102.424 92.2625 104.433C93.3564 109.807 96.5994 114.199 98.6463 119.125C100.288 123.072 101.759 127.069 100.888 131.488C100.709 132.394 101.188 133.158 101.622 133.906C102.617 135.621 103.955 137.076 105.26 138.537C107.599 141.15 109.074 144.065 108.854 147.649C108.681 150.498 108.97 153.3 109.581 156.073C109.673 156.478 109.817 156.893 109.387 157.163C109.053 157.371 108.732 157.17 108.413 157.012C107.103 156.354 106.385 155.363 106.474 153.835C106.637 150.987 106.767 148.139 106.906 145.31C106.447 145.209 106.308 145.438 106.17 145.71C105.549 146.921 104.061 146.998 103.337 145.853C103.227 145.678 103.33 145.402 103.004 145.325C101.613 144.996 101.631 144.994 101.843 143.593C102.067 142.106 102.386 140.653 102.876 139.226C103.029 138.784 103.192 138.03 102.465 137.952C101.929 137.899 101.957 138.588 101.866 139.027C101.574 140.433 101.282 141.839 100.967 143.239C100.83 143.84 100.449 144.452 99.8229 144.291C99.2622 144.149 99.6093 143.493 99.6986 143.068C100.015 141.547 100.385 140.037 100.68 138.513C100.806 137.857 101.011 137.165 100.412 136.247C99.9163 138.142 99.0179 139.657 98.7712 141.416C98.6976 141.942 98.5919 142.582 97.8949 142.444C97.2049 142.307 97.3133 141.703 97.48 141.174C97.9348 139.749 98.4137 138.331 98.8372 136.898C99.0128 136.299 99.2528 135.529 98.6449 135.138C98.1626 134.827 97.7606 135.494 97.3449 135.76C96.9094 136.041 96.4294 136.477 95.9595 136.01C95.4265 135.479 96.0327 135.091 96.3219 134.695C96.7533 134.107 97.1152 133.616 95.9413 133.436C94.9775 133.29 95.3778 132.636 95.6421 132.127C96.083 131.264 96.7832 130.499 96.6301 129.419C96.5813 129.07 96.5487 128.676 96.2043 128.519C95.7953 128.335 95.5838 128.708 95.3888 128.98C95.0313 129.492 94.6044 129.989 94.0011 129.448C93.468 128.974 93.9876 128.507 94.2786 128.097C94.8302 127.32 95.4921 126.604 95.6079 125.657C95.1059 125.305 94.9491 125.585 94.7743 125.809C94.5564 126.093 94.3416 126.38 93.9313 126.121C93.4807 125.843 93.5518 125.477 93.7386 125.072C94.1229 124.234 94.5009 123.389 94.868 122.546C95.0698 122.078 95.04 121.607 94.6545 121.265C94.1916 120.857 93.9594 121.367 93.6655 121.601C93.153 122.012 92.6185 122.001 91.8669 121.589C94.5609 119.6 94.1231 117.237 92.8758 114.665C91.997 112.854 91.2157 111.005 90.1389 109.291C89.2969 107.952 89.9376 106.554 90.3469 105.291C90.8069 103.881 90.6286 102.491 90.9097 101.112C90.7739 101.084 90.635 101.052 90.4992 101.024C90.1353 102.239 89.6526 103.432 89.4284 104.672C88.7332 108.542 87.8898 112.368 86.3092 115.98C85.545 117.734 84.9174 119.68 82.7764 120.428C82.1445 120.652 82.2404 121.421 82.2314 121.974C82.2057 123.706 82.2553 125.438 82.2687 127.172C82.2777 128.63 82.164 130.07 81.4175 131.372C81.1194 131.895 80.9214 132.785 80.1455 132.537C79.1317 132.22 79.8724 131.417 80.0129 130.756C79.3388 130.664 79.0069 131.029 78.715 131.446C78.3822 131.932 77.9471 132.238 77.4104 131.849C76.6739 131.317 77.0357 130.459 76.9398 129.747C76.8587 129.144 77.2877 129.14 77.7442 129.287C78.4134 129.504 78.5314 128.994 78.6351 128.539C78.9306 127.244 79.4046 125.95 79.4443 124.644C79.623 118.809 81.903 113.645 84.4369 108.564C86.2352 104.955 88.2606 101.442 88.553 97.282C88.5767 96.9527 88.8409 96.5574 88.3764 96.4167C87.9462 96.2874 87.7986 96.6939 87.7028 97.0283C87.5757 97.4694 87.4789 97.9251 87.369 98.3721C85.6629 105.272 82.891 111.731 78.5626 117.36C75.7036 121.083 72.6904 124.753 69.1437 127.867C66.6336 130.069 63.5538 131.037 60.1711 131.322C56.2908 131.643 52.5819 131.54 49.1883 129.333C48.32 128.77 47.3603 129.242 46.5192 129.482C43.418 130.366 40.1875 130.577 37.0658 131.312C34.6212 131.889 32.2957 132.939 29.8708 133.615C26.7534 134.487 23.6459 135.534 20.3034 134.848C17.8591 134.347 15.5443 130.072 15.9892 127.564C16.9087 122.397 19.7509 118.073 21.8997 113.468C23.3668 110.331 25.7767 107.706 28.6331 105.591C30.8516 103.946 32.8278 102.013 35.0551 100.354C39.0364 97.3913 43.3149 95.1306 48.015 93.5766C53.424 91.7835 58.9722 90.4723 64.3882 88.68C67.0423 87.8003 69.7035 86.4964 72.7246 86.8988C69.4571 85.9581 66.2108 85.2737 63.1561 83.9204C62.4321 83.6005 61.7554 83.4151 61.1557 82.7323C60.7786 82.2954 59.632 82.4365 58.8386 82.4686C55.8482 82.588 52.8625 82.7544 49.876 82.9278C48.9977 82.9813 48.1312 83.0828 47.5348 82.2324L47.5281 82.3137L47.5571 82.3103ZM46.5842 127.947C46.2992 127.686 46.1003 127.479 45.8781 127.315C45.5359 127.054 45.218 126.8 45.5069 126.322C45.8728 125.714 46.3194 126.11 46.7051 126.28C47.0162 126.419 47.3074 126.631 47.5559 126.87C48.348 127.612 48.831 127.352 49.2535 126.466C49.9783 124.939 50.4204 123.359 50.6262 121.67C50.8316 120.014 50.3274 118.432 50.1305 116.764C50.8979 116.911 50.8836 117.449 51.0656 117.847C52.3145 120.519 51.2784 123.042 50.5542 125.583C50.4651 125.893 50.1113 126.206 50.5088 126.481C50.6367 126.572 50.9611 126.492 51.138 126.393C54.4781 124.435 57.1941 122.074 57.4432 117.776C57.5355 116.194 57.6493 114.698 56.9625 113.233C56.8046 112.898 56.6648 112.506 56.2598 112.687C53.6265 113.855 50.519 114.052 48.4808 116.478C48.0186 117.027 47.7767 117.982 46.3567 117.828C48.0833 116.202 48.7239 114.069 51.1505 113.378C55.6816 112.089 59.7917 109.889 63.399 106.804C63.7875 106.471 64.2581 106.194 64.7353 106.008C67.6623 104.834 70.1128 102.85 72.7339 101.184C77.8166 97.9567 82.0476 93.6647 86.2466 89.3722C86.6114 89.0003 87.1094 88.6202 86.8063 88.0498C86.4896 87.4454 85.8574 87.53 85.2631 87.5979C84.6978 87.6624 84.3566 88.073 83.9304 88.3657C78.9632 91.7255 74.125 95.3087 68.9744 98.3667C65.8929 100.2 63.0045 102.257 60.055 104.261C56.3243 106.794 53.3718 110.436 48.9881 112.03C48.73 112.123 48.5367 112.381 48.2987 112.54C46.1283 114.059 44.7009 116.201 43.2133 118.339C41.6697 120.551 40.3471 122.967 38.2304 124.768C38.332 124.245 38.4944 123.751 38.7875 123.353C41.1612 120.166 43.468 116.942 45.2965 113.404C45.5423 112.928 45.9074 112.638 46.422 112.41C47.8768 111.751 49.3996 111.146 50.6837 110.226C54.524 107.474 58.3161 104.652 62.0253 101.723C65.1238 99.2741 68.9142 97.9948 72.0105 95.5349C74.1697 93.8213 76.5033 92.2832 78.9008 90.9175C80.9676 89.7387 82.7205 88.1881 84.656 86.832C83.1798 86.6137 81.888 86.9437 80.6859 87.6672C75.7684 90.6332 70.8706 93.6409 65.9294 96.5682C62.5677 98.5553 59.0783 100.337 55.828 102.517C55.5473 102.703 54.859 102.723 55.2034 103.306C56.2089 105.019 54.6033 104.609 54.0666 104.53C53.1512 104.397 52.642 104.526 51.8545 105.162C50.0314 106.647 48.3592 108.351 46.2362 109.465C44.7633 110.24 43.2688 111.045 41.9775 112.078C37.2776 115.84 33.3741 120.423 29.295 124.813C28.1631 126.027 27.2859 127.488 26.2915 128.831C26.111 129.073 25.9002 129.3 25.5831 129.095C25.2558 128.886 25.3942 128.582 25.5496 128.341C25.7676 128.001 26.0312 127.695 26.2654 127.367C27.7675 125.256 29.5871 123.432 31.3272 121.529C34.4047 118.171 37.2834 114.605 41.0309 111.938C44.3583 109.571 47.7186 107.255 51.1364 105.022C52.3157 104.253 51.9407 103.941 51.0521 103.368C48.591 101.782 45.6617 102.324 43.0243 101.541C42.4148 101.361 42.0006 101.955 41.6291 102.408C40.5657 103.703 39.5471 105.039 38.4196 106.275C37.0852 107.736 36.4536 109.685 34.8452 111.307C35.0612 109.992 34.8817 108.894 33.5673 109.8C32.7883 110.341 31.9038 110.812 31.2248 111.522C28.1083 114.766 25.6142 118.426 23.865 122.581C23.6922 122.988 23.8249 123.862 23.0363 123.516C22.4234 123.25 22.7587 122.488 23.0097 122.141C23.6907 121.188 23.1447 120.844 22.4005 120.457C20.5159 119.484 19.4821 119.893 18.8991 121.937C18.3617 123.82 17.8958 125.729 17.3896 127.619C16.6039 130.563 18.714 133.969 22.1729 133.93C24.7308 133.899 27.1964 133.324 29.5436 132.556C34.0256 131.089 38.4668 129.577 43.1983 129.135C44.3474 129.029 45.4838 128.883 46.5903 127.955L46.5842 127.947ZM137.242 55.0199C139.229 55.8383 141.106 56.3357 142.642 57.351C143.671 58.0309 144.145 57.7514 144.863 57.2133C146.295 56.1402 147.26 54.5795 148.769 53.5732C149.526 53.0686 148.982 52.6464 148.458 52.2731C147.793 51.7998 146.716 52.0391 146.21 50.9537C147.251 50.6279 148.086 50.7795 148.927 51.2428C149.592 51.6089 150.249 51.6702 150.72 50.8795C152.627 47.7124 153.888 44.2211 155.42 40.8888C156.114 39.3726 156.323 37.6309 157.635 36.3532C157.932 36.0656 158.28 35.5667 158.023 35.1128C157.731 34.5973 157.185 34.9892 156.747 34.9553C156.305 34.9175 156.023 35.257 155.663 35.4223C153.515 36.3909 151.264 37.0464 148.657 37.7499C152.039 35.8618 155.343 34.7248 158.658 33.6177C159.132 33.4595 159.09 33.1935 159.166 32.8745C159.652 30.7533 159.158 28.6622 158.983 26.5649C158.928 25.8721 158.542 25.5055 157.827 25.5975C156.247 25.8019 154.623 25.8186 153.236 26.7687C152.313 27.4024 151.251 27.6614 150.18 27.9407C148.903 28.2724 147.673 28.7067 146.57 29.5178C144.391 31.1325 142.193 32.7055 140.191 34.5569C139.37 35.3212 138.404 35.8103 140.02 36.6749C140.315 36.8335 140.633 37.113 140.39 37.5109C140.115 37.9656 139.689 37.8583 139.324 37.6337C138.89 37.3682 138.646 36.7517 138.063 36.7853C135.605 36.936 133.09 36.6545 130.737 37.6937C130.283 37.8936 129.957 38.1025 129.89 38.662C129.486 41.9758 128.895 45.2767 128.704 48.603C128.619 50.0961 128.053 50.8783 126.903 51.5228C126.404 51.8027 125.913 52.1265 125.48 52.5005C121.518 55.9049 118.048 59.8286 113.846 63.0063C110.186 65.7772 106.917 69.069 103.722 72.3916C102.731 73.4274 101.895 74.615 100.707 76.0761C104.895 74.7041 106.966 71.2576 110.24 69.3953C108.72 70.8538 107.201 72.3123 105.681 73.7709C106.681 73.1469 107.847 73.0796 108.814 72.38C111.199 70.6557 113.076 68.3813 115.392 66.6089C117.297 65.156 119.483 63.9993 121.132 62.3071C123.139 60.2421 125.346 58.3773 127.264 56.2225C127.468 55.9946 127.867 55.8878 128.195 55.8362C131.164 55.3784 134.04 54.4981 136.978 53.9435C138.588 53.6394 139.934 52.6268 141.729 52.2995C140.635 53.9796 138.818 54.0005 137.245 55.0238L137.242 55.0199ZM130.367 32.1892C128.666 33.1855 127.011 34.1019 125.831 35.6391C122.725 39.68 119.598 43.7113 116.465 47.7346C112.997 52.1835 110.774 57.4039 107.513 61.9897C105.543 64.7559 103.834 67.7122 102 70.5813C101.088 72.0128 100.162 73.4356 99.1018 75.07C101.106 74.9548 101.604 73.3818 102.59 72.4523C106.603 68.6651 110.615 64.899 114.977 61.488C118.092 59.0519 120.724 55.9942 123.822 53.5273C126.029 51.7697 127.357 49.6797 127.9 47.0193C128.335 44.8738 128.637 42.7046 128.985 40.5375C129.08 39.9314 129.441 39.1947 128.849 38.7593C128.313 38.3631 127.99 39.1403 127.542 39.3231C127.082 39.5151 126.571 39.6007 126.353 39.066C126.144 38.5431 126.712 38.3433 127.039 38.2667C130.381 37.4559 129.491 34.3469 130.371 32.1861L130.367 32.1892ZM106.748 89.6075C107.472 90.1811 108.586 89.9893 108.384 90.9961C108.228 91.7766 107.426 91.3968 106.9 91.4305C105.832 91.4922 106.168 91.999 106.483 92.5602C106.827 93.1751 106.904 94.1813 106.063 93.9074C103.921 93.2158 104.172 94.3405 104.344 95.673C104.373 95.891 104.13 96.2068 103.926 96.3776C103.632 96.612 103.329 96.8666 103.523 97.2233C104.141 98.387 104.729 99.5863 105.511 100.635C105.988 101.274 106.219 100.003 106.764 100.215C107.084 100.341 107.383 100.521 107.698 100.657C108.281 100.902 108.386 101.741 109.191 101.821C109.44 100.466 109.933 98.8782 111.207 98.6067C113.475 98.1213 115.3 97.3334 116.398 95.2001C116.545 94.908 116.912 94.6934 117.287 94.7765C117.512 94.8299 117.684 95.0587 117.559 95.3144C117.102 96.2462 117.274 97.4824 115.956 97.9983C115.201 98.2924 114.4 98.7807 114.096 99.689C113.966 100.069 113.654 100.273 113.282 100.161C110.995 99.4623 112.291 101.026 112.377 101.676C112.445 102.188 113.24 102.846 112.52 103.176C110.909 103.913 112.005 104.655 112.436 105.284C112.886 105.937 113.559 106.436 114.115 107.014C114.727 107.655 115.28 109.104 115.029 109.197C113.772 109.678 114.606 110.565 114.433 111.347C114.045 110.627 113.685 110.164 112.938 110.762C112.314 111.266 112.459 111.731 112.874 112.24C113.468 112.965 113.662 114.711 115.188 113.146C115.283 113.048 115.721 113.228 115.974 113.342C116.261 113.475 116.726 113.526 116.675 113.255C116.324 111.529 117.888 111.222 118.757 110.682C120.387 109.676 121.631 108.108 123.258 107.303C124.859 106.504 124.661 106.036 123.908 104.813C121.936 101.617 119.938 98.422 118.28 95.0589C117.176 92.8265 115.725 90.9647 114.011 89.2556C112.6 87.8452 110.771 87.7039 108.866 87.66C107.32 87.6223 107.748 89.1871 106.755 89.6084L106.748 89.6075ZM36.3557 100.804C36.5832 100.982 36.6837 101.12 36.7536 101.104C38.6617 100.702 40.569 100.306 42.4613 99.8593C42.9436 99.7451 43.4203 99.5908 43.7108 100.063C44.2772 100.981 45.1767 100.873 46.0206 100.923C47.5949 101.014 49.1785 101.174 50.5372 101.985C52.3281 103.05 53.7665 103.228 55.6604 101.835C58.2387 99.9417 61.2099 98.5876 64.0024 96.9788C70.2745 93.355 76.0319 88.8555 82.7423 85.9763C82.9463 85.8877 83.3081 85.8226 83.172 85.2875C82.3375 85.5038 81.4952 85.669 80.6927 85.9428C77.2615 87.121 73.8859 88.5098 70.1277 88.1465C69.5774 88.0914 68.9697 88.2648 68.4377 88.462C64.3345 89.9841 60.0771 91.0295 55.9104 92.3471C52.0928 93.5587 48.1574 94.4304 44.4682 96.0118C41.5873 97.2451 38.8867 98.8333 36.3535 100.793L36.3557 100.804ZM70.0012 125.514C72.8649 122.378 75.6338 119.399 78.0572 116.129C81.2945 111.758 83.2996 106.764 85.2703 101.758C86.2837 99.1889 86.3734 96.3534 87.458 93.7863C87.8643 92.8302 88.2566 91.8724 88.7578 90.9569C88.9758 90.5594 89.1145 89.9696 88.622 89.7111C88.1265 89.4486 88.0191 90.0458 87.7814 90.3444C86.2219 92.2587 84.5935 94.1251 83.092 96.0896C81.1666 98.6114 78.9368 100.913 77.1863 103.521C75.1658 106.541 73.1212 109.555 70.9057 112.423C69.6296 114.073 68.4057 115.479 69.3483 117.691C69.4693 117.978 69.3124 118.373 69.2971 118.721C69.2141 120.625 69.1241 122.528 69.0631 124.428C69.0495 124.819 69.0367 125.26 69.3893 125.551C69.68 125.795 69.9189 125.572 70.0012 125.514ZM120.621 110.91C120.904 111.635 121.928 111.418 121.791 112.05C121.378 113.945 122.748 115.139 123.409 116.612C123.618 117.078 124.124 117.884 123.685 117.965C122.408 118.207 122.072 120.022 120.523 119.506C120.619 120.496 121.327 121.4 120.491 122.106C119.656 122.811 118.856 121.756 117.981 121.732C118.183 123.725 118.426 124.317 119.685 125.465C120.377 126.095 121.169 126.674 121.447 125.094C121.539 124.559 121.957 124.476 122.403 124.276C123.995 123.555 124.764 121.644 126.625 121.247C126.654 121.243 126.618 121.024 126.646 120.914C126.885 119.979 127.393 120.233 127.904 120.654C128.502 121.148 128.898 121.805 129.058 122.55C129.346 123.887 129.866 125.063 130.926 125.972C131.097 126.119 131.216 126.337 131.327 126.537C131.547 126.943 131.83 127.447 131.366 127.781C130.942 128.085 130.662 127.585 130.386 127.311C129.89 126.827 129.406 126.327 128.91 125.843C128.63 125.572 128.326 125.122 127.908 125.491C127.558 125.801 127.726 126.254 128.018 126.573C128.902 127.549 129.462 128.834 130.678 129.502C131.155 129.766 131.45 130.121 131.128 130.605C130.758 131.159 130.322 130.761 129.938 130.526C129.242 130.096 128.708 129.489 128.166 128.881C127.781 128.451 127.51 127.766 126.69 127.927C126.473 129.25 127.477 129.759 128.259 130.415C129.19 131.189 129.211 133.399 128.298 134.013C130.182 134.422 130.433 134.214 129.927 132.654C129.813 132.311 129.689 131.963 130.031 131.71C130.448 131.405 130.767 131.767 131.13 131.916C131.602 132.115 131.773 133.112 132.638 132.339C133.472 131.59 134.437 130.905 135.463 130.47C137.942 129.421 138.012 129.291 136.758 126.915C135.845 125.181 135.085 123.36 134.202 121.609C131.912 117.081 129.572 112.578 126.457 108.531C125.861 107.763 125.458 107.701 124.493 108.019C122.82 108.569 122.234 110.324 120.622 110.903L120.621 110.91ZM95.5361 87.4541C95.3825 86.5203 95.1676 85.5895 94.2142 85.2193C93.2234 84.8335 93.5081 84.1622 93.8337 83.5353C94.0125 83.1935 94.4321 82.9821 94.6179 82.6412C94.8699 82.173 94.7715 81.3105 95.6248 81.5681C96.3129 81.7763 97.3397 81.8487 97.0952 83.0787C97.0139 83.4971 97.28 83.7664 97.7131 83.646C99.139 83.2436 99.3753 81.8232 100.014 80.7822C100.486 80.0095 99.4611 80.1517 99.1572 79.8419C98.9197 79.6012 98.7763 79.3509 99.0662 79.1196C100.1 78.2856 99.2321 77.3224 98.7976 77.114C97.6962 76.5858 97.2915 75.2632 95.9569 74.9984C95.1101 74.8309 94.7842 73.7897 94.2825 73.0942C94.1184 72.8663 94.015 72.5532 94.3313 72.3395C94.6286 72.1341 94.8613 72.3849 95.1109 72.5021C95.6816 72.7634 95.7912 73.7631 96.7233 73.5663C96.0647 71.7366 95.2853 70.9775 93.7673 70.7789C92.3407 70.5918 91.5365 71.5584 90.6037 72.4409C88.7785 74.1681 87.654 76.7409 84.7774 77.2603C84.0388 77.3958 83.323 77.8878 83.0737 78.8171C82.6041 80.5582 83.7276 83.2895 85.5963 84.3895C84.9013 82.8481 84.1437 81.4631 84.8149 79.8511C84.9692 79.4777 84.9328 79.0302 85.4634 78.9864C86.0339 78.9369 86.3759 79.3122 86.4378 79.7843C86.65 81.472 87.9842 82.5618 88.6428 84.0237C89.1651 85.1789 90.3193 86.0532 91.2017 87.0432C91.6776 87.5747 92.3085 87.4149 92.8134 87.2071C93.5513 86.9073 92.9777 86.4706 92.7842 86.1069C92.6281 85.8157 92.6003 85.5265 92.877 85.3435C93.228 85.1091 93.5249 85.3038 93.7791 85.5823C94.3608 86.2093 94.9474 86.8262 95.5331 87.4501L95.5361 87.4541ZM64.5127 118.082C63.6058 118.957 62.7611 119.65 61.7957 120.196C61.311 120.471 60.9027 120.82 61.2568 121.439C62.0741 122.86 61.6583 124.401 61.5749 125.855C61.2887 130.759 61.2324 130.752 65.829 128.631C66.8568 128.157 68.0645 127.531 68.1149 126.451C68.2627 123.184 68.5415 119.897 68.1649 116.624C68.0626 115.708 67.5246 115.668 66.8365 116.253C66.0476 116.929 65.2034 117.533 64.5066 118.074L64.5127 118.082ZM139.713 69.7869C140.13 69.4251 140.675 69.351 140.556 68.8217C140.456 68.3662 140.011 68.2742 139.613 68.1956C137.351 67.7566 135.119 67.2108 132.988 66.2955C132.646 66.1488 132.159 66.1517 131.797 66.274C129.507 67.0424 127.228 67.8408 124.962 68.673C124.093 68.9921 123.901 69.4073 124.784 70.0865C126.98 71.7887 129.575 72.541 132.16 73.3385C132.508 73.4431 132.834 73.4307 133.156 73.257C135.388 72.0704 137.627 70.8918 139.713 69.7869ZM124.107 60.4678C123.222 61.2813 122.392 62.0839 121.513 62.8231C121.03 63.2301 120.782 63.6131 121.375 64.0594C123.148 65.3867 125.052 66.4019 127.371 66.1693C129.82 65.9246 132.004 64.8892 134.142 63.7693C134.563 63.5509 135.354 63.4256 135.23 62.8492C135.116 62.3098 134.637 61.8565 134.016 61.5389C132.239 60.6217 130.312 60.1502 128.405 60.0382C126.997 59.9571 125.325 58.8568 124.106 60.4748L124.107 60.4678ZM102.528 79.4526C101.851 79.7565 101.765 80.2351 101.96 80.8955C102.176 81.6228 102.641 81.7565 103.293 81.5994C103.459 81.5596 103.639 81.5466 103.805 81.5068C106.768 80.7804 109.793 80.2224 112.682 79.2616C115.109 78.4568 117.731 78.5982 120.066 77.5032C120.411 77.3431 121.002 77.4176 120.942 76.8672C120.897 76.4078 120.388 76.3079 119.984 76.2785C118.215 76.1482 116.611 75.553 115.121 74.6221C113.936 73.8797 112.885 74.0544 111.79 74.8915C110.833 75.628 109.798 76.3297 108.609 76.6119C106.37 77.1439 104.788 79.0125 102.528 79.4526ZM64.1106 116.427C65.6996 115.581 67.1804 114.857 68.4824 113.682C71.3018 111.151 71.6815 108.084 71.5147 104.706C71.4721 103.825 71.121 103.381 70.1872 103.96C69.2067 104.568 68.2017 105.145 67.1914 105.707C65.4281 106.688 63.6694 107.578 64.8511 110.188C65.1725 110.896 64.9424 111.899 64.8241 112.752C64.6539 113.988 64.3541 115.204 64.1066 116.43L64.1106 116.427ZM140.634 60.2161C142.694 58.6935 142.787 58.3802 141.496 57.7137C136.802 55.2857 132.114 55.3267 127.44 57.7734C127.096 57.9515 126.594 58.0811 126.728 58.6052C126.862 59.1292 127.399 58.8969 127.756 59.0063C129.989 59.7094 132.376 59.7925 134.477 61.1112C135.182 61.5538 136.183 62.4266 137.319 61.8625C138.497 61.2717 139.841 61.0091 140.629 60.2262L140.634 60.2161ZM115.625 72.9247C115.266 73.1331 115.321 73.4329 116.073 74.01C117.987 75.4873 120.612 75.2647 122.48 76.8219C122.652 76.9614 123.139 76.7549 123.467 76.6713C125.53 76.1492 127.365 74.9411 129.514 74.6692C129.786 74.6357 130.117 74.531 130.113 74.1661C130.108 73.8083 129.771 73.7587 129.509 73.6578C127.898 73.0367 126.062 72.6087 124.908 71.3666C122.939 69.2466 121.069 70.0573 119.089 71.0292C118.057 71.5384 117.068 72.128 115.625 72.9247ZM87.2927 73.4878C86.3101 72.0744 85.3204 70.6601 84.3528 69.2415C84.0908 68.8548 83.377 68.4254 83.948 67.976C84.4905 67.555 85.0164 68.1429 85.3676 68.5872C85.7218 69.0355 85.988 69.5584 86.3018 70.0445C86.8389 70.8838 87.4754 71.6141 88.4764 72.3154C88.4197 71.9154 88.4379 71.7427 88.3756 71.6134C87.4854 69.7794 86.1513 68.2074 85.7681 66.0624C85.4444 64.2392 82.995 62.873 81.7432 63.5652C80.5948 64.2026 79.4867 64.9737 78.7062 66.0933C77.6993 67.5344 78.4106 70.6173 79.9609 71.4379C80.0914 71.508 80.359 71.5667 80.4022 71.5079C81.3064 70.286 81.6338 71.5418 82.0034 71.9527C82.7713 72.8032 83.313 73.8609 84.3109 74.5012C84.6575 74.727 85.1527 74.8502 85.4375 74.5468C85.8217 74.1345 85.3301 73.8117 85.0812 73.5482C84.1693 72.5938 82.9956 71.8742 82.4256 70.6165C82.2747 70.2831 81.8088 69.8707 82.2426 69.5468C82.7555 69.1615 83.0749 69.6875 83.3216 70.0544C84.3243 71.5346 85.6668 72.6433 87.2958 73.4917L87.2927 73.4878ZM57.2377 122.408C59.3837 120.742 61.216 119.327 63.04 117.892C63.2023 117.766 63.3988 117.398 63.3518 117.346C62.3833 116.245 63.3975 115.369 63.5977 114.377C63.9199 112.756 64.3011 111.122 63.8581 109.423C63.5552 108.256 63.0899 108.122 62.228 108.867C60.9648 109.962 59.6761 111.032 58.1492 111.753C57.4161 112.1 57.5202 112.521 57.8611 113.132C59.0982 115.331 58.7942 117.571 57.8793 119.785C57.5985 120.453 57.1785 121.064 57.2337 122.411L57.2377 122.408ZM49.7701 128.317C51.3915 129.253 52.9149 129.778 54.4754 130.121C56.2934 130.518 58.3486 130.592 59.8726 129.752C61.3082 128.961 60.1689 126.978 60.3889 125.545C60.4031 125.432 60.3861 125.312 60.3862 125.198C60.3935 124.177 60.9002 122.737 60.0035 122.285C59.0735 121.814 58.1253 123.045 57.2434 123.609C54.8417 125.149 52.6191 126.969 49.7701 128.317ZM28.3029 106.907C28.0623 107.398 27.2216 107.721 27.5847 108.467C27.786 108.881 28.3585 109.071 28.8058 108.838C30.1864 108.116 31.6031 108.495 33.0329 108.514C34.1208 108.526 35.6604 109.121 36.2589 108.085C37.4801 105.964 38.9947 104.123 40.5492 102.276C40.9445 101.804 40.9209 101.283 40.1681 101.474C37.6743 102.102 34.9779 102.184 32.7724 103.642C31.2531 104.643 30.0049 106.043 28.309 106.915L28.3029 106.907ZM137.558 35.2678C139.768 33.5533 141.913 31.7487 144.207 30.1591C145.604 29.1888 145.828 28.0133 145.443 26.586C145.168 25.569 145.071 24.2102 143.737 24.0598C142.218 23.8933 140.758 24.595 140.091 25.9182C138.642 28.8001 138.129 32.0144 137.558 35.2678ZM138.216 26.1425C136.678 27.1201 135.481 27.9728 134.203 28.6795C132.502 29.6188 131.24 30.7633 131.105 32.8787C131.034 34.0057 129.839 35.3586 130.461 36.1193C131.179 36.9957 132.645 35.902 133.8 35.9832C135.131 36.0726 136.148 35.4865 136.46 34.2864C137.133 31.728 137.588 29.1101 138.212 26.1455L138.216 26.1425ZM143.268 67.3385C144.021 66.3547 145.004 65.2178 145.675 63.8594C146.001 63.2005 145.652 62.9135 145.033 62.7783C143.904 62.5252 142.774 62.2219 141.914 61.399C141.384 60.8964 141.089 61.3414 140.729 61.5568C139.002 62.5927 137.286 63.6515 135.559 64.6874C135.269 64.8616 134.824 64.902 134.805 65.3103C134.779 65.825 135.277 65.902 135.633 66.0505C137.723 66.8964 139.982 67.1098 142.125 67.7623C142.483 67.8717 142.808 67.7912 143.264 67.3416L143.268 67.3385ZM83.2062 94.5609C83.0933 94.4645 82.9845 94.365 82.8716 94.2687C82.7212 94.3283 82.5462 94.3562 82.4336 94.4563C79.5469 96.9819 77.0192 99.9457 73.4411 101.638C72.8333 101.925 71.8583 102.434 72.0802 103.252C72.5675 105.024 72.5405 106.796 72.4457 108.652C75.5643 103.523 79.5273 99.1476 83.2022 94.564L83.2062 94.5609ZM116.698 66.42L116.665 66.3764C115.936 66.9418 115.205 67.5032 114.479 68.0725C114.162 68.3183 113.688 68.7692 114.154 69.0101C115.139 69.5273 116.066 70.7872 117.198 70.3014C119.422 69.3496 121.739 68.6559 123.941 67.6763C124.21 67.5566 124.457 67.3771 124.383 67.0285C124.309 66.6548 123.97 66.6834 123.696 66.6418C122.772 66.4966 121.742 66.306 121.171 65.6267C119.791 63.9883 118.687 64.6169 117.512 65.7761C117.267 66.0167 116.969 66.204 116.695 66.416L116.698 66.42ZM152.132 24.2185C150.833 22.3973 148.895 22.4672 147.007 22.6005C145.882 22.6801 145.216 23.2034 145.872 24.5469C146.269 25.3614 146.421 26.3093 146.596 27.2137C146.746 28.0112 147.111 28.2037 147.788 27.8176C148.908 27.1837 150.148 26.9187 151.371 26.5728C153.137 26.0776 153.245 25.6197 152.132 24.2185ZM101.01 77.0787C100.651 77.262 100.619 77.4831 100.671 77.7218C100.739 78.0375 100.969 78.2773 101.27 78.2403C101.72 78.1827 102.153 78.0122 102.591 77.8817C107.096 76.5425 110.812 73.5321 115.205 71.9502C115.575 71.8148 115.821 71.6243 115.585 71.1981C115.175 70.457 112.698 70.0696 112.042 70.6047C109.373 72.7899 106.66 74.9016 103.473 76.3214C102.64 76.695 101.901 77.3196 101.01 77.0787ZM27.4281 114.551C26.3515 114.308 25.4133 114.015 24.4521 113.904C23.7551 113.824 23.0102 114.065 22.6552 114.728C22.1125 115.745 21.6085 116.796 21.2526 117.891C20.7754 119.352 22.2726 119.262 22.9481 119.798C23.5392 120.265 24.0965 120.321 24.4249 119.445C25.1184 117.6 26.3917 116.085 27.4241 114.554L27.4281 114.551ZM25.7056 110.083C25.3267 110.879 23.8254 111.454 24.153 112.538C24.3724 113.262 25.7859 112.958 26.6746 113.049C26.9036 113.074 27.1933 113.014 27.3466 113.13C28.2025 113.792 28.662 113.264 29.1739 112.632C29.8254 111.828 30.5378 111.079 31.2248 110.304C31.4079 110.099 31.7035 109.908 31.5658 109.583C31.3896 109.168 30.9869 109.246 30.6747 109.342C29.4369 109.725 28.182 109.678 26.9219 109.558C26.4952 109.515 26.1237 109.6 25.7064 110.076L25.7056 110.083ZM76.7723 75.1113C77.9305 74.7073 78.6057 75.8962 79.6437 75.7378C79.1373 74.5702 78.0213 74.1294 77.1022 73.3455C77.6031 73.1408 77.9496 72.9988 78.541 72.7555C76.8849 72.2644 75.6121 72.1039 74.7402 73.5227C74.0978 74.5668 73.85 75.6536 74.621 76.7617C74.851 77.0907 75.1699 77.6489 75.5025 77.4479C76.6408 76.7485 77.7898 77.5507 79.0146 77.4122C78.5649 76.2768 77.2705 76.1457 76.7622 75.1065L76.7723 75.1113ZM153.434 23.9755C153.934 26.0745 155.577 24.3172 156.67 24.6551C157.094 24.7835 158.345 24.4592 158.329 23.6284C158.314 22.8407 157.532 22.217 156.668 22.1259C155.589 22.0113 154.495 22.0484 153.409 22.0221C153.074 22.0156 152.665 21.889 152.479 22.262C152.292 22.642 152.727 22.8433 152.877 23.1265C153.009 23.379 153.188 23.6086 153.424 23.9707L153.434 23.9755ZM144.817 58.4862C144.235 58.9379 143.79 59.2961 143.336 59.6353C143.053 59.8425 142.663 60.1326 142.949 60.4366C143.78 61.3272 144.965 61.4731 146.083 61.557C147.042 61.6315 147.094 60.6522 147.097 60.0597C147.101 59.1494 147.603 57.9231 146.536 57.3993C145.632 56.9531 145.436 58.3678 144.824 58.4871L144.817 58.4862ZM105.468 104.944C104.704 102.644 104.825 100.013 102.743 98.2286C102.365 97.9059 102.06 97.5781 101.556 97.8681C100.951 98.2169 101.322 98.6709 101.49 99.0672C102.419 101.277 103.921 103.106 105.468 104.937L105.468 104.944ZM90.5954 68.4571C91.0554 67.0471 90.1894 64.6805 89.2541 64.1946C88.9822 64.0567 88.6996 64.0032 88.4502 64.1968C88.0859 64.4795 88.2618 64.8124 88.443 65.1031C89.1038 66.1509 89.7805 67.1864 90.5954 68.4571ZM113.556 115.834C113.163 113.912 111.763 112.829 110.412 111.708C110.185 111.522 109.912 111.334 109.662 111.567C109.528 111.69 109.502 111.983 109.503 112.197C109.512 112.806 109.713 113.481 110.31 113.588C111.751 113.859 112.607 114.864 113.553 115.83L113.556 115.834ZM84.5152 116.922C85.6464 115.543 86.2094 113.939 86.6939 112.307C86.8059 111.928 86.8623 111.453 86.313 111.333C85.8612 111.234 85.7768 111.648 85.6547 111.965C85.0253 113.557 84.6907 115.219 84.5112 116.925L84.5152 116.922ZM82.3904 117.257C82.5737 117.306 82.76 117.358 82.9432 117.406C83.5954 115.181 84.2404 112.954 84.8925 110.729C83.6169 112.772 82.4722 114.853 82.3904 117.257ZM100.54 102.583C100.919 103.171 101.103 103.948 101.85 103.495C102.615 103.035 101.995 102.546 101.707 102.077C101.286 101.395 100.896 100.696 100.512 99.9975C100.402 99.7978 100.325 99.5274 100.064 99.5838C99.7666 99.6499 99.5553 99.909 99.6086 100.223C99.7588 101.128 99.9829 102.013 100.543 102.587L100.54 102.583ZM119.263 79.5344C117.377 79.4501 115.533 79.6248 113.91 80.7381C115.792 80.8004 117.603 80.5752 119.263 79.5344ZM109.119 86.0168C107.524 85.1548 106.339 85.8269 105.158 85.9315C105.017 85.9459 104.797 86.2432 104.797 86.4146C104.795 86.7966 105.11 86.8185 105.407 86.7595C106.502 86.544 107.598 86.3215 109.119 86.0168ZM129 137.109C128.399 136.04 127.423 135.821 126.73 135.255C126.439 135.018 126.04 135.003 125.844 135.397C125.691 135.706 125.92 135.96 126.201 136.077C127.025 136.428 127.7 137.167 129 137.109ZM100.531 104.608C99.9312 103.925 99.8332 103.03 99.3377 102.343C99.1736 102.115 98.9809 101.858 98.6502 101.988C98.3565 102.108 98.1873 102.43 98.3018 102.683C98.7262 103.623 98.9905 104.756 100.528 104.604L100.531 104.608ZM115.791 82.5648C117.132 82.4124 118.619 82.9393 119.727 81.7432C118.351 81.7267 116.981 81.7433 115.791 82.5648Z" fill="black"/>
</g>
</svg>
