<svg width="46" height="72" viewBox="0 0 46 72" fill="none" xmlns="http://www.w3.org/2000/svg">
<path d="M10.1067 0.822442C10.3359 0.767805 10.5666 0.911933 10.6163 1.13998L10.6201 1.14608C10.8369 2.34437 11.3512 3.47491 12.072 4.46731C12.7886 5.46659 13.72 6.31398 14.7272 7.05857C16.7465 8.54891 19.0501 9.65258 21.3718 10.6769C23.6984 11.7023 26.0544 12.6795 28.3883 13.7301C30.7139 14.7944 33.0198 15.9561 35.1764 17.3943C36.2511 18.1178 37.2972 18.8974 38.2669 19.7718C38.7573 20.2076 39.2172 20.6626 39.6771 21.1515C39.8912 21.3911 40.1069 21.6127 40.3206 21.8652C40.5314 22.1196 40.7532 22.3714 40.9578 22.6296C42.5952 24.6827 43.8842 27.0608 44.6002 29.6499C44.9492 30.9436 45.1591 32.2865 45.1938 33.6416C45.2057 34.9941 45.0734 36.3606 44.7377 37.6805C44.4138 39.0058 43.8895 40.2827 43.2108 41.4694C42.874 42.0633 42.4929 42.6341 42.0766 43.1759C41.6714 43.7151 41.0471 44.2302 40.4299 44.2692C39.9557 44.2992 39.6323 43.784 39.4719 43.515C28.9956 25.7921 14.4067 27.6883 9.59448 10.1874C9.73246 10.6915 9.69844 11.4226 9.84178 12.3143C10.0101 13.2796 10.2657 14.445 10.6896 15.7428C11.1115 17.0376 11.6996 18.4618 12.4698 19.9458C13.237 21.4318 14.1851 22.9827 15.2886 24.5508C16.3981 26.1151 17.6538 27.7023 19.0225 29.2867C21.7617 32.4584 24.9446 35.6194 28.1454 38.7818C31.3462 41.9443 34.5726 45.1204 37.3784 48.3778C38.7757 50.0079 40.0789 51.6504 41.1966 53.3158C42.3236 54.9754 43.2742 56.6522 43.9941 58.2996C44.728 59.9425 45.223 61.5568 45.5022 63.0305C45.7863 64.5052 45.8688 65.8346 45.8488 66.9266C45.8248 67.4772 45.8139 67.9472 45.7587 68.3941C45.7317 68.615 45.7081 68.8211 45.689 69.0073C45.6754 69.1008 45.668 69.1905 45.6567 69.2741L45.6201 69.4798C45.53 69.9996 45.4844 70.2789 45.4844 70.2789C45.4776 70.3087 45.4715 70.3465 45.4647 70.3763C45.2352 71.3916 44.2281 72.0281 43.2098 71.8004C42.1945 71.5709 41.558 70.5638 41.7856 69.5455C41.7856 69.5455 41.848 69.2726 41.9629 68.7584C41.9777 68.6939 41.9936 68.6245 42.0095 68.555C42.0181 68.4943 42.0298 68.4317 42.0377 68.363C42.0603 68.2298 42.0833 68.0837 42.1116 67.9257C42.169 67.6177 42.2002 67.2071 42.2409 66.7778C42.3028 65.9017 42.2923 64.8289 42.1242 63.6C41.9592 62.3692 41.6157 60.9827 41.0489 59.5112C40.4942 58.032 39.7181 56.4709 38.7512 54.8765C37.7934 53.2765 36.6406 51.6501 35.3764 50.0087C35.249 49.8464 35.1167 49.683 34.9874 49.5177L34.8731 49.5725C34.5121 49.7353 34.1114 49.8891 33.7337 50.0456C32.9647 50.3371 32.2018 50.5908 31.4102 50.7988C29.8369 51.217 28.2106 51.4561 26.5759 51.4922C24.9431 51.5314 23.306 51.3607 21.7223 50.9907C20.1356 50.6227 18.602 50.0684 17.1515 49.3556C14.2476 47.9319 11.6896 45.9085 9.53392 43.5646C7.37742 41.2127 5.60827 38.5369 4.23135 35.6871C2.85557 32.8323 1.86819 29.7974 1.32245 26.6807C0.778614 23.5671 0.677549 20.3668 1.10197 17.2317C1.52334 14.0986 2.48429 11.0262 3.98759 8.24232C5.48401 5.45423 7.52318 2.97559 9.9062 0.922801C9.95533 0.879211 10.0201 0.84703 10.0865 0.830875L10.1067 0.822442Z" fill="url(#paint0_linear_24_25)"/>
<defs>
<linearGradient id="paint0_linear_24_25" x1="10.831" y1="46.5581" x2="43.3349" y2="26.152" gradientUnits="userSpaceOnUse">
<stop stop-color="#258717"/>
<stop offset="1" stop-color="#48A418"/>
</linearGradient>
</defs>
</svg>
