<svg width="51" height="69" viewBox="0 0 51 69" fill="none" xmlns="http://www.w3.org/2000/svg">
<path d="M34.5 66L25 49L39 43.5L48.5 59L38 56L34.5 66Z" fill="#FF641A" stroke="black" stroke-width="2"/>
<path d="M1 57.5L10 43L24.5 48.5L15.5 65L11.5 55.5L1 57.5Z" fill="#FF641A" stroke="black" stroke-width="2" stroke-linecap="round" stroke-linejoin="round"/>
<path d="M49 25C49 38.2548 38.2548 49 25 49C11.7452 49 1 38.2548 1 25C1 13.4233 9.19658 3.76105 20.1029 1.5C21.6839 1.17224 23.3218 1 25 1C26.5381 1 28.0424 1.14469 29.5 1.42119C40.6039 3.52752 49 13.2832 49 25Z" fill="#FFDA2D"/>
<path d="M25 43C34.9411 43 43 34.9411 43 25C43 16.2113 36.7023 8.89571 28.3739 7.31586C27.2803 7.10841 26.1523 7 25 7C23.7427 7 22.5145 7.12906 21.3282 7.37499C13.1481 9.07086 7 16.3163 7 25C7 34.9411 15.0589 43 25 43Z" stroke="black" stroke-width="2"/>
<path d="M20.1029 1.49996C9.19658 3.76101 1 13.4233 1 25C1 38.2548 11.7452 49 25 49C38.2548 49 49 38.2548 49 25C49 13.2832 40.6039 3.52747 29.5 1.42114" stroke="black" stroke-width="2" stroke-linecap="round"/>
<circle cx="24.5" cy="1.5" r="1.5" fill="black"/>
<path d="M25 11.604L28.0742 18.9951C28.3622 19.6876 29.0134 20.1608 29.761 20.2207L37.7404 20.8604L31.6609 26.0681C31.0913 26.556 30.8426 27.3216 31.0166 28.0511L32.874 35.8376L26.0425 31.665C25.4025 31.274 24.5975 31.274 23.9575 31.665L17.126 35.8376L18.9834 28.0511C19.1574 27.3216 18.9087 26.556 18.3391 26.0681L12.2596 20.8604L20.239 20.2207C20.9866 20.1608 21.6378 19.6876 21.9258 18.9951L25 11.604Z" fill="#FF641A" stroke="black" stroke-width="2" stroke-linejoin="round"/>
</svg>
