<svg width="73" height="69" viewBox="0 0 73 69" fill="none" xmlns="http://www.w3.org/2000/svg">
<rect x="1" y="1.65967" width="70" height="53" rx="4" fill="#F3F3FB" stroke="#0D2C33" stroke-width="2"/>
<path d="M63 1.65967H68C69.6569 1.65967 71 3.00281 71 4.65967V8.65967C71 9.21195 70.5523 9.65967 70 9.65967H66C64.3431 9.65967 63 8.31652 63 6.65967V1.65967Z" fill="#AAD3E2"/>
<path d="M1 46.6597L5.35802 47.7492C6.37717 48.004 7.1888 48.7733 7.49775 49.7773L8.54106 53.1681C8.75551 53.8651 8.17592 54.5498 7.45311 54.4534L3.92181 53.9826C2.51153 53.7945 1.42729 52.6418 1.32593 51.2226L1 46.6597Z" fill="#AAD3E2"/>
<path d="M9.9082 2.48291L6.65613 1.14296C5.12422 0.511767 3.37067 1.24194 2.73948 2.77386L0.650178 7.84461C0.43978 8.35525 0.683173 8.93976 1.19381 9.15016L3.52129 10.1092C5.0532 10.7403 6.80675 10.0102 7.43795 8.47825L9.9082 2.48291Z" fill="#AAD3E2"/>
<path d="M71.4912 47.1588L70.4221 46.6223C69.8245 46.3225 69.144 46.2309 68.4884 46.362L68.0381 46.452C67.3661 46.5864 66.7604 46.9468 66.3217 47.4732L64.8036 49.2949C64.6022 49.5366 64.4401 49.8084 64.3232 50.1004L63.4277 52.337C63.1987 52.909 63.5365 53.55 64.1378 53.6845L66.4867 54.21C67.6955 54.4804 68.9462 53.9801 69.635 52.9507L70.1843 52.1297C70.3921 51.8191 70.5401 51.4724 70.6205 51.1074L71.4912 47.1588Z" fill="#AAD3E2"/>
<rect x="1" y="1.65967" width="70" height="53" rx="4" stroke="#0D2C33" stroke-width="2"/>
<path d="M10 1.65967C10 7.15967 7.1 9.75967 1.5 10.1597" stroke="#0D2C33" stroke-width="2"/>
<path d="M62 1.65967C62 7.15967 64.9 9.75967 70.5 10.1597" stroke="#0D2C33" stroke-width="2"/>
<path d="M63 54.1597C63 48.6597 65.9 46.0597 71.5 45.6597" stroke="#0D2C33" stroke-width="2"/>
<path d="M9.5 55.1597C9.5 49.6597 6.6 47.0597 1 46.6597" stroke="#0D2C33" stroke-width="2"/>
<path d="M14.5 10.6597H57.5" stroke="#0D2C33" stroke-width="2"/>
<path d="M21.5 16.6597H50" stroke="#0D2C33" stroke-width="2"/>
<path d="M23 28.6597H43.1125" stroke="#0D2C33" stroke-width="2"/>
<path d="M8.5 40.6597H32.5" stroke="#0D2C33" stroke-width="2"/>
<path d="M13 46.6597H27.5" stroke="#0D2C33" stroke-width="2"/>
<path d="M44 47H58V68L51 64.9375L44 68V47Z" fill="#ED8C4A"/>
<path d="M61.6934 32.0419L62.6773 31.8633L61.6934 32.0419C61.7633 32.427 61.9078 32.7947 62.119 33.1242L62.961 32.5849L62.119 33.1242L63.6821 35.5645C63.8693 35.8567 63.8916 36.2251 63.7411 36.5378L62.4838 39.1488C62.314 39.5015 62.2149 39.8839 62.1919 40.2746L62.0222 43.1677C62.0019 43.5141 61.8034 43.8252 61.4978 43.9897L58.9459 45.3631C58.6013 45.5486 58.2963 45.7997 58.0481 46.1023L56.2103 48.3431C55.9902 48.6114 55.6468 48.7464 55.3029 48.6999L52.4311 48.311C52.0432 48.2585 51.6489 48.2824 51.2702 48.3813L51.523 49.3488L51.2702 48.3813L48.4663 49.1139C48.1305 49.2016 47.7733 49.109 47.5225 48.8692L45.4277 46.8666C45.1448 46.5962 44.8117 46.3837 44.4472 46.2411L41.7482 45.1857C41.425 45.0593 41.1905 44.7744 41.1285 44.433L40.6109 41.5816C40.541 41.1965 40.3964 40.8288 40.1853 40.4992L38.6221 38.059C38.4349 37.7667 38.4126 37.3984 38.5632 37.0857L39.8204 34.4746C39.9902 34.122 40.0894 33.7396 40.1123 33.3488L39.114 33.2903L40.1123 33.3488L40.282 30.4558C40.3024 30.1094 40.5008 29.7983 40.8064 29.6338L43.3583 28.2604C43.7029 28.0749 44.008 27.8238 44.2562 27.5212L46.094 25.2804C46.314 25.0121 46.6575 24.877 47.0013 24.9236L49.8732 25.3125C50.261 25.365 50.6554 25.3411 51.034 25.2422L53.8379 24.5096C54.1737 24.4219 54.5309 24.5145 54.7817 24.7543L56.8765 26.7569C57.1594 27.0273 57.4925 27.2398 57.857 27.3824L60.556 28.4378C60.8792 28.5642 61.1138 28.8491 61.1757 29.1905L61.6934 32.0419Z" fill="#FFCA55" stroke="#0D2C33" stroke-width="2"/>
<path d="M44 47V68L51.2593 65.1679L58 68V47.2313" stroke="#0D2C33" stroke-width="2" stroke-linecap="round" stroke-linejoin="round"/>
<rect x="53" y="51" width="2" height="2" fill="#0D2C33"/>
<rect x="53" y="56" width="2" height="2" fill="#0D2C33"/>
<rect x="53" y="61" width="2" height="2" fill="#0D2C33"/>
<circle cx="51" cy="36.6597" r="6" fill="#64C1E2" stroke="#0D2C33" stroke-width="2"/>
</svg>
