<svg width="401" height="513" viewBox="0 0 401 513" fill="none" xmlns="http://www.w3.org/2000/svg">
<path opacity="0.05" d="M-32.9747 343.794C-32.7621 343.424 -32.379 343.183 -31.9528 343.153L44.0002 337.725C44.4735 337.691 44.9268 337.921 45.1791 338.323L82.9548 398.501C83.2071 398.903 83.2171 399.411 82.9809 399.822L45.0778 465.865C44.8651 466.236 44.482 466.476 44.0559 466.507L-31.8972 471.935C-32.3704 471.969 -32.8238 471.739 -33.076 471.337L-70.8518 411.159C-71.104 410.757 -71.1141 410.249 -70.8779 409.837L-32.9747 343.794Z" stroke="black" stroke-width="5"/>
<path opacity="0.05" d="M85.9025 243.904C86.1434 243.318 86.6596 242.891 87.2796 242.764L174.058 225.002C174.746 224.861 175.456 225.112 175.904 225.653L228.585 289.339C229.033 289.88 229.146 290.625 228.879 291.274L195.164 373.185C194.923 373.77 194.407 374.197 193.787 374.324L107.009 392.086C106.32 392.227 105.61 391.977 105.162 391.435L52.4812 327.749C52.0333 327.208 51.9205 326.463 52.188 325.814L85.9025 243.904Z" stroke="black" stroke-width="5"/>
<path opacity="0.05" d="M60.9025 63.9035C61.1434 63.3183 61.6596 62.8913 62.2796 62.7644L149.058 45.0022C149.746 44.8612 150.456 45.1115 150.904 45.653L203.585 109.339C204.033 109.88 204.146 110.625 203.879 111.274L170.164 193.185C169.923 193.77 169.407 194.197 168.787 194.324L82.0089 212.086C81.3205 212.227 80.6104 211.977 80.1625 211.435L27.4812 147.749C27.0333 147.208 26.9205 146.463 27.188 145.814L60.9025 63.9035Z" stroke="black" stroke-width="5"/>
<path opacity="0.05" d="M215.903 122.904C216.143 122.318 216.66 121.891 217.28 121.764L304.058 104.002C304.746 103.861 305.456 104.112 305.904 104.653L358.585 168.339C359.033 168.88 359.146 169.625 358.879 170.274L325.164 252.185C324.923 252.77 324.407 253.197 323.787 253.324L237.009 271.086C236.32 271.227 235.61 270.977 235.162 270.435L182.481 206.749C182.033 206.208 181.921 205.463 182.188 204.814L215.903 122.904Z" stroke="black" stroke-width="5"/>
<path opacity="0.05" d="M-66.0975 182.904C-65.8566 182.318 -65.3404 181.891 -64.7204 181.764L22.0576 164.002C22.7461 163.861 23.4561 164.112 23.9041 164.653L76.5854 228.339C77.0333 228.88 77.146 229.625 76.8785 230.274L43.164 312.185C42.9232 312.77 42.4069 313.197 41.787 313.324L-44.9911 331.086C-45.6795 331.227 -46.3896 330.977 -46.8375 330.435L-99.5188 266.749C-99.9667 266.208 -100.079 265.463 -99.812 264.814L-66.0975 182.904Z" stroke="black" stroke-width="5"/>
</svg>
