<svg width="135" height="33" viewBox="0 0 135 33" fill="none" xmlns="http://www.w3.org/2000/svg">
<path d="M34.957 24.6953C35.0156 24.2721 35.1393 23.6895 35.3281 22.9473C35.5234 22.1986 35.7708 21.401 36.0703 20.5547C36.7539 18.6146 37.5645 16.8861 38.502 15.3691C38.6322 15.1608 38.7982 15.0404 39 15.0078C39.2865 14.9688 39.5371 14.9492 39.752 14.9492C39.9733 14.9492 40.1686 14.9753 40.3379 15.0273C40.5137 15.0729 40.6504 15.1348 40.748 15.2129C40.9434 15.3757 40.9759 15.5482 40.8457 15.7305C39.6673 17.5078 38.6387 19.6758 37.7598 22.2344C37.4277 23.2109 37.2292 23.8913 37.1641 24.2754C37.099 24.653 37.0501 24.9134 37.0176 25.0566C36.9915 25.1934 36.9785 25.3138 36.9785 25.418C36.9785 25.6328 37.1152 25.7402 37.3887 25.7402C37.6621 25.7402 37.9681 25.6784 38.3066 25.5547C38.6452 25.4245 39.0098 25.2454 39.4004 25.0176C39.791 24.7832 40.1947 24.5 40.6113 24.168C41.0345 23.8359 41.4479 23.4648 41.8516 23.0547C42.2552 22.638 42.6361 22.1888 42.9941 21.707C43.3522 21.2253 43.6647 20.7174 43.9316 20.1836C44.5241 19.0117 44.8203 17.8561 44.8203 16.7168C44.8203 15.1543 44.1855 14.1159 42.916 13.6016C42.4733 13.4258 42.0111 13.3379 41.5293 13.3379C41.054 13.3379 40.6504 13.3704 40.3184 13.4355C39.9863 13.4941 39.6673 13.5788 39.3613 13.6895C38.7428 13.9108 38.222 14.207 37.7988 14.5781C37.6882 14.6432 37.5547 14.6758 37.3984 14.6758C37.2422 14.6758 37.0729 14.6302 36.8906 14.5391C36.7148 14.4479 36.5553 14.334 36.4121 14.1973C36.0866 13.8783 35.9564 13.5723 36.0215 13.2793C36.0931 12.8626 36.7181 12.5013 37.8965 12.1953C38.8861 11.9414 39.8822 11.8145 40.8848 11.8145C41.8874 11.8145 42.7891 11.9512 43.5898 12.2246C44.3971 12.498 45.0514 12.8659 45.5527 13.3281C46.4902 14.2005 46.959 15.3691 46.959 16.834C46.959 18.7741 46.2884 20.6458 44.9473 22.4492C43.7168 24.1224 42.252 25.3919 40.5527 26.2578C39.4525 26.8177 38.4401 27.0977 37.5156 27.0977C36.793 27.0977 36.1712 26.8861 35.6504 26.4629C35.0905 26.0137 34.8594 25.4245 34.957 24.6953ZM46.1594 26.7656C46.0292 26.668 45.925 26.5605 45.8469 26.4434C45.7688 26.3197 45.7264 26.2155 45.7199 26.1309C45.7134 26.0397 45.7297 25.9323 45.7688 25.8086C45.8143 25.6784 45.8729 25.5221 45.9445 25.3398C47.2727 22.0716 47.9367 19.8776 47.9367 18.7578C47.9172 18.4453 47.8098 18.224 47.6145 18.0938L47.4191 17.957C47.3605 17.9115 47.328 17.8333 47.3215 17.7227C47.3215 17.6055 47.3638 17.4948 47.4484 17.3906C47.5331 17.2865 47.6438 17.1953 47.7805 17.1172C48.0604 16.9674 48.3469 16.8926 48.6398 16.8926C48.9393 16.8926 49.1704 16.9251 49.3332 16.9902C49.5025 17.0553 49.6457 17.1432 49.7629 17.2539C50.0103 17.4883 50.134 17.7357 50.134 17.9961C50.1405 18.2565 50.1112 18.5202 50.0461 18.7871C49.9875 19.054 49.9159 19.3177 49.8313 19.5781C49.7466 19.832 49.662 20.0762 49.5773 20.3105C49.4927 20.5384 49.4374 20.7077 49.4113 20.8184C49.3592 21.0462 49.3397 21.1895 49.3527 21.248C49.509 21.1113 49.6034 20.9779 49.6359 20.8477L50.0168 20.125C50.8632 18.6016 51.69 17.5924 52.4973 17.0977C52.7316 16.9609 53.0116 16.8926 53.3371 16.8926C53.6691 16.8926 53.9361 17.0098 54.1379 17.2441C54.3397 17.472 54.4439 17.7259 54.4504 18.0059C54.4634 18.2858 54.4439 18.5202 54.3918 18.709C54.3462 18.8913 54.2746 19.0638 54.177 19.2266C53.9621 19.5911 53.7017 19.7734 53.3957 19.7734C53.3111 19.7734 53.2329 19.7441 53.1613 19.6855L52.9465 19.5C52.7316 19.3112 52.5233 19.2168 52.3215 19.2168C52.1262 19.2168 51.8853 19.347 51.5988 19.6074C51.3189 19.8678 51.0259 20.2031 50.7199 20.6133C49.6913 21.974 48.8514 23.4974 48.2004 25.1836L47.7707 26.3164C47.66 26.5964 47.5624 26.7982 47.4777 26.9219C47.3931 27.0391 47.2661 27.0977 47.0969 27.0977C46.9341 27.0977 46.7681 27.0651 46.5988 27C46.4361 26.9414 46.2896 26.8633 46.1594 26.7656ZM53.182 23.582C53.2081 23.0156 53.3025 22.4753 53.4652 21.9609C53.628 21.4401 53.8461 20.9388 54.1195 20.457C54.393 19.9688 54.712 19.5098 55.0766 19.0801C55.4477 18.6439 55.848 18.263 56.2777 17.9375C57.2087 17.2409 58.1495 16.8926 59.1 16.8926C60.2133 16.8926 60.9555 17.3516 61.3266 18.2695C61.4568 18.582 61.5186 18.9531 61.5121 19.3828C61.5056 19.806 61.4242 20.1999 61.268 20.5645C61.1117 20.9225 60.8936 21.2513 60.6137 21.5508C60.3402 21.8438 60.0115 22.1074 59.6273 22.3418C59.2497 22.5762 58.8363 22.7747 58.3871 22.9375C57.4626 23.263 56.473 23.4323 55.4184 23.4453C55.3923 23.5365 55.376 23.6732 55.3695 23.8555C55.363 24.0378 55.3826 24.2428 55.4281 24.4707C55.4737 24.6921 55.5518 24.8906 55.6625 25.0664C55.8969 25.457 56.2354 25.6523 56.6781 25.6523C57.4333 25.6523 58.169 25.431 58.8852 24.9883C59.1391 24.8385 59.3441 24.6855 59.5004 24.5293C59.6632 24.3665 59.8031 24.2852 59.9203 24.2852C60.0375 24.2852 60.1384 24.3568 60.223 24.5C60.3142 24.6367 60.3598 24.793 60.3598 24.9688C60.3598 25.3138 60.2621 25.6133 60.0668 25.8672C59.2465 26.6875 58.0258 27.0977 56.4047 27.0977C55.4477 27.0977 54.6794 26.8112 54.1 26.2383C53.449 25.5872 53.143 24.7018 53.182 23.582ZM58.8852 18.1914C58.2016 18.1914 57.544 18.6602 56.9125 19.5977C56.3786 20.4049 55.949 21.362 55.6234 22.4688C56.7107 22.3581 57.6547 21.9284 58.4555 21.1797C59.1911 20.4766 59.559 19.8027 59.559 19.1582C59.559 18.5137 59.3344 18.1914 58.8852 18.1914ZM61.4156 23.582C61.4417 23.0156 61.5361 22.4753 61.6988 21.9609C61.8616 21.4401 62.0797 20.9388 62.3531 20.457C62.6266 19.9688 62.9456 19.5098 63.3102 19.0801C63.6812 18.6439 64.0816 18.263 64.5113 17.9375C65.4423 17.2409 66.3831 16.8926 67.3336 16.8926C68.4469 16.8926 69.1891 17.3516 69.5602 18.2695C69.6904 18.582 69.7522 18.9531 69.7457 19.3828C69.7392 19.806 69.6578 20.1999 69.5016 20.5645C69.3453 20.9225 69.1272 21.2513 68.8473 21.5508C68.5738 21.8438 68.2451 22.1074 67.8609 22.3418C67.4833 22.5762 67.0699 22.7747 66.6207 22.9375C65.6962 23.263 64.7066 23.4323 63.652 23.4453C63.6259 23.5365 63.6096 23.6732 63.6031 23.8555C63.5966 24.0378 63.6161 24.2428 63.6617 24.4707C63.7073 24.6921 63.7854 24.8906 63.8961 25.0664C64.1305 25.457 64.469 25.6523 64.9117 25.6523C65.6669 25.6523 66.4026 25.431 67.1187 24.9883C67.3727 24.8385 67.5777 24.6855 67.734 24.5293C67.8967 24.3665 68.0367 24.2852 68.1539 24.2852C68.2711 24.2852 68.372 24.3568 68.4566 24.5C68.5478 24.6367 68.5934 24.793 68.5934 24.9688C68.5934 25.3138 68.4957 25.6133 68.3004 25.8672C67.4801 26.6875 66.2594 27.0977 64.6383 27.0977C63.6812 27.0977 62.913 26.8112 62.3336 26.2383C61.6826 25.5872 61.3766 24.7018 61.4156 23.582ZM67.1187 18.1914C66.4352 18.1914 65.7776 18.6602 65.1461 19.5977C64.6122 20.4049 64.1826 21.362 63.857 22.4688C64.9443 22.3581 65.8883 21.9284 66.6891 21.1797C67.4247 20.4766 67.7926 19.8027 67.7926 19.1582C67.7926 18.5137 67.568 18.1914 67.1187 18.1914ZM76.9148 18.7383C76.5372 18.7383 75.8471 19.2852 74.8445 20.3789C74.0958 21.2318 73.5522 21.873 73.2137 22.3027L72.3348 23.416C71.9572 24.1322 71.6609 24.7279 71.4461 25.2031L70.9188 26.3359C70.782 26.6159 70.6616 26.8145 70.5574 26.9316C70.4598 27.0423 70.323 27.0977 70.1473 27.0977C69.978 27.0977 69.812 27.0651 69.6492 27C69.493 26.9414 69.3563 26.8633 69.2391 26.7656C68.9917 26.5573 68.868 26.3294 68.868 26.082C68.868 25.9844 68.9396 25.7923 69.0828 25.5059L69.4539 24.7148C69.5711 24.4805 69.7078 24.181 69.8641 23.8164L70.4109 22.4785C71.1792 20.5579 71.5633 19.3177 71.5633 18.7578C71.5633 18.4583 71.4656 18.237 71.2703 18.0938L71.075 17.957C71.0099 17.9115 70.9773 17.8333 70.9773 17.7227C70.9773 17.6055 71.0197 17.4948 71.1043 17.3906C71.1954 17.2865 71.3126 17.1953 71.4559 17.1172C71.7488 16.9674 72.0418 16.8926 72.3348 16.8926C72.6342 16.8926 72.8686 16.9251 73.0379 16.9902C73.2072 17.0553 73.3536 17.1432 73.4773 17.2539C73.7247 17.4818 73.8484 17.7194 73.8484 17.9668C73.8484 18.2142 73.8159 18.4648 73.7508 18.7188C73.6857 18.9661 73.6043 19.2201 73.5066 19.4805C73.409 19.7344 73.3048 19.9818 73.1941 20.2227C72.9337 20.7826 72.771 21.1276 72.7059 21.2578C72.6473 21.3815 72.631 21.4271 72.657 21.3945C73.8484 19.8516 74.5646 18.9401 74.8055 18.6602C75.3068 18.0807 75.6974 17.6836 75.9773 17.4688C76.4917 17.0846 76.9767 16.8926 77.4324 16.8926C77.8947 16.8926 78.2625 17.0358 78.5359 17.3223C78.8094 17.6087 78.9461 17.9863 78.9461 18.4551C78.9461 18.8652 78.8419 19.347 78.6336 19.9004C78.4253 20.4538 78.2853 20.8411 78.2137 21.0625L79.6492 19.168L80.45 18.2109C80.9318 17.6706 81.3549 17.3158 81.7195 17.1465C82.0841 16.9772 82.3803 16.8926 82.6082 16.8926C82.8426 16.8926 83.0704 16.9349 83.2918 17.0195C83.5197 17.1042 83.7117 17.2246 83.868 17.3809C84.2 17.6999 84.366 18.123 84.366 18.6504C84.366 19.1582 84.2488 19.679 84.0145 20.2129C83.7801 20.7467 83.575 21.1862 83.3992 21.5312C83.2234 21.8698 83.0542 22.2116 82.8914 22.5566C82.4161 23.5918 82.1785 24.36 82.1785 24.8613C82.1785 25.2129 82.3217 25.3887 82.6082 25.3887C82.8816 25.3887 83.129 25.3301 83.3504 25.2129C83.5783 25.0957 83.7247 25.0371 83.7898 25.0371C83.9266 25.0371 83.9949 25.1055 83.9949 25.2422C83.9949 25.8216 83.6987 26.3066 83.1063 26.6973C82.7091 26.9642 82.3445 27.0977 82.0125 27.0977C81.687 27.0977 81.4233 27.0586 81.2215 26.9805C81.0197 26.9023 80.8374 26.7786 80.6746 26.6094C80.31 26.2318 80.1277 25.7598 80.1277 25.1934C80.1277 24.627 80.1993 24.1061 80.3426 23.6309C80.4858 23.1556 80.6551 22.6966 80.8504 22.2539C81.0457 21.8047 81.241 21.3945 81.4363 21.0234C81.6382 20.6458 81.7911 20.3464 81.8953 20.125C82.1036 19.6693 82.2078 19.334 82.2078 19.1191C82.2078 18.8652 82.0743 18.7383 81.8074 18.7383C81.4559 18.7383 80.8243 19.321 79.9129 20.4863C79.2228 21.3913 78.7443 22.0423 78.4773 22.4395L77.8035 23.416C77.4259 24.1322 77.1362 24.7279 76.9344 25.2031L76.4363 26.3359C76.3126 26.6159 76.2052 26.8145 76.1141 26.9316C76.0229 27.0423 75.896 27.0977 75.7332 27.0977C75.5704 27.0977 75.4109 27.0716 75.2547 27.0195C75.1049 26.9674 74.9747 26.8991 74.8641 26.8145C74.6102 26.6257 74.4832 26.4271 74.4832 26.2188C74.4832 26.0039 74.5516 25.7142 74.6883 25.3496C74.8315 24.9785 75.0073 24.5651 75.2156 24.1094L76.5828 21.2188C77.0711 20.1445 77.3152 19.4642 77.3152 19.1777C77.3152 18.8848 77.1818 18.7383 76.9148 18.7383ZM77.8816 21.4922C77.8882 21.4922 77.8914 21.4889 77.8914 21.4824L77.9012 21.4629C77.8882 21.4759 77.8816 21.4857 77.8816 21.4922ZM93.7715 19.8223C92.9707 19.7507 92.1862 19.7148 91.418 19.7148C90.6562 19.7148 89.8652 19.7637 89.0449 19.8613C88.0098 22.752 86.8997 24.819 85.7148 26.0625C85.2786 26.5247 84.8262 26.8372 84.3574 27C84.2402 27.0456 84.1198 27.0684 83.9961 27.0684C83.8789 27.0684 83.7747 27.0456 83.6836 27C83.5859 26.9609 83.5078 26.9089 83.4492 26.8438C83.3125 26.7135 83.2441 26.5768 83.2441 26.4336C83.2441 26.2839 83.293 26.1732 83.3906 26.1016C84.4258 25.3594 85.5228 23.429 86.6816 20.3105C86.6296 20.3236 86.5807 20.3366 86.5352 20.3496C86.4896 20.3626 86.4342 20.3789 86.3691 20.3984C86.304 20.418 86.2259 20.3984 86.1348 20.3398C86.0436 20.2812 85.9622 20.2031 85.8906 20.1055C85.7214 19.8711 85.6986 19.6986 85.8223 19.5879C86.0501 19.3861 86.4863 19.194 87.1309 19.0117C88.0033 16.3099 88.4557 14.3958 88.4883 13.2695C88.2214 13.2826 87.974 13.3542 87.7461 13.4844L87.0039 13.9043C86.8021 14.015 86.5352 13.9271 86.2031 13.6406C85.8776 13.3672 85.7344 13.1068 85.7734 12.8594C85.819 12.4883 86.3398 12.1823 87.3359 11.9414C87.6875 11.8568 87.9642 11.8145 88.166 11.8145C88.3678 11.8145 88.5664 11.821 88.7617 11.834C88.9635 11.8405 89.1458 11.8633 89.3086 11.9023C89.9596 12.0586 90.36 12.3385 90.5098 12.7422C90.5749 12.9245 90.6074 13.1458 90.6074 13.4062C90.6074 13.6602 90.5814 13.9629 90.5293 14.3145C90.4772 14.6595 90.4023 15.0534 90.3047 15.4961C90.0964 16.4596 89.8197 17.4883 89.4746 18.582C90.8939 18.4128 92.362 18.3281 93.8789 18.3281H94.2988L94.8359 16.7266C95.4349 14.9232 95.8027 13.5592 95.9395 12.6348C96.0241 12.0879 96.2975 11.8145 96.7598 11.8145C97.0592 11.8145 97.3066 11.8893 97.502 12.0391C97.8665 12.306 98.0423 12.5957 98.0293 12.9082C98.0163 13.2142 97.9609 13.5592 97.8633 13.9434C97.7656 14.3275 97.6387 14.7572 97.4824 15.2324C97.3262 15.7077 97.1471 16.2188 96.9453 16.7656L96.3301 18.416L96.5645 18.4355C96.6621 18.4486 96.7533 18.4616 96.8379 18.4746C96.929 18.4811 97.0072 18.4974 97.0723 18.5234C97.209 18.5755 97.2773 18.6667 97.2773 18.7969C97.2773 18.9206 97.2383 19.054 97.1602 19.1973C97.0885 19.334 96.9844 19.4642 96.8477 19.5879C96.5156 19.8874 96.1315 20.0436 95.6953 20.0566C94.901 22.1465 94.4388 23.429 94.3086 23.9043C94.1784 24.373 94.1133 24.6921 94.1133 24.8613C94.1133 25.2129 94.2533 25.3887 94.5332 25.3887C94.7936 25.3887 95.0052 25.3464 95.168 25.2617L95.5195 25.0859C95.5911 25.0534 95.6595 25.0371 95.7246 25.0371C95.8613 25.0371 95.9297 25.1055 95.9297 25.2422C95.9297 25.8216 95.5944 26.3066 94.9238 26.6973C94.4811 26.9577 94.0221 27.0879 93.5469 27.0879C92.8828 27.0879 92.4206 26.7917 92.1602 26.1992C92.069 25.9974 92.0234 25.8053 92.0234 25.623C92.0234 25.1999 92.0885 24.7734 92.2188 24.3438C92.349 23.9076 92.4922 23.4648 92.6484 23.0156L93.7715 19.8223ZM97.7473 26.3359C97.4738 26.0755 97.259 25.7467 97.1027 25.3496C96.9465 24.946 96.8651 24.4707 96.8586 23.9238C96.8521 23.377 96.9172 22.8236 97.0539 22.2637C97.1971 21.7038 97.3957 21.1634 97.6496 20.6426C97.91 20.1217 98.2193 19.6335 98.5773 19.1777C98.9419 18.722 99.3423 18.3249 99.7785 17.9863C100.729 17.2572 101.715 16.8926 102.737 16.8926C104.079 16.8926 104.987 17.4818 105.462 18.6602C105.801 19.513 105.82 20.5449 105.521 21.7559C105.247 22.8691 104.746 23.8913 104.017 24.8223C103.294 25.7533 102.441 26.4141 101.458 26.8047C100.963 27 100.475 27.0977 99.9934 27.0977C99.5181 27.0977 99.0917 27.0358 98.7141 26.9121C98.343 26.7884 98.0207 26.5964 97.7473 26.3359ZM99.6125 21.5996C99.4172 22.0814 99.2609 22.5762 99.1437 23.084C99.0331 23.5918 98.981 24.0736 98.9875 24.5293C98.994 24.9785 99.0624 25.3333 99.1926 25.5938C99.3293 25.8477 99.5474 25.9746 99.8469 25.9746C100.146 25.9746 100.439 25.8737 100.726 25.6719C101.019 25.4635 101.302 25.1901 101.575 24.8516C101.849 24.513 102.106 24.1224 102.347 23.6797C102.588 23.237 102.799 22.7747 102.982 22.293C103.379 21.2448 103.571 20.3138 103.558 19.5C103.558 18.7839 103.411 18.3281 103.118 18.1328C103.001 18.0547 102.835 18.0156 102.62 18.0156C102.412 18.0156 102.171 18.1133 101.898 18.3086C101.624 18.4974 101.351 18.7546 101.077 19.0801C100.804 19.4056 100.54 19.7865 100.286 20.2227C100.032 20.6589 99.8078 21.1178 99.6125 21.5996ZM112.973 18.7383C112.771 18.7383 112.485 18.9336 112.114 19.3242C111.743 19.7083 111.42 20.0599 111.147 20.3789L110.317 21.375L108.715 23.416C108.338 24.1322 108.041 24.7279 107.827 25.2031L107.299 26.3359C107.162 26.6159 107.042 26.8145 106.938 26.9316C106.84 27.0423 106.704 27.0977 106.528 27.0977C106.358 27.0977 106.192 27.0651 106.03 27C105.873 26.9414 105.737 26.8633 105.62 26.7656C105.372 26.5573 105.248 26.3294 105.248 26.082C105.248 25.9844 105.32 25.7923 105.463 25.5059L105.834 24.7148C105.952 24.4805 106.088 24.181 106.245 23.8164L106.791 22.4785C107.56 20.5579 107.944 19.3177 107.944 18.7578C107.944 18.4583 107.846 18.237 107.651 18.0938L107.455 17.957C107.39 17.9115 107.358 17.8333 107.358 17.7227C107.358 17.6055 107.4 17.4948 107.485 17.3906C107.576 17.2865 107.693 17.1953 107.836 17.1172C108.129 16.9674 108.422 16.8926 108.715 16.8926C109.015 16.8926 109.246 16.9251 109.409 16.9902C109.571 17.0553 109.708 17.1432 109.819 17.2539C110.06 17.4818 110.18 17.7194 110.18 17.9668C110.18 18.2142 110.148 18.4648 110.082 18.7188C110.024 18.9661 109.946 19.2201 109.848 19.4805C109.757 19.7344 109.659 19.985 109.555 20.2324C109.451 20.4798 109.357 20.6947 109.272 20.877L109.077 21.2969C109.024 21.401 109.011 21.4336 109.037 21.3945C109.76 20.3919 110.235 19.7474 110.463 19.4609L111.147 18.6406C111.648 18.0547 112.042 17.6673 112.329 17.4785C112.908 17.0879 113.364 16.8926 113.696 16.8926C114.028 16.8926 114.308 16.9349 114.536 17.0195C114.763 17.1042 114.962 17.2246 115.131 17.3809C115.489 17.7129 115.668 18.1361 115.668 18.6504C115.668 19.1647 115.551 19.7018 115.317 20.2617C115.082 20.8216 114.877 21.2773 114.702 21.6289C114.532 21.974 114.37 22.3255 114.213 22.6836C113.725 23.7708 113.481 24.5618 113.481 25.0566C113.481 25.278 113.657 25.3887 114.008 25.3887C114.282 25.3887 114.529 25.3301 114.75 25.2129C114.978 25.0957 115.125 25.0371 115.19 25.0371C115.327 25.0371 115.395 25.1055 115.395 25.2422C115.395 25.8216 115.099 26.3066 114.506 26.6973C114.109 26.9642 113.745 27.0977 113.412 27.0977C113.08 27.0977 112.804 27.0618 112.582 26.9902C112.368 26.9186 112.176 26.8047 112.006 26.6484C111.622 26.3034 111.43 25.8216 111.43 25.2031C111.43 24.4479 111.668 23.5039 112.143 22.3711C112.488 21.5964 112.732 21.0658 112.875 20.7793L113.207 20.0859C113.409 19.6693 113.51 19.3405 113.51 19.0996C113.51 18.8587 113.331 18.7383 112.973 18.7383ZM116.06 23.582C116.086 23.0156 116.181 22.4753 116.343 21.9609C116.506 21.4401 116.724 20.9388 116.998 20.457C117.271 19.9688 117.59 19.5098 117.955 19.0801C118.326 18.6439 118.726 18.263 119.156 17.9375C120.087 17.2409 121.028 16.8926 121.978 16.8926C123.091 16.8926 123.834 17.3516 124.205 18.2695C124.335 18.582 124.397 18.9531 124.39 19.3828C124.384 19.806 124.302 20.1999 124.146 20.5645C123.99 20.9225 123.772 21.2513 123.492 21.5508C123.218 21.8438 122.89 22.1074 122.505 22.3418C122.128 22.5762 121.714 22.7747 121.265 22.9375C120.341 23.263 119.351 23.4323 118.296 23.4453C118.27 23.5365 118.254 23.6732 118.248 23.8555C118.241 24.0378 118.261 24.2428 118.306 24.4707C118.352 24.6921 118.43 24.8906 118.541 25.0664C118.775 25.457 119.114 25.6523 119.556 25.6523C120.311 25.6523 121.047 25.431 121.763 24.9883C122.017 24.8385 122.222 24.6855 122.379 24.5293C122.541 24.3665 122.681 24.2852 122.798 24.2852C122.916 24.2852 123.017 24.3568 123.101 24.5C123.192 24.6367 123.238 24.793 123.238 24.9688C123.238 25.3138 123.14 25.6133 122.945 25.8672C122.125 26.6875 120.904 27.0977 119.283 27.0977C118.326 27.0977 117.558 26.8112 116.978 26.2383C116.327 25.5872 116.021 24.7018 116.06 23.582ZM121.763 18.1914C121.08 18.1914 120.422 18.6602 119.791 19.5977C119.257 20.4049 118.827 21.362 118.502 22.4688C119.589 22.3581 120.533 21.9284 121.334 21.1797C122.069 20.4766 122.437 19.8027 122.437 19.1582C122.437 18.5137 122.213 18.1914 121.763 18.1914ZM124.177 26.0527C124.098 25.8379 124.059 25.5938 124.059 25.3203C124.059 25.0404 124.105 24.7311 124.196 24.3926C124.294 24.0475 124.417 23.6895 124.567 23.3184C124.717 22.9473 124.88 22.5664 125.055 22.1758L125.583 21.0039C126.26 19.5 126.511 18.6081 126.335 18.3281C126.257 18.2044 126.11 18.0807 125.895 17.957C125.817 17.9115 125.778 17.8333 125.778 17.7227C125.778 17.6055 125.824 17.4948 125.915 17.3906C126.012 17.2865 126.136 17.1953 126.286 17.1172C126.605 16.9674 126.924 16.8926 127.243 16.8926C127.562 16.8926 127.803 16.9284 127.966 17C128.135 17.0651 128.272 17.1497 128.376 17.2539C128.591 17.4688 128.698 17.7064 128.698 17.9668C128.698 18.2272 128.656 18.5202 128.571 18.8457C128.486 19.1647 128.376 19.513 128.239 19.8906C128.102 20.2682 127.953 20.6589 127.79 21.0625C127.341 22.1172 127.038 22.8138 126.882 23.1523L126.52 23.9043C126.318 24.3535 126.218 24.6693 126.218 24.8516C126.218 25.0339 126.247 25.1641 126.305 25.2422C126.364 25.3138 126.468 25.3496 126.618 25.3496C126.774 25.3496 126.943 25.291 127.126 25.1738C127.315 25.0566 127.516 24.9004 127.731 24.7051C127.946 24.5098 128.167 24.2852 128.395 24.0312C128.63 23.7708 128.858 23.5007 129.079 23.2207C129.658 22.5046 130.088 21.8893 130.368 21.375C131.774 18.7839 132.52 17.4297 132.604 17.3125C132.819 17.0326 133.034 16.8926 133.249 16.8926C133.47 16.8926 133.662 16.9186 133.825 16.9707C133.988 17.0163 134.128 17.0846 134.245 17.1758C134.505 17.3646 134.583 17.5762 134.479 17.8105C134.382 18.0449 134.261 18.3672 134.118 18.7773C132.881 22.3646 132.077 24.6009 131.706 25.4863C131.341 26.3717 131.022 27.0814 130.749 27.6152C130.475 28.1556 130.153 28.6992 129.782 29.2461C129.417 29.793 129.027 30.291 128.61 30.7402C127.66 31.7559 126.768 32.2995 125.934 32.3711C125.615 32.3971 125.361 32.3516 125.173 32.2344C124.847 32.0391 124.684 31.8535 124.684 31.6777C124.684 31.502 124.831 31.3783 125.124 31.3066C125.423 31.2415 125.729 31.1048 126.042 30.8965C126.361 30.6947 126.667 30.457 126.96 30.1836C127.819 29.3633 128.486 28.4714 128.962 27.5078C129.365 26.6615 129.691 25.8607 129.938 25.1055L130.7 22.7812C130.511 23.0091 130.303 23.276 130.075 23.582L129.372 24.5195C128.76 25.2943 128.252 25.8444 127.848 26.1699C127.08 26.7884 126.393 27.0977 125.788 27.0977C124.981 27.0977 124.443 26.7493 124.177 26.0527Z" fill="white"/>
<path d="M22.2989 10.7677H13.4673L9.87451 16.9906C9.36702 17.8702 9.36702 18.962 9.87451 19.8416L13.4673 26.0645H22.2989L26.7143 18.4165L22.2989 10.7685V10.7677Z" fill="#FFC316"/>
<path d="M30.4661 17.8239H27.7394L23.6201 10.689C26.1544 10.2567 28.0909 8.0383 28.0909 5.37417C28.0909 2.41078 25.6801 0 22.7159 0C18.0599 0 14.9072 5.70986 13.023 9.12137C12.8741 9.39135 12.7324 9.64786 12.5978 9.88696L12.1236 10.7317L10.1506 14.1488C9.32801 11.1347 6.66071 8.87435 3.44159 8.66297C3.20249 7.96784 2.54458 7.46668 1.76949 7.46668C0.794092 7.46668 0 8.25998 0 9.23617C0 10.2124 0.7933 11.0057 1.76949 11.0057C2.52954 11.0057 3.17795 10.5227 3.42734 9.84817C6.55225 10.0857 9.04616 12.6176 9.22113 15.7591L8.8506 16.4004C8.13251 17.6442 8.13251 19.1896 8.8506 20.4334L12.7846 27.2469H22.9812L27.7378 19.0075H30.4645C30.7907 19.0075 31.0559 18.7431 31.0559 18.4161C31.0559 18.0891 30.7915 17.8247 30.4645 17.8247L30.4661 17.8239ZM1.77028 9.82204C1.44647 9.82204 1.18362 9.5584 1.18362 9.23538C1.18362 8.91236 1.44647 8.64872 1.77028 8.64872C2.09409 8.64872 2.35694 8.91236 2.35694 9.23538C2.35694 9.5584 2.0933 9.82204 1.77028 9.82204ZM22.7159 1.18203C25.0278 1.18203 26.9081 3.06315 26.9081 5.37417C26.9081 7.6852 25.0278 9.58452 22.7159 9.58452H14.1179C15.8818 6.39074 18.8025 1.18203 22.7159 1.18203ZM9.87588 19.8404C9.36839 18.9608 9.36839 17.869 9.87588 16.9895L10.3834 16.1099H10.415C10.415 16.0924 10.4142 16.075 10.4135 16.0568L12.8029 11.9177L16.554 18.4145L12.8029 24.9114L9.87508 19.8404H9.87588ZM14.8692 26.0633L19.2846 18.4153L14.8692 10.7673H17.3956L21.811 18.4153L17.3956 26.0633H14.8692ZM22.2995 26.0633H20.1262L24.5416 18.4153L20.1262 10.7673H22.2995L26.7149 18.4153L22.2995 26.0633Z" fill="#414042"/>
<path d="M23.8531 3.37609C24.0399 3.47347 24.1429 3.55898 24.3044 3.71336C24.4192 3.82262 24.5656 3.87725 24.7129 3.87725C24.8689 3.87725 25.024 3.81628 25.1396 3.69515C25.3653 3.45922 25.3574 3.08474 25.1214 2.8591C24.8966 2.64454 24.7074 2.48858 24.4002 2.32865C24.1112 2.17743 23.7541 2.28906 23.6029 2.57883C23.4517 2.86781 23.5641 3.22566 23.8531 3.37609Z" fill="#414042"/>
<path d="M22.9452 2.43656C22.908 2.11196 22.6119 1.8784 22.2905 1.91641C20.8503 2.08029 19.4316 3.04856 17.9519 4.87584C17.746 5.12919 17.7856 5.50209 18.039 5.70715C18.1482 5.79582 18.2796 5.83857 18.4103 5.83857C18.5829 5.83857 18.7531 5.76336 18.8703 5.61927C20.1275 4.06671 21.323 3.21641 22.4243 3.09052C22.7489 3.05331 22.9816 2.76038 22.9444 2.43656H22.9452Z" fill="#414042"/>
<path d="M12.6878 15.1748C11.9483 15.1748 11.349 15.7741 11.349 16.5136C11.349 17.2531 11.9483 17.8524 12.6878 17.8524C13.4273 17.8524 14.0266 17.2531 14.0266 16.5136C14.0266 15.7741 13.4273 15.1748 12.6878 15.1748Z" fill="#414042"/>
</svg>
