<svg width="145" height="37" viewBox="0 0 145 37" fill="none" xmlns="http://www.w3.org/2000/svg">
<path d="M44.957 28.6953C45.0156 28.2721 45.1393 27.6895 45.3281 26.9473C45.5234 26.1986 45.7708 25.401 46.0703 24.5547C46.7539 22.6146 47.5645 20.8861 48.502 19.3691C48.6322 19.1608 48.7982 19.0404 49 19.0078C49.2865 18.9688 49.5371 18.9492 49.752 18.9492C49.9733 18.9492 50.1686 18.9753 50.3379 19.0273C50.5137 19.0729 50.6504 19.1348 50.748 19.2129C50.9434 19.3757 50.9759 19.5482 50.8457 19.7305C49.6673 21.5078 48.6387 23.6758 47.7598 26.2344C47.4277 27.2109 47.2292 27.8913 47.1641 28.2754C47.099 28.653 47.0501 28.9134 47.0176 29.0566C46.9915 29.1934 46.9785 29.3138 46.9785 29.418C46.9785 29.6328 47.1152 29.7402 47.3887 29.7402C47.6621 29.7402 47.9681 29.6784 48.3066 29.5547C48.6452 29.4245 49.0098 29.2454 49.4004 29.0176C49.791 28.7832 50.1947 28.5 50.6113 28.168C51.0345 27.8359 51.4479 27.4648 51.8516 27.0547C52.2552 26.638 52.6361 26.1888 52.9941 25.707C53.3522 25.2253 53.6647 24.7174 53.9316 24.1836C54.5241 23.0117 54.8203 21.8561 54.8203 20.7168C54.8203 19.1543 54.1855 18.1159 52.916 17.6016C52.4733 17.4258 52.0111 17.3379 51.5293 17.3379C51.054 17.3379 50.6504 17.3704 50.3184 17.4355C49.9863 17.4941 49.6673 17.5788 49.3613 17.6895C48.7428 17.9108 48.222 18.207 47.7988 18.5781C47.6882 18.6432 47.5547 18.6758 47.3984 18.6758C47.2422 18.6758 47.0729 18.6302 46.8906 18.5391C46.7148 18.4479 46.5553 18.334 46.4121 18.1973C46.0866 17.8783 45.9564 17.5723 46.0215 17.2793C46.0931 16.8626 46.7181 16.5013 47.8965 16.1953C48.8861 15.9414 49.8822 15.8145 50.8848 15.8145C51.8874 15.8145 52.7891 15.9512 53.5898 16.2246C54.3971 16.498 55.0514 16.8659 55.5527 17.3281C56.4902 18.2005 56.959 19.3691 56.959 20.834C56.959 22.7741 56.2884 24.6458 54.9473 26.4492C53.7168 28.1224 52.252 29.3919 50.5527 30.2578C49.4525 30.8177 48.4401 31.0977 47.5156 31.0977C46.793 31.0977 46.1712 30.8861 45.6504 30.4629C45.0905 30.0137 44.8594 29.4245 44.957 28.6953ZM56.1594 30.7656C56.0292 30.668 55.925 30.5605 55.8469 30.4434C55.7688 30.3197 55.7264 30.2155 55.7199 30.1309C55.7134 30.0397 55.7297 29.9323 55.7688 29.8086C55.8143 29.6784 55.8729 29.5221 55.9445 29.3398C57.2727 26.0716 57.9367 23.8776 57.9367 22.7578C57.9172 22.4453 57.8098 22.224 57.6145 22.0938L57.4191 21.957C57.3605 21.9115 57.328 21.8333 57.3215 21.7227C57.3215 21.6055 57.3638 21.4948 57.4484 21.3906C57.5331 21.2865 57.6438 21.1953 57.7805 21.1172C58.0604 20.9674 58.3469 20.8926 58.6398 20.8926C58.9393 20.8926 59.1704 20.9251 59.3332 20.9902C59.5025 21.0553 59.6457 21.1432 59.7629 21.2539C60.0103 21.4883 60.134 21.7357 60.134 21.9961C60.1405 22.2565 60.1112 22.5202 60.0461 22.7871C59.9875 23.054 59.9159 23.3177 59.8313 23.5781C59.7466 23.832 59.662 24.0762 59.5773 24.3105C59.4927 24.5384 59.4374 24.7077 59.4113 24.8184C59.3592 25.0462 59.3397 25.1895 59.3527 25.248C59.509 25.1113 59.6034 24.9779 59.6359 24.8477L60.0168 24.125C60.8632 22.6016 61.69 21.5924 62.4973 21.0977C62.7316 20.9609 63.0116 20.8926 63.3371 20.8926C63.6691 20.8926 63.9361 21.0098 64.1379 21.2441C64.3397 21.472 64.4439 21.7259 64.4504 22.0059C64.4634 22.2858 64.4439 22.5202 64.3918 22.709C64.3462 22.8913 64.2746 23.0638 64.177 23.2266C63.9621 23.5911 63.7017 23.7734 63.3957 23.7734C63.3111 23.7734 63.2329 23.7441 63.1613 23.6855L62.9465 23.5C62.7316 23.3112 62.5233 23.2168 62.3215 23.2168C62.1262 23.2168 61.8853 23.347 61.5988 23.6074C61.3189 23.8678 61.0259 24.2031 60.7199 24.6133C59.6913 25.974 58.8514 27.4974 58.2004 29.1836L57.7707 30.3164C57.66 30.5964 57.5624 30.7982 57.4777 30.9219C57.3931 31.0391 57.2661 31.0977 57.0969 31.0977C56.9341 31.0977 56.7681 31.0651 56.5988 31C56.4361 30.9414 56.2896 30.8633 56.1594 30.7656ZM63.182 27.582C63.2081 27.0156 63.3025 26.4753 63.4652 25.9609C63.628 25.4401 63.8461 24.9388 64.1195 24.457C64.393 23.9688 64.712 23.5098 65.0766 23.0801C65.4477 22.6439 65.848 22.263 66.2777 21.9375C67.2087 21.2409 68.1495 20.8926 69.1 20.8926C70.2133 20.8926 70.9555 21.3516 71.3266 22.2695C71.4568 22.582 71.5186 22.9531 71.5121 23.3828C71.5056 23.806 71.4242 24.1999 71.268 24.5645C71.1117 24.9225 70.8936 25.2513 70.6137 25.5508C70.3402 25.8438 70.0115 26.1074 69.6273 26.3418C69.2497 26.5762 68.8363 26.7747 68.3871 26.9375C67.4626 27.263 66.473 27.4323 65.4184 27.4453C65.3923 27.5365 65.376 27.6732 65.3695 27.8555C65.363 28.0378 65.3826 28.2428 65.4281 28.4707C65.4737 28.6921 65.5518 28.8906 65.6625 29.0664C65.8969 29.457 66.2354 29.6523 66.6781 29.6523C67.4333 29.6523 68.169 29.431 68.8852 28.9883C69.1391 28.8385 69.3441 28.6855 69.5004 28.5293C69.6632 28.3665 69.8031 28.2852 69.9203 28.2852C70.0375 28.2852 70.1384 28.3568 70.223 28.5C70.3142 28.6367 70.3598 28.793 70.3598 28.9688C70.3598 29.3138 70.2621 29.6133 70.0668 29.8672C69.2465 30.6875 68.0258 31.0977 66.4047 31.0977C65.4477 31.0977 64.6794 30.8112 64.1 30.2383C63.449 29.5872 63.143 28.7018 63.182 27.582ZM68.8852 22.1914C68.2016 22.1914 67.544 22.6602 66.9125 23.5977C66.3786 24.4049 65.949 25.362 65.6234 26.4688C66.7107 26.3581 67.6547 25.9284 68.4555 25.1797C69.1911 24.4766 69.559 23.8027 69.559 23.1582C69.559 22.5137 69.3344 22.1914 68.8852 22.1914ZM71.4156 27.582C71.4417 27.0156 71.5361 26.4753 71.6988 25.9609C71.8616 25.4401 72.0797 24.9388 72.3531 24.457C72.6266 23.9688 72.9456 23.5098 73.3102 23.0801C73.6812 22.6439 74.0816 22.263 74.5113 21.9375C75.4423 21.2409 76.3831 20.8926 77.3336 20.8926C78.4469 20.8926 79.1891 21.3516 79.5602 22.2695C79.6904 22.582 79.7522 22.9531 79.7457 23.3828C79.7392 23.806 79.6578 24.1999 79.5016 24.5645C79.3453 24.9225 79.1272 25.2513 78.8473 25.5508C78.5738 25.8438 78.2451 26.1074 77.8609 26.3418C77.4833 26.5762 77.0699 26.7747 76.6207 26.9375C75.6962 27.263 74.7066 27.4323 73.652 27.4453C73.6259 27.5365 73.6096 27.6732 73.6031 27.8555C73.5966 28.0378 73.6161 28.2428 73.6617 28.4707C73.7073 28.6921 73.7854 28.8906 73.8961 29.0664C74.1305 29.457 74.469 29.6523 74.9117 29.6523C75.6669 29.6523 76.4026 29.431 77.1187 28.9883C77.3727 28.8385 77.5777 28.6855 77.734 28.5293C77.8967 28.3665 78.0367 28.2852 78.1539 28.2852C78.2711 28.2852 78.372 28.3568 78.4566 28.5C78.5478 28.6367 78.5934 28.793 78.5934 28.9688C78.5934 29.3138 78.4957 29.6133 78.3004 29.8672C77.4801 30.6875 76.2594 31.0977 74.6383 31.0977C73.6812 31.0977 72.913 30.8112 72.3336 30.2383C71.6826 29.5872 71.3766 28.7018 71.4156 27.582ZM77.1187 22.1914C76.4352 22.1914 75.7776 22.6602 75.1461 23.5977C74.6122 24.4049 74.1826 25.362 73.857 26.4688C74.9443 26.3581 75.8883 25.9284 76.6891 25.1797C77.4247 24.4766 77.7926 23.8027 77.7926 23.1582C77.7926 22.5137 77.568 22.1914 77.1187 22.1914ZM86.9148 22.7383C86.5372 22.7383 85.8471 23.2852 84.8445 24.3789C84.0958 25.2318 83.5522 25.873 83.2137 26.3027L82.3348 27.416C81.9572 28.1322 81.6609 28.7279 81.4461 29.2031L80.9188 30.3359C80.782 30.6159 80.6616 30.8145 80.5574 30.9316C80.4598 31.0423 80.323 31.0977 80.1473 31.0977C79.978 31.0977 79.812 31.0651 79.6492 31C79.493 30.9414 79.3563 30.8633 79.2391 30.7656C78.9917 30.5573 78.868 30.3294 78.868 30.082C78.868 29.9844 78.9396 29.7923 79.0828 29.5059L79.4539 28.7148C79.5711 28.4805 79.7078 28.181 79.8641 27.8164L80.4109 26.4785C81.1792 24.5579 81.5633 23.3177 81.5633 22.7578C81.5633 22.4583 81.4656 22.237 81.2703 22.0938L81.075 21.957C81.0099 21.9115 80.9773 21.8333 80.9773 21.7227C80.9773 21.6055 81.0197 21.4948 81.1043 21.3906C81.1954 21.2865 81.3126 21.1953 81.4559 21.1172C81.7488 20.9674 82.0418 20.8926 82.3348 20.8926C82.6342 20.8926 82.8686 20.9251 83.0379 20.9902C83.2072 21.0553 83.3536 21.1432 83.4773 21.2539C83.7247 21.4818 83.8484 21.7194 83.8484 21.9668C83.8484 22.2142 83.8159 22.4648 83.7508 22.7188C83.6857 22.9661 83.6043 23.2201 83.5066 23.4805C83.409 23.7344 83.3048 23.9818 83.1941 24.2227C82.9337 24.7826 82.771 25.1276 82.7059 25.2578C82.6473 25.3815 82.631 25.4271 82.657 25.3945C83.8484 23.8516 84.5646 22.9401 84.8055 22.6602C85.3068 22.0807 85.6974 21.6836 85.9773 21.4688C86.4917 21.0846 86.9767 20.8926 87.4324 20.8926C87.8947 20.8926 88.2625 21.0358 88.5359 21.3223C88.8094 21.6087 88.9461 21.9863 88.9461 22.4551C88.9461 22.8652 88.8419 23.347 88.6336 23.9004C88.4253 24.4538 88.2853 24.8411 88.2137 25.0625L89.6492 23.168L90.45 22.2109C90.9318 21.6706 91.3549 21.3158 91.7195 21.1465C92.0841 20.9772 92.3803 20.8926 92.6082 20.8926C92.8426 20.8926 93.0704 20.9349 93.2918 21.0195C93.5197 21.1042 93.7117 21.2246 93.868 21.3809C94.2 21.6999 94.366 22.123 94.366 22.6504C94.366 23.1582 94.2488 23.679 94.0145 24.2129C93.7801 24.7467 93.575 25.1862 93.3992 25.5312C93.2234 25.8698 93.0542 26.2116 92.8914 26.5566C92.4161 27.5918 92.1785 28.36 92.1785 28.8613C92.1785 29.2129 92.3217 29.3887 92.6082 29.3887C92.8816 29.3887 93.129 29.3301 93.3504 29.2129C93.5783 29.0957 93.7247 29.0371 93.7898 29.0371C93.9266 29.0371 93.9949 29.1055 93.9949 29.2422C93.9949 29.8216 93.6987 30.3066 93.1063 30.6973C92.7091 30.9642 92.3445 31.0977 92.0125 31.0977C91.687 31.0977 91.4233 31.0586 91.2215 30.9805C91.0197 30.9023 90.8374 30.7786 90.6746 30.6094C90.31 30.2318 90.1277 29.7598 90.1277 29.1934C90.1277 28.627 90.1993 28.1061 90.3426 27.6309C90.4858 27.1556 90.6551 26.6966 90.8504 26.2539C91.0457 25.8047 91.241 25.3945 91.4363 25.0234C91.6382 24.6458 91.7911 24.3464 91.8953 24.125C92.1036 23.6693 92.2078 23.334 92.2078 23.1191C92.2078 22.8652 92.0743 22.7383 91.8074 22.7383C91.4559 22.7383 90.8243 23.321 89.9129 24.4863C89.2228 25.3913 88.7443 26.0423 88.4773 26.4395L87.8035 27.416C87.4259 28.1322 87.1362 28.7279 86.9344 29.2031L86.4363 30.3359C86.3126 30.6159 86.2052 30.8145 86.1141 30.9316C86.0229 31.0423 85.896 31.0977 85.7332 31.0977C85.5704 31.0977 85.4109 31.0716 85.2547 31.0195C85.1049 30.9674 84.9747 30.8991 84.8641 30.8145C84.6102 30.6257 84.4832 30.4271 84.4832 30.2188C84.4832 30.0039 84.5516 29.7142 84.6883 29.3496C84.8315 28.9785 85.0073 28.5651 85.2156 28.1094L86.5828 25.2188C87.0711 24.1445 87.3152 23.4642 87.3152 23.1777C87.3152 22.8848 87.1818 22.7383 86.9148 22.7383ZM87.8816 25.4922C87.8882 25.4922 87.8914 25.4889 87.8914 25.4824L87.9012 25.4629C87.8882 25.4759 87.8816 25.4857 87.8816 25.4922ZM103.771 23.8223C102.971 23.7507 102.186 23.7148 101.418 23.7148C100.656 23.7148 99.8652 23.7637 99.0449 23.8613C98.0098 26.752 96.8997 28.819 95.7148 30.0625C95.2786 30.5247 94.8262 30.8372 94.3574 31C94.2402 31.0456 94.1198 31.0684 93.9961 31.0684C93.8789 31.0684 93.7747 31.0456 93.6836 31C93.5859 30.9609 93.5078 30.9089 93.4492 30.8438C93.3125 30.7135 93.2441 30.5768 93.2441 30.4336C93.2441 30.2839 93.293 30.1732 93.3906 30.1016C94.4258 29.3594 95.5228 27.429 96.6816 24.3105C96.6296 24.3236 96.5807 24.3366 96.5352 24.3496C96.4896 24.3626 96.4342 24.3789 96.3691 24.3984C96.304 24.418 96.2259 24.3984 96.1348 24.3398C96.0436 24.2812 95.9622 24.2031 95.8906 24.1055C95.7214 23.8711 95.6986 23.6986 95.8223 23.5879C96.0501 23.3861 96.4863 23.194 97.1309 23.0117C98.0033 20.3099 98.4557 18.3958 98.4883 17.2695C98.2214 17.2826 97.974 17.3542 97.7461 17.4844L97.0039 17.9043C96.8021 18.015 96.5352 17.9271 96.2031 17.6406C95.8776 17.3672 95.7344 17.1068 95.7734 16.8594C95.819 16.4883 96.3398 16.1823 97.3359 15.9414C97.6875 15.8568 97.9642 15.8145 98.166 15.8145C98.3678 15.8145 98.5664 15.821 98.7617 15.834C98.9635 15.8405 99.1458 15.8633 99.3086 15.9023C99.9596 16.0586 100.36 16.3385 100.51 16.7422C100.575 16.9245 100.607 17.1458 100.607 17.4062C100.607 17.6602 100.581 17.9629 100.529 18.3145C100.477 18.6595 100.402 19.0534 100.305 19.4961C100.096 20.4596 99.8197 21.4883 99.4746 22.582C100.894 22.4128 102.362 22.3281 103.879 22.3281H104.299L104.836 20.7266C105.435 18.9232 105.803 17.5592 105.939 16.6348C106.024 16.0879 106.298 15.8145 106.76 15.8145C107.059 15.8145 107.307 15.8893 107.502 16.0391C107.867 16.306 108.042 16.5957 108.029 16.9082C108.016 17.2142 107.961 17.5592 107.863 17.9434C107.766 18.3275 107.639 18.7572 107.482 19.2324C107.326 19.7077 107.147 20.2188 106.945 20.7656L106.33 22.416L106.564 22.4355C106.662 22.4486 106.753 22.4616 106.838 22.4746C106.929 22.4811 107.007 22.4974 107.072 22.5234C107.209 22.5755 107.277 22.6667 107.277 22.7969C107.277 22.9206 107.238 23.054 107.16 23.1973C107.089 23.334 106.984 23.4642 106.848 23.5879C106.516 23.8874 106.132 24.0436 105.695 24.0566C104.901 26.1465 104.439 27.429 104.309 27.9043C104.178 28.373 104.113 28.6921 104.113 28.8613C104.113 29.2129 104.253 29.3887 104.533 29.3887C104.794 29.3887 105.005 29.3464 105.168 29.2617L105.52 29.0859C105.591 29.0534 105.66 29.0371 105.725 29.0371C105.861 29.0371 105.93 29.1055 105.93 29.2422C105.93 29.8216 105.594 30.3066 104.924 30.6973C104.481 30.9577 104.022 31.0879 103.547 31.0879C102.883 31.0879 102.421 30.7917 102.16 30.1992C102.069 29.9974 102.023 29.8053 102.023 29.623C102.023 29.1999 102.089 28.7734 102.219 28.3438C102.349 27.9076 102.492 27.4648 102.648 27.0156L103.771 23.8223ZM107.747 30.3359C107.474 30.0755 107.259 29.7467 107.103 29.3496C106.946 28.946 106.865 28.4707 106.859 27.9238C106.852 27.377 106.917 26.8236 107.054 26.2637C107.197 25.7038 107.396 25.1634 107.65 24.6426C107.91 24.1217 108.219 23.6335 108.577 23.1777C108.942 22.722 109.342 22.3249 109.779 21.9863C110.729 21.2572 111.715 20.8926 112.737 20.8926C114.079 20.8926 114.987 21.4818 115.462 22.6602C115.801 23.513 115.82 24.5449 115.521 25.7559C115.247 26.8691 114.746 27.8913 114.017 28.8223C113.294 29.7533 112.441 30.4141 111.458 30.8047C110.963 31 110.475 31.0977 109.993 31.0977C109.518 31.0977 109.092 31.0358 108.714 30.9121C108.343 30.7884 108.021 30.5964 107.747 30.3359ZM109.612 25.5996C109.417 26.0814 109.261 26.5762 109.144 27.084C109.033 27.5918 108.981 28.0736 108.987 28.5293C108.994 28.9785 109.062 29.3333 109.193 29.5938C109.329 29.8477 109.547 29.9746 109.847 29.9746C110.146 29.9746 110.439 29.8737 110.726 29.6719C111.019 29.4635 111.302 29.1901 111.575 28.8516C111.849 28.513 112.106 28.1224 112.347 27.6797C112.588 27.237 112.799 26.7747 112.982 26.293C113.379 25.2448 113.571 24.3138 113.558 23.5C113.558 22.7839 113.411 22.3281 113.118 22.1328C113.001 22.0547 112.835 22.0156 112.62 22.0156C112.412 22.0156 112.171 22.1133 111.898 22.3086C111.624 22.4974 111.351 22.7546 111.077 23.0801C110.804 23.4056 110.54 23.7865 110.286 24.2227C110.032 24.6589 109.808 25.1178 109.612 25.5996ZM122.973 22.7383C122.771 22.7383 122.485 22.9336 122.114 23.3242C121.743 23.7083 121.42 24.0599 121.147 24.3789L120.317 25.375L118.715 27.416C118.338 28.1322 118.041 28.7279 117.827 29.2031L117.299 30.3359C117.162 30.6159 117.042 30.8145 116.938 30.9316C116.84 31.0423 116.704 31.0977 116.528 31.0977C116.358 31.0977 116.192 31.0651 116.03 31C115.873 30.9414 115.737 30.8633 115.62 30.7656C115.372 30.5573 115.248 30.3294 115.248 30.082C115.248 29.9844 115.32 29.7923 115.463 29.5059L115.834 28.7148C115.952 28.4805 116.088 28.181 116.245 27.8164L116.791 26.4785C117.56 24.5579 117.944 23.3177 117.944 22.7578C117.944 22.4583 117.846 22.237 117.651 22.0938L117.455 21.957C117.39 21.9115 117.358 21.8333 117.358 21.7227C117.358 21.6055 117.4 21.4948 117.485 21.3906C117.576 21.2865 117.693 21.1953 117.836 21.1172C118.129 20.9674 118.422 20.8926 118.715 20.8926C119.015 20.8926 119.246 20.9251 119.409 20.9902C119.571 21.0553 119.708 21.1432 119.819 21.2539C120.06 21.4818 120.18 21.7194 120.18 21.9668C120.18 22.2142 120.148 22.4648 120.082 22.7188C120.024 22.9661 119.946 23.2201 119.848 23.4805C119.757 23.7344 119.659 23.985 119.555 24.2324C119.451 24.4798 119.357 24.6947 119.272 24.877L119.077 25.2969C119.024 25.401 119.011 25.4336 119.037 25.3945C119.76 24.3919 120.235 23.7474 120.463 23.4609L121.147 22.6406C121.648 22.0547 122.042 21.6673 122.329 21.4785C122.908 21.0879 123.364 20.8926 123.696 20.8926C124.028 20.8926 124.308 20.9349 124.536 21.0195C124.763 21.1042 124.962 21.2246 125.131 21.3809C125.489 21.7129 125.668 22.1361 125.668 22.6504C125.668 23.1647 125.551 23.7018 125.317 24.2617C125.082 24.8216 124.877 25.2773 124.702 25.6289C124.532 25.974 124.37 26.3255 124.213 26.6836C123.725 27.7708 123.481 28.5618 123.481 29.0566C123.481 29.278 123.657 29.3887 124.008 29.3887C124.282 29.3887 124.529 29.3301 124.75 29.2129C124.978 29.0957 125.125 29.0371 125.19 29.0371C125.327 29.0371 125.395 29.1055 125.395 29.2422C125.395 29.8216 125.099 30.3066 124.506 30.6973C124.109 30.9642 123.745 31.0977 123.412 31.0977C123.08 31.0977 122.804 31.0618 122.582 30.9902C122.368 30.9186 122.176 30.8047 122.006 30.6484C121.622 30.3034 121.43 29.8216 121.43 29.2031C121.43 28.4479 121.668 27.5039 122.143 26.3711C122.488 25.5964 122.732 25.0658 122.875 24.7793L123.207 24.0859C123.409 23.6693 123.51 23.3405 123.51 23.0996C123.51 22.8587 123.331 22.7383 122.973 22.7383ZM126.06 27.582C126.086 27.0156 126.181 26.4753 126.343 25.9609C126.506 25.4401 126.724 24.9388 126.998 24.457C127.271 23.9688 127.59 23.5098 127.955 23.0801C128.326 22.6439 128.726 22.263 129.156 21.9375C130.087 21.2409 131.028 20.8926 131.978 20.8926C133.091 20.8926 133.834 21.3516 134.205 22.2695C134.335 22.582 134.397 22.9531 134.39 23.3828C134.384 23.806 134.302 24.1999 134.146 24.5645C133.99 24.9225 133.772 25.2513 133.492 25.5508C133.218 25.8438 132.89 26.1074 132.505 26.3418C132.128 26.5762 131.714 26.7747 131.265 26.9375C130.341 27.263 129.351 27.4323 128.296 27.4453C128.27 27.5365 128.254 27.6732 128.248 27.8555C128.241 28.0378 128.261 28.2428 128.306 28.4707C128.352 28.6921 128.43 28.8906 128.541 29.0664C128.775 29.457 129.114 29.6523 129.556 29.6523C130.311 29.6523 131.047 29.431 131.763 28.9883C132.017 28.8385 132.222 28.6855 132.379 28.5293C132.541 28.3665 132.681 28.2852 132.798 28.2852C132.916 28.2852 133.017 28.3568 133.101 28.5C133.192 28.6367 133.238 28.793 133.238 28.9688C133.238 29.3138 133.14 29.6133 132.945 29.8672C132.125 30.6875 130.904 31.0977 129.283 31.0977C128.326 31.0977 127.558 30.8112 126.978 30.2383C126.327 29.5872 126.021 28.7018 126.06 27.582ZM131.763 22.1914C131.08 22.1914 130.422 22.6602 129.791 23.5977C129.257 24.4049 128.827 25.362 128.502 26.4688C129.589 26.3581 130.533 25.9284 131.334 25.1797C132.069 24.4766 132.437 23.8027 132.437 23.1582C132.437 22.5137 132.213 22.1914 131.763 22.1914ZM134.177 30.0527C134.098 29.8379 134.059 29.5938 134.059 29.3203C134.059 29.0404 134.105 28.7311 134.196 28.3926C134.294 28.0475 134.417 27.6895 134.567 27.3184C134.717 26.9473 134.88 26.5664 135.055 26.1758L135.583 25.0039C136.26 23.5 136.511 22.6081 136.335 22.3281C136.257 22.2044 136.11 22.0807 135.895 21.957C135.817 21.9115 135.778 21.8333 135.778 21.7227C135.778 21.6055 135.824 21.4948 135.915 21.3906C136.012 21.2865 136.136 21.1953 136.286 21.1172C136.605 20.9674 136.924 20.8926 137.243 20.8926C137.562 20.8926 137.803 20.9284 137.966 21C138.135 21.0651 138.272 21.1497 138.376 21.2539C138.591 21.4688 138.698 21.7064 138.698 21.9668C138.698 22.2272 138.656 22.5202 138.571 22.8457C138.486 23.1647 138.376 23.513 138.239 23.8906C138.102 24.2682 137.953 24.6589 137.79 25.0625C137.341 26.1172 137.038 26.8138 136.882 27.1523L136.52 27.9043C136.318 28.3535 136.218 28.6693 136.218 28.8516C136.218 29.0339 136.247 29.1641 136.305 29.2422C136.364 29.3138 136.468 29.3496 136.618 29.3496C136.774 29.3496 136.943 29.291 137.126 29.1738C137.315 29.0566 137.516 28.9004 137.731 28.7051C137.946 28.5098 138.167 28.2852 138.395 28.0312C138.63 27.7708 138.858 27.5007 139.079 27.2207C139.658 26.5046 140.088 25.8893 140.368 25.375C141.774 22.7839 142.52 21.4297 142.604 21.3125C142.819 21.0326 143.034 20.8926 143.249 20.8926C143.47 20.8926 143.662 20.9186 143.825 20.9707C143.988 21.0163 144.128 21.0846 144.245 21.1758C144.505 21.3646 144.583 21.5762 144.479 21.8105C144.382 22.0449 144.261 22.3672 144.118 22.7773C142.881 26.3646 142.077 28.6009 141.706 29.4863C141.341 30.3717 141.022 31.0814 140.749 31.6152C140.475 32.1556 140.153 32.6992 139.782 33.2461C139.417 33.793 139.027 34.291 138.61 34.7402C137.66 35.7559 136.768 36.2995 135.934 36.3711C135.615 36.3971 135.361 36.3516 135.173 36.2344C134.847 36.0391 134.684 35.8535 134.684 35.6777C134.684 35.502 134.831 35.3783 135.124 35.3066C135.423 35.2415 135.729 35.1048 136.042 34.8965C136.361 34.6947 136.667 34.457 136.96 34.1836C137.819 33.3633 138.486 32.4714 138.962 31.5078C139.365 30.6615 139.691 29.8607 139.938 29.1055L140.7 26.7812C140.511 27.0091 140.303 27.276 140.075 27.582L139.372 28.5195C138.76 29.2943 138.252 29.8444 137.848 30.1699C137.08 30.7884 136.393 31.0977 135.788 31.0977C134.981 31.0977 134.443 30.7493 134.177 30.0527Z" fill="black"/>
<path d="M25.6929 12.4058H15.5175L11.378 19.5755C10.7933 20.589 10.7933 21.8469 11.378 22.8603L15.5175 30.0301H25.6929L30.7802 21.2184L25.6929 12.4067V12.4058Z" fill="#FFC316"/>
<path d="M35.1018 20.536H31.9603L27.2142 12.3154C30.1341 11.8174 32.3653 9.26143 32.3653 6.19192C32.3653 2.77761 29.5877 0 26.1724 0C20.8079 0 17.1756 6.57869 15.0045 10.5093C14.8331 10.8204 14.6698 11.1159 14.5147 11.3914L13.9683 12.3647L11.6951 16.3017C10.7474 12.829 7.67422 10.2247 3.96527 9.98114C3.68979 9.18024 2.93177 8.60283 2.03874 8.60283C0.914923 8.60283 0 9.51684 0 10.6416C0 11.7663 0.91401 12.6803 2.03874 12.6803C2.91443 12.6803 3.66152 12.1239 3.94885 11.3467C7.54925 11.6203 10.4226 14.5375 10.6242 18.1571L10.1973 18.8959C9.36998 20.329 9.36998 22.1096 10.1973 23.5426L14.73 31.3929H26.478L31.9584 21.8998H35.1C35.4758 21.8998 35.7814 21.5951 35.7814 21.2184C35.7814 20.8416 35.4767 20.537 35.1 20.537L35.1018 20.536ZM2.03965 11.3166C1.66656 11.3166 1.36372 11.0128 1.36372 10.6407C1.36372 10.2685 1.66656 9.96472 2.03965 9.96472C2.41273 9.96472 2.71558 10.2685 2.71558 10.6407C2.71558 11.0128 2.41182 11.3166 2.03965 11.3166ZM26.1724 1.36189C28.836 1.36189 31.0025 3.52925 31.0025 6.19192C31.0025 8.85459 28.836 11.0429 26.1724 11.0429H16.2661C18.2985 7.36317 21.6635 1.36189 26.1724 1.36189ZM11.3786 22.8594C10.7939 21.8459 10.7939 20.588 11.3786 19.5746L11.9633 18.5612H11.9998C11.9998 18.5411 11.9989 18.521 11.998 18.5L14.751 13.7311L19.0729 21.2165L14.751 28.7019L11.3777 22.8594H11.3786ZM17.1318 30.0292L22.219 21.2174L17.1318 12.4057H20.0426L25.1298 21.2174L20.0426 30.0292H17.1318ZM25.6926 30.0292H23.1887L28.2759 21.2174L23.1887 12.4057H25.6926L30.7799 21.2174L25.6926 30.0292Z" fill="#414042"/>
<path d="M27.4833 3.88924C27.6986 4.00143 27.8172 4.09995 28.0033 4.27783C28.1355 4.40371 28.3043 4.46665 28.4739 4.46665C28.6536 4.46665 28.8324 4.39641 28.9656 4.25685C29.2256 3.98501 29.2165 3.55355 28.9446 3.29358C28.6856 3.04638 28.4676 2.86667 28.1136 2.68241C27.7807 2.50819 27.3693 2.6368 27.1951 2.97066C27.0208 3.30361 27.1504 3.71592 27.4833 3.88924Z" fill="#414042"/>
<path d="M26.4374 2.80783C26.3945 2.43384 26.0533 2.16474 25.683 2.20853C24.0237 2.39735 22.3891 3.51295 20.6842 5.61828C20.4471 5.91018 20.4927 6.33982 20.7846 6.57607C20.9104 6.67824 21.0619 6.7275 21.2124 6.7275C21.4112 6.7275 21.6074 6.64084 21.7424 6.47482C23.1909 4.68602 24.5683 3.70634 25.8372 3.5613C26.2112 3.51843 26.4793 3.18092 26.4365 2.80783H26.4374Z" fill="#414042"/>
<path d="M14.6187 17.4841C13.7667 17.4841 13.0762 18.1747 13.0762 19.0266C13.0762 19.8786 13.7667 20.5691 14.6187 20.5691C15.4707 20.5691 16.1612 19.8786 16.1612 19.0266C16.1612 18.1747 15.4707 17.4841 14.6187 17.4841Z" fill="#414042"/>
</svg>
